{"glyphs":{"0":{"ha":1068,"x_min":0,"x_max":0,"o":"m 82 433 b 83 311 82 394 81 353 b 172 -22 90 194 114 81 b 350 -190 214 -96 271 -157 b 751 -79 492 -253 643 -210 b 954 369 861 51 924 203 b 890 836 985 532 974 690 b 519 1061 810 981 686 1056 b 282 1029 438 1064 360 1049 b 49 893 190 1007 117 953 b 72 768 0 850 13 790 b 104 700 115 753 111 733 b 82 433 85 614 78 525 z m 835 514 b 643 17 828 329 764 161 b 285 21 532 -117 394 -112 b 217 154 253 61 231 106 b 231 768 160 360 178 565 b 263 815 236 788 242 808 b 346 890 301 829 329 850 b 393 918 353 910 375 913 b 829 611 611 981 801 847 b 835 514 833 581 833 550 z "},"1":{"ha":538,"x_min":0,"x_max":0,"o":"m 285 -179 b 368 -179 313 -179 340 -181 b 449 -122 415 -176 443 -156 b 388 -47 454 -86 436 -64 b 363 -43 379 -46 371 -43 b 310 18 325 -39 310 -18 b 310 85 310 40 310 63 b 369 663 311 279 343 471 b 396 961 383 761 401 860 b 342 1036 393 997 376 1025 b 260 1010 308 1047 281 1033 b 129 808 206 950 163 881 b 176 692 107 757 126 715 b 231 588 242 660 240 660 b 186 67 204 415 182 242 b 82 -79 188 -44 186 -44 b 75 -83 79 -81 78 -82 b 15 -175 22 -103 0 -136 b 125 -211 31 -217 83 -239 b 285 -179 176 -178 231 -181 z "},"2":{"ha":818,"x_min":0,"x_max":0,"o":"m 451 -214 b 588 -214 504 -214 546 -215 b 651 -161 621 -212 646 -196 b 610 -87 658 -126 640 -103 b 488 -76 571 -68 528 -67 b 257 -101 411 -93 332 -81 b 221 -89 244 -104 228 -106 b 228 -60 215 -78 222 -68 b 356 115 271 0 313 58 b 626 504 450 242 549 365 b 721 786 676 592 710 685 b 535 1061 735 922 667 1026 b 74 964 367 1106 211 1072 b 21 890 49 944 31 919 b 71 746 0 833 22 771 b 164 753 103 729 135 726 b 174 835 190 776 194 807 b 193 907 147 871 164 889 b 439 967 269 954 351 974 b 589 764 564 958 617 886 b 469 501 568 668 519 583 b 124 24 367 332 243 181 b 47 -104 93 -15 63 -56 b 115 -226 31 -161 57 -212 b 197 -231 142 -232 169 -231 b 451 -214 286 -233 374 -204 z "},"3":{"ha":838,"x_min":0,"x_max":0,"o":"m 247 -282 b 507 -235 336 -283 422 -260 b 636 -178 553 -222 596 -203 b 681 63 732 -115 747 -32 b 540 178 644 114 593 146 b 418 249 500 201 457 222 b 392 361 368 283 363 310 b 453 450 410 393 431 422 b 628 672 510 525 569 597 b 706 799 658 711 686 753 b 582 1046 754 921 710 1017 b 63 926 392 1086 221 1028 b 29 890 50 918 39 903 b 61 761 0 842 15 785 b 171 810 107 738 149 753 b 231 874 183 842 203 861 b 479 935 310 908 392 935 b 590 897 519 933 568 942 b 558 790 610 857 579 822 b 383 569 507 711 443 642 b 268 407 342 517 299 467 b 318 157 215 308 233 228 b 438 82 356 126 397 106 b 557 -8 482 57 524 31 b 546 -68 578 -33 575 -57 b 200 -108 435 -112 325 -176 b 93 -150 156 -83 113 -103 b 156 -274 72 -200 99 -256 b 247 -282 186 -283 217 -281 z "},"4":{"ha":874,"x_min":0,"x_max":0,"o":"m 625 332 b 638 301 638 324 638 313 b 628 -6 635 199 635 96 b 636 -187 622 -67 626 -128 b 718 -260 643 -240 678 -268 b 767 -168 756 -251 775 -218 b 757 -111 764 -149 757 -131 b 769 494 758 90 750 293 b 786 660 775 550 781 604 b 740 739 790 696 776 726 b 658 699 703 751 676 731 b 619 617 643 672 631 644 b 531 467 597 563 569 511 b 269 344 463 388 378 340 b 179 460 194 349 165 385 b 213 544 186 489 199 517 b 419 854 268 656 343 756 b 456 935 439 879 456 903 b 401 1019 456 976 433 1013 b 322 963 371 1028 333 1007 b 210 771 301 888 254 831 b 60 513 151 689 94 607 b 261 203 0 353 90 215 b 558 289 371 194 468 229 b 625 332 581 303 597 328 z "},"5":{"ha":821,"x_min":0,"x_max":0,"o":"m 118 663 b 128 744 121 690 122 717 b 261 879 140 819 189 874 b 617 829 383 890 504 896 b 718 844 661 803 699 811 b 688 946 738 878 726 914 b 572 990 654 972 613 983 b 210 1001 453 1015 331 1018 b 146 1008 186 999 167 1000 b 39 953 78 1033 50 1022 b 13 574 21 828 0 701 b 107 365 19 494 51 424 b 276 247 156 315 214 278 b 501 139 351 211 428 179 b 511 1 576 99 582 53 b 154 -94 406 -74 289 -122 b 65 -132 107 -85 78 -97 b 110 -236 51 -172 69 -217 b 208 -246 142 -253 176 -250 b 524 -147 318 -231 425 -201 b 669 -15 582 -114 635 -74 b 628 219 722 74 708 156 b 474 301 582 257 526 278 b 278 392 408 332 342 358 b 118 663 168 447 118 540 z "},"6":{"ha":1043,"x_min":0,"x_max":0,"o":"m 200 242 b 200 315 188 272 194 293 b 340 696 228 449 272 576 b 522 885 385 774 418 860 b 556 997 568 896 579 956 b 447 1019 532 1036 490 1046 b 382 956 422 1003 401 979 b 63 236 208 746 106 504 b 24 103 56 190 51 143 b 33 4 0 69 1 31 b 96 -103 67 -25 78 -65 b 360 -308 149 -215 239 -283 b 526 -312 415 -321 471 -319 b 879 -101 674 -293 794 -225 b 904 204 944 -7 960 99 b 650 347 851 306 760 342 b 303 278 528 353 414 325 b 200 242 269 265 239 244 z m 450 -172 b 200 -3 318 -172 233 -114 b 235 93 183 50 188 67 b 551 213 335 147 439 193 b 635 217 579 217 607 218 b 774 143 692 214 750 200 b 749 -31 797 85 792 22 b 450 -172 671 -126 571 -178 z "},"7":{"ha":865,"x_min":0,"x_max":0,"o":"m 779 649 b 482 1039 782 883 678 1014 b 69 969 339 1057 201 1024 b 22 864 15 949 0 903 b 138 844 44 825 89 815 b 456 917 236 904 344 919 b 657 711 585 913 651 840 b 597 369 663 593 635 481 b 443 -69 547 224 494 78 b 421 -174 432 -103 419 -136 b 463 -239 422 -204 433 -228 b 533 -228 489 -250 513 -243 b 568 -157 557 -210 574 -186 b 593 -19 560 -107 578 -64 b 707 318 631 93 669 206 b 779 649 744 435 774 553 z "},"8":{"ha":1019,"x_min":0,"x_max":0,"o":"m 458 1111 b 192 1033 346 1111 263 1086 b 122 726 86 956 61 840 b 228 599 150 676 189 638 b 239 479 286 543 286 543 b 42 107 153 365 79 246 b 242 -228 0 -54 81 -186 b 488 -231 324 -250 404 -249 b 824 -78 611 -204 726 -160 b 922 156 896 -17 936 58 b 797 346 910 238 857 294 b 763 478 735 400 735 400 b 821 794 797 581 828 683 b 596 1092 814 938 732 1044 b 458 1111 549 1108 499 1113 z m 356 -106 b 288 -101 332 -104 308 -106 b 161 78 192 -86 140 -15 b 346 426 192 210 258 324 b 381 449 356 438 365 446 b 540 319 425 457 539 365 b 643 242 544 239 568 217 b 751 190 703 263 724 221 b 765 75 781 157 790 117 b 696 6 747 46 724 24 b 356 -106 593 -65 479 -104 z m 683 743 b 635 524 686 669 660 597 b 579 503 624 492 607 483 b 285 746 476 576 369 649 b 338 951 208 835 228 907 b 565 954 411 981 490 981 b 683 743 654 922 685 865 z "},"9":{"ha":1044,"x_min":0,"x_max":0,"o":"m 819 763 b 806 504 831 674 811 589 b 697 56 797 349 756 200 b 636 -7 685 26 671 4 b 568 -153 574 -25 549 -87 b 633 -221 578 -186 597 -212 b 719 -183 671 -231 697 -211 b 794 -36 754 -140 775 -87 b 925 494 861 135 911 311 b 936 915 936 633 961 774 b 865 1035 928 967 926 1021 b 756 963 810 1047 783 1000 b 679 954 721 913 717 910 b 242 967 589 1058 379 1088 b 14 518 107 846 26 696 b 336 271 0 297 164 208 b 529 397 410 297 472 343 b 765 696 624 485 696 589 b 819 763 781 718 789 744 z m 142 518 b 308 869 151 663 208 776 b 465 929 351 910 403 939 b 571 676 585 911 640 774 b 417 492 524 613 475 547 b 278 401 375 454 331 421 b 144 485 200 374 156 403 b 142 518 143 499 142 513 z "}," ":{"ha":556,"x_min":0,"x_max":0,"o":""}," ":{"ha":556,"x_min":0,"x_max":0,"o":""},"!":{"ha":243,"x_min":0,"x_max":0,"o":"m 3 457 b 3 183 3 367 1 275 b 11 110 3 158 4 133 b 93 60 25 68 60 47 b 129 140 133 74 140 106 b 117 313 111 197 108 256 b 128 494 124 374 126 433 b 143 685 129 558 128 621 b 132 799 151 722 146 761 b 75 842 121 824 103 840 b 13 796 44 842 24 824 b 3 697 0 764 0 731 b 3 457 10 618 4 538 z m 158 -146 b 86 -71 160 -107 125 -71 b 19 -132 53 -69 22 -97 b 86 -211 15 -171 47 -210 b 158 -146 122 -214 157 -183 z "},"\"":{"ha":492,"x_min":0,"x_max":0,"o":"m 161 1139 b 165 1204 163 1161 168 1183 b 103 1261 160 1236 139 1258 b 39 1221 72 1263 43 1250 b 32 951 24 1132 0 1042 b 133 889 50 900 93 875 b 176 992 174 903 186 935 b 161 1139 167 1040 154 1089 z m 383 1139 b 388 1204 385 1161 390 1183 b 325 1261 382 1236 361 1258 b 261 1221 294 1263 265 1250 b 254 951 246 1132 222 1042 b 356 889 272 900 315 875 b 399 992 396 903 408 935 b 383 1139 389 1040 376 1089 z "},"#":{"ha":1046,"x_min":0,"x_max":0,"o":"m 794 504 b 806 626 815 542 829 582 b 721 679 783 667 753 688 b 667 604 683 669 668 640 b 664 522 664 578 665 550 b 631 472 664 499 657 476 b 490 454 583 465 539 450 b 453 510 444 457 435 467 b 449 639 472 556 464 597 b 376 697 436 671 417 701 b 315 619 335 692 318 658 b 314 528 313 589 314 558 b 226 419 317 440 311 435 b 67 381 172 410 117 403 b 43 261 8 356 0 300 b 157 254 76 231 119 228 b 201 290 172 265 185 283 b 313 224 281 322 321 324 b 313 190 311 213 311 201 b 247 122 314 146 292 122 b 142 100 211 121 175 114 b 103 13 104 85 88 47 b 185 -25 118 -24 147 -35 b 264 -1 211 -18 238 -8 b 311 -37 296 8 311 -6 b 314 -104 313 -60 313 -82 b 350 -185 318 -135 326 -164 b 435 -196 376 -208 406 -212 b 454 -124 463 -179 465 -153 b 440 -85 450 -110 443 -97 b 515 32 419 -3 435 19 b 590 43 540 36 565 42 b 683 -36 668 46 668 44 b 731 -175 693 -85 694 -136 b 821 -190 757 -204 793 -210 b 828 -104 849 -171 854 -143 b 792 -4 806 -74 799 -39 b 826 28 788 21 792 43 b 850 18 835 24 842 19 b 943 81 892 10 935 39 b 890 163 951 115 931 149 b 850 169 878 167 864 168 b 786 243 789 179 789 181 b 786 292 785 258 785 275 b 853 342 789 356 789 356 b 951 392 903 331 940 350 b 881 485 963 436 933 475 b 794 504 854 490 825 478 z m 529 153 b 436 242 435 149 435 149 b 438 292 436 258 438 275 b 490 343 439 326 457 342 b 614 354 532 346 572 350 b 664 314 644 358 661 346 b 664 306 664 311 664 308 b 529 153 681 169 671 160 z "},"$":{"ha":951,"x_min":0,"x_max":0,"o":"m 513 457 b 513 668 513 546 511 607 b 538 706 513 685 518 701 b 572 686 554 708 564 699 b 593 651 579 675 585 661 b 714 672 632 608 690 618 b 661 814 736 722 713 785 b 557 835 629 833 593 838 b 461 844 524 831 494 829 b 365 807 417 864 385 851 b 275 714 346 763 313 739 b 94 532 204 664 143 604 b 200 144 3 399 0 236 b 369 75 256 119 313 97 b 422 1 404 63 422 40 b 428 -149 422 -49 424 -99 b 378 -194 432 -187 411 -194 b 299 -175 349 -196 325 -178 b 211 -236 257 -171 221 -197 b 269 -324 201 -275 225 -311 b 343 -325 293 -331 318 -326 b 467 -356 388 -322 428 -319 b 560 -331 500 -387 535 -378 b 621 -283 574 -303 593 -292 b 774 -219 675 -269 728 -251 b 801 1 857 -162 868 -75 b 715 67 778 29 747 50 b 581 129 671 89 626 111 b 526 203 546 144 526 164 b 513 457 524 297 507 390 z m 419 286 b 419 244 419 272 419 258 b 368 208 417 201 408 193 b 210 278 314 229 258 246 b 163 426 149 319 135 360 b 356 636 200 521 272 583 b 396 615 379 651 390 638 b 401 583 399 604 401 593 b 419 286 404 483 408 385 z m 531 -69 b 531 -28 531 -56 529 -42 b 564 -6 532 -7 544 1 b 685 -74 608 -21 651 -40 b 678 -128 704 -93 700 -112 b 640 -146 667 -135 653 -140 b 531 -69 550 -181 529 -167 z "},"%":{"ha":858,"x_min":0,"x_max":0,"o":"m 774 913 b 725 1000 775 957 757 990 b 638 951 681 1011 657 983 b 29 -58 426 619 221 285 b 8 -103 21 -72 13 -87 b 31 -167 0 -129 6 -153 b 96 -147 58 -181 79 -168 b 113 -118 103 -137 107 -128 b 644 743 276 176 460 461 b 724 824 665 775 685 807 b 774 913 761 839 772 875 z m 378 765 b 378 815 378 782 379 799 b 189 974 368 910 285 981 b 75 892 135 969 90 944 b 85 608 50 797 43 701 b 322 579 135 499 249 483 b 378 765 365 633 379 697 z m 206 667 b 193 783 175 707 167 744 b 229 799 200 794 214 803 b 243 764 246 794 246 778 b 206 667 236 733 240 697 z m 744 43 b 629 236 744 131 713 199 b 481 192 565 265 514 251 b 440 -74 435 108 424 18 b 532 -182 449 -125 478 -167 b 675 -139 588 -199 636 -182 b 744 43 722 -87 746 -28 z m 565 -50 b 578 83 557 6 553 44 b 565 -50 611 36 611 31 z "},"&":{"ha":979,"x_min":0,"x_max":0,"o":"m 465 957 b 153 713 306 957 193 867 b 186 429 126 613 146 519 b 165 303 207 379 204 343 b 50 113 114 247 74 183 b 256 -125 0 -36 101 -151 b 489 -22 342 -111 417 -71 b 635 -25 561 25 561 25 b 765 -112 678 -54 721 -83 b 875 -107 814 -143 854 -142 b 825 -12 896 -74 876 -28 b 690 68 774 3 733 38 b 683 144 646 100 646 106 b 831 290 732 193 782 242 b 839 381 857 318 864 349 b 742 390 815 410 775 414 b 707 354 729 381 718 367 b 631 279 682 329 657 303 b 418 290 522 181 518 182 b 406 303 414 294 410 299 b 406 389 376 332 376 360 b 553 536 456 438 506 486 b 674 713 603 589 649 644 b 572 942 713 813 671 901 b 465 957 538 956 501 956 z m 268 606 b 426 838 269 726 329 808 b 517 836 457 846 486 847 b 558 742 567 819 583 790 b 335 488 506 639 424 560 b 289 504 314 471 296 482 b 268 606 279 540 274 579 z m 243 7 b 171 85 174 6 154 31 b 258 233 188 142 222 188 b 313 233 276 257 294 251 b 410 143 344 203 378 172 b 415 94 426 128 436 110 b 243 7 360 53 301 17 z "},"'":{"ha":269,"x_min":0,"x_max":0,"o":"m 161 1139 b 165 1204 163 1161 168 1183 b 103 1261 160 1236 139 1258 b 39 1221 72 1263 43 1250 b 32 951 24 1132 0 1042 b 133 889 50 900 93 875 b 176 992 174 903 186 935 b 161 1139 167 1040 154 1089 z "},"(":{"ha":542,"x_min":0,"x_max":0,"o":"m 336 1097 b 271 1042 307 1097 281 1076 b 197 883 253 986 222 936 b 51 469 132 751 81 615 b 222 -186 0 222 51 3 b 333 -271 254 -221 288 -256 b 443 -219 378 -285 428 -260 b 390 -124 458 -179 440 -139 b 290 -53 347 -111 318 -83 b 156 353 182 61 140 201 b 383 967 176 575 244 786 b 410 1026 397 985 408 1004 b 336 1097 413 1067 385 1097 z "},")":{"ha":542,"x_min":0,"x_max":0,"o":"m 122 -275 b 189 -219 153 -274 178 -253 b 261 -61 207 -162 236 -112 b 408 353 326 71 379 208 b 236 1010 458 600 407 819 b 125 1093 204 1044 172 1078 b 15 1042 81 1107 31 1083 b 69 946 0 1001 18 961 b 169 876 113 933 140 907 b 304 471 276 763 318 621 b 76 -144 282 247 215 38 b 50 -204 63 -162 51 -181 b 122 -275 47 -244 75 -274 z "},"*":{"ha":750,"x_min":0,"x_max":0,"o":"m 197 1269 b 135 1306 167 1275 154 1294 b 26 1286 88 1329 44 1322 b 65 1181 8 1249 24 1204 b 124 1150 85 1169 107 1163 b 132 1053 174 1113 175 1097 b 25 938 96 1014 53 982 b 43 833 0 899 10 856 b 139 853 72 814 110 821 b 200 910 156 874 164 903 b 222 779 208 865 211 822 b 310 721 235 735 274 711 b 353 807 344 731 360 758 b 344 881 350 832 344 856 b 415 926 342 957 349 963 b 551 868 458 903 503 879 b 658 921 603 856 649 881 b 583 1001 667 961 640 992 b 439 1063 531 1011 486 1039 b 429 1125 407 1079 400 1099 b 526 1186 458 1153 489 1172 b 569 1296 575 1206 590 1253 b 456 1324 549 1336 503 1349 b 396 1279 433 1311 415 1293 b 338 1249 379 1268 367 1246 b 325 1393 365 1303 354 1350 b 254 1424 308 1417 285 1432 b 204 1364 224 1417 208 1394 b 197 1269 200 1333 211 1303 z "},"+":{"ha":764,"x_min":0,"x_max":0,"o":"m 388 101 b 460 174 388 167 400 181 b 569 138 499 169 533 156 b 663 163 608 117 644 131 b 635 265 681 197 668 242 b 572 286 615 279 594 285 b 457 300 533 290 496 294 b 407 372 408 306 396 324 b 422 411 411 385 418 397 b 400 519 438 451 424 488 b 288 503 365 564 308 554 b 279 446 281 485 281 465 b 278 346 278 413 278 379 b 218 285 279 306 260 288 b 71 267 168 282 119 276 b 8 185 24 258 0 224 b 106 131 17 144 61 119 b 158 154 124 135 140 149 b 265 86 256 179 269 176 b 299 -31 264 44 272 4 b 386 -54 325 -64 358 -72 b 406 25 417 -35 421 -6 b 388 101 393 51 386 76 z "},",":{"ha":303,"x_min":0,"x_max":0,"o":"m 217 -156 b 151 -76 219 -115 192 -81 b 83 -140 114 -72 82 -96 b 25 -315 85 -207 64 -262 b 32 -403 3 -344 0 -378 b 124 -399 63 -425 94 -421 b 164 -347 142 -386 153 -367 b 217 -156 197 -289 206 -222 z "},"-":{"ha":822,"x_min":0,"x_max":0,"o":"m 478 335 b 82 300 344 339 213 322 b 8 240 47 293 18 276 b 36 167 0 210 13 186 b 135 167 68 142 103 142 b 211 194 158 185 185 189 b 501 211 307 215 404 211 b 618 179 543 211 581 207 b 718 199 656 151 694 163 b 703 304 739 232 733 279 b 618 335 679 325 650 335 b 478 335 571 336 525 335 z "},"­":{"ha":822,"x_min":0,"x_max":0,"o":"m 478 335 b 82 300 344 339 213 322 b 8 240 47 293 18 276 b 36 167 0 210 13 186 b 135 167 68 142 103 142 b 211 194 158 185 185 189 b 501 211 307 215 404 211 b 618 179 543 211 581 207 b 718 199 656 151 694 163 b 703 304 739 232 733 279 b 618 335 679 325 650 335 b 478 335 571 336 525 335 z "},".":{"ha":229,"x_min":0,"x_max":0,"o":"m 76 -76 b 3 -137 38 -75 7 -100 b 71 -215 0 -176 32 -214 b 146 -143 108 -217 146 -182 b 76 -76 144 -107 115 -78 z "},"/":{"ha":496,"x_min":0,"x_max":0,"o":"m 257 946 b 243 819 271 899 253 860 b 11 -149 158 499 83 175 b 3 -222 7 -174 0 -197 b 53 -279 4 -254 21 -275 b 117 -239 83 -285 106 -267 b 124 -206 121 -228 124 -217 b 158 -19 124 -142 144 -81 b 229 297 182 86 206 192 b 400 938 281 511 322 729 b 408 1028 411 967 413 997 b 365 1083 404 1054 393 1075 b 292 1058 335 1092 310 1083 b 257 946 267 1024 253 985 z "},":":{"ha":229,"x_min":0,"x_max":0,"o":"m 76 67 b 3 6 38 68 7 43 b 71 -72 0 -33 32 -71 b 146 0 108 -74 146 -39 b 76 67 144 36 115 65 z m 76 556 b 3 494 38 557 7 532 b 71 417 0 456 32 418 b 146 489 108 415 146 450 b 76 556 144 525 115 554 z "},";":{"ha":303,"x_min":0,"x_max":0,"o":"m 147 556 b 74 494 108 557 78 532 b 142 417 71 456 103 418 b 217 489 179 415 217 450 b 147 556 215 525 186 554 z m 217 -8 b 151 71 219 32 192 67 b 83 7 114 75 82 51 b 25 -168 85 -60 64 -115 b 32 -256 3 -197 0 -231 b 124 -251 63 -278 94 -274 b 164 -200 142 -239 153 -219 b 217 -8 197 -142 206 -75 z "},"<":{"ha":811,"x_min":0,"x_max":0,"o":"m 529 368 b 544 364 533 367 539 364 b 628 433 596 363 629 390 b 549 501 626 474 593 503 b 483 486 526 500 504 494 b 308 413 425 464 365 440 b 81 261 228 369 147 325 b 124 54 0 183 19 94 b 171 40 139 47 154 44 b 622 -17 318 0 471 -1 b 671 -7 638 -18 656 -12 b 721 68 706 6 728 28 b 644 115 715 100 683 121 b 365 128 550 99 457 122 b 218 149 317 131 265 131 b 183 168 206 154 189 153 b 207 207 176 189 193 199 b 472 360 290 267 376 322 b 529 368 490 367 508 375 z "},"=":{"ha":822,"x_min":0,"x_max":0,"o":"m 478 425 b 82 389 344 429 213 413 b 8 331 47 383 18 367 b 36 257 0 300 13 275 b 135 257 68 232 103 232 b 211 285 158 275 185 279 b 501 301 307 306 404 301 b 618 269 543 301 581 297 b 718 289 656 242 694 253 b 703 394 739 322 733 369 b 618 425 679 415 650 425 b 478 425 571 426 525 425 z m 435 207 b 213 192 360 218 286 193 b 188 189 204 192 196 192 b 113 107 135 179 106 146 b 210 56 119 67 157 46 b 563 58 328 78 444 100 b 638 97 596 47 624 65 b 613 178 651 129 638 157 b 526 207 588 197 557 204 b 435 207 496 208 465 207 z "},">":{"ha":811,"x_min":0,"x_max":0,"o":"m 199 117 b 183 119 193 118 189 119 b 100 50 132 122 99 93 b 179 -17 101 11 135 -19 b 243 -3 201 -17 224 -11 b 419 72 303 21 363 43 b 647 222 500 114 581 158 b 604 431 728 300 708 389 b 557 444 589 436 572 439 b 106 500 408 483 256 485 b 57 490 90 503 72 496 b 7 417 22 479 0 456 b 83 369 13 385 43 363 b 363 356 178 385 269 363 b 510 335 411 353 463 353 b 544 315 522 329 539 331 b 521 276 551 294 533 285 b 256 124 438 217 351 163 b 199 117 238 117 219 110 z "},"?":{"ha":928,"x_min":0,"x_max":0,"o":"m 424 906 b 628 857 524 907 582 892 b 682 675 692 810 710 749 b 617 569 667 636 642 603 b 404 325 553 482 475 407 b 279 113 349 263 301 194 b 275 31 272 85 267 58 b 364 -28 288 -10 324 -33 b 429 53 407 -22 438 7 b 493 224 414 126 450 175 b 654 403 546 283 601 342 b 813 653 719 478 783 554 b 739 925 844 760 818 850 b 578 1008 693 969 639 1000 b 124 928 418 1033 264 1018 b 36 840 88 906 57 878 b 82 649 0 772 19 683 b 174 657 113 632 146 629 b 179 740 197 682 196 710 b 203 838 150 796 151 806 b 424 906 276 883 360 903 z m 424 -143 b 350 -71 424 -106 388 -69 b 272 -142 310 -71 272 -107 b 349 -215 274 -178 313 -214 b 424 -143 389 -215 424 -182 z "},"@":{"ha":1326,"x_min":0,"x_max":0,"o":"m 610 -221 b 683 -219 635 -221 660 -221 b 750 -211 706 -218 728 -217 b 817 -121 799 -199 824 -162 b 718 -75 808 -79 775 -62 b 142 294 440 -139 186 19 b 314 790 110 486 169 657 b 553 897 381 853 463 889 b 1049 356 906 929 1097 626 b 921 108 1032 260 996 174 b 817 144 868 63 831 75 b 814 178 814 154 815 167 b 799 450 796 268 801 358 b 674 625 796 544 749 607 b 406 532 579 646 440 599 b 399 517 403 526 400 522 b 429 431 386 481 397 450 b 511 444 458 411 488 419 b 536 476 521 454 526 467 b 657 513 569 511 611 528 b 692 419 703 499 689 454 b 692 394 693 411 693 403 b 629 350 689 335 686 333 b 397 328 549 372 471 375 b 325 188 346 296 319 249 b 426 68 332 126 371 90 b 606 78 489 43 547 61 b 717 32 681 99 681 100 b 954 -44 767 -64 858 -94 b 1021 4 979 -32 1001 -15 b 1190 581 1183 164 1243 358 b 256 901 1076 1063 543 1149 b 31 478 125 789 51 644 b 288 -121 0 232 72 22 b 610 -221 383 -185 493 -215 z "},"A":{"ha":1032,"x_min":0,"x_max":0,"o":"m 949 275 b 910 335 946 301 933 325 b 857 428 865 353 861 388 b 776 826 844 564 825 697 b 661 996 751 893 714 950 b 364 989 563 1081 457 1079 b 251 815 313 940 281 879 b 129 410 192 686 160 549 b 58 308 121 365 107 329 b 39 207 11 289 0 238 b 67 82 88 169 75 128 b 24 -26 60 43 44 8 b 39 -107 7 -54 8 -86 b 124 -101 67 -126 97 -121 b 175 -18 151 -81 164 -49 b 226 175 197 44 214 110 b 275 233 232 204 242 229 b 706 257 418 250 561 274 b 782 167 778 247 781 243 b 814 -106 785 75 796 -15 b 850 -178 819 -133 826 -160 b 918 -179 872 -196 896 -197 b 936 -121 939 -165 949 -140 b 883 119 886 -47 899 39 b 919 218 876 161 875 196 b 949 275 939 229 947 251 z m 763 411 b 721 364 767 381 753 364 b 679 363 707 363 693 363 b 314 350 558 358 436 368 b 265 403 269 343 257 358 b 393 813 293 543 322 685 b 464 906 413 847 435 879 b 583 910 506 942 539 943 b 654 819 615 886 636 854 b 763 411 722 692 743 551 z "},"B":{"ha":1118,"x_min":0,"x_max":0,"o":"m 592 268 b 714 333 633 290 674 311 b 936 529 801 383 882 443 b 828 938 1035 683 990 856 b 415 1003 697 1001 560 1022 b 219 989 350 994 286 968 b 172 978 203 994 185 990 b 51 908 138 944 94 928 b 4 838 21 894 0 872 b 67 781 8 803 32 785 b 104 764 79 779 94 785 b 96 693 101 743 100 718 b 100 149 60 511 65 331 b 161 -32 113 86 133 26 b 686 -68 281 -281 571 -232 b 646 221 754 28 738 146 b 592 268 628 235 606 242 z m 175 442 b 224 776 178 556 197 667 b 307 857 235 822 260 846 b 674 853 429 888 551 892 b 728 832 692 847 711 840 b 785 564 854 772 875 669 b 526 390 714 483 624 431 b 274 313 444 356 361 322 b 176 400 188 303 176 315 b 175 442 175 414 175 428 z m 339 175 b 522 133 403 171 465 164 b 543 -19 594 96 601 36 b 271 4 460 -99 338 -87 b 219 108 247 36 231 71 b 264 171 207 156 213 164 b 339 175 289 174 314 174 z "},"C":{"ha":915,"x_min":0,"x_max":0,"o":"m 1 276 b 3 201 1 251 0 226 b 314 -160 15 17 138 -128 b 729 -117 456 -186 594 -164 b 810 -60 761 -106 790 -89 b 801 39 832 -25 829 13 b 710 43 772 65 740 67 b 404 -40 619 -26 513 -35 b 113 240 243 -47 117 54 b 343 800 107 458 188 646 b 418 851 364 821 389 839 b 518 828 467 874 483 869 b 536 801 525 819 529 810 b 639 774 568 764 607 754 b 656 885 674 796 681 838 b 424 983 611 968 515 1010 b 236 865 349 964 288 922 b 1 276 89 697 6 503 z "},"D":{"ha":1124,"x_min":0,"x_max":0,"o":"m 119 213 b 151 858 117 431 82 647 b 96 957 167 901 132 950 b 18 879 57 964 24 933 b 1 706 10 821 3 764 b 3 199 0 536 0 368 b 33 -40 4 118 18 39 b 125 -233 49 -112 92 -172 b 276 -279 154 -287 221 -285 b 763 -104 451 -258 619 -210 b 1000 435 946 28 1040 207 b 671 967 961 653 846 832 b 274 879 513 1089 371 1056 b 250 826 265 863 257 844 b 167 532 210 732 183 633 b 119 213 149 425 135 319 z m 882 358 b 738 46 876 231 828 126 b 307 -136 615 -62 465 -111 b 239 -68 246 -146 229 -126 b 308 483 272 115 276 301 b 382 764 324 579 346 674 b 403 810 389 779 394 794 b 607 856 456 914 515 929 b 882 358 767 726 863 560 z "},"E":{"ha":981,"x_min":0,"x_max":0,"o":"m 563 1010 b 194 972 429 1013 313 994 b 68 935 151 964 110 951 b 3 847 31 919 0 893 b 75 782 6 806 33 785 b 107 744 99 781 110 769 b 93 554 103 681 101 617 b 40 439 89 511 85 469 b 40 338 4 413 4 364 b 83 221 86 306 82 264 b 146 -86 89 115 100 11 b 322 -224 182 -162 243 -210 b 676 -157 447 -247 564 -210 b 714 -115 693 -150 707 -133 b 647 -18 733 -67 699 -17 b 593 -36 626 -18 610 -28 b 419 -94 539 -65 481 -83 b 240 0 332 -110 275 -82 b 192 292 200 93 189 192 b 247 351 193 329 210 347 b 660 386 383 369 521 388 b 758 369 694 385 725 374 b 826 404 788 365 813 375 b 804 486 842 438 829 464 b 726 511 782 504 756 511 b 463 500 639 510 550 517 b 247 481 392 488 318 497 b 203 522 217 474 201 489 b 224 771 208 606 208 689 b 308 861 233 819 260 854 b 688 872 435 882 561 897 b 758 835 715 867 738 857 b 865 828 794 794 833 794 b 861 947 897 861 896 911 b 756 992 832 975 793 985 b 563 1010 688 1004 619 1017 z "},"F":{"ha":1094,"x_min":0,"x_max":0,"o":"m 690 1044 b 151 961 507 1043 328 1015 b 54 917 117 951 83 939 b 26 801 10 882 0 838 b 140 800 53 763 89 763 b 182 819 153 810 164 826 b 203 769 204 810 203 788 b 190 478 200 672 203 575 b 132 361 185 431 182 390 b 132 251 88 335 88 274 b 188 135 185 224 189 183 b 189 36 186 101 185 68 b 215 -186 196 -39 194 -114 b 304 -235 228 -233 268 -251 b 339 -132 344 -215 363 -171 b 310 -56 325 -107 311 -85 b 297 226 307 38 310 132 b 346 288 292 263 308 281 b 644 303 446 308 544 300 b 739 278 678 303 708 297 b 849 308 785 249 828 264 b 800 414 869 351 850 392 b 710 428 771 426 740 425 b 438 411 618 435 528 414 b 311 535 307 408 306 408 b 326 800 314 624 322 713 b 418 900 332 879 339 886 b 765 917 533 919 650 919 b 860 864 807 917 842 910 b 933 825 871 835 897 815 b 993 888 965 832 983 857 b 913 1021 1011 947 982 997 b 690 1044 840 1044 767 1046 z "},"G":{"ha":974,"x_min":0,"x_max":0,"o":"m 593 182 b 372 -37 519 96 453 22 b 307 -74 353 -51 329 -64 b 165 -19 238 -103 197 -87 b 128 142 143 32 129 86 b 349 799 125 386 200 604 b 472 907 382 843 422 882 b 660 860 550 947 610 931 b 706 728 688 821 696 774 b 799 654 718 671 756 644 b 850 761 842 665 863 706 b 632 1033 821 886 760 992 b 317 932 508 1074 406 1018 b 36 368 158 776 79 581 b 40 -35 7 235 0 99 b 385 -187 90 -204 225 -262 b 483 -126 419 -171 453 -149 b 664 44 551 -78 610 -18 b 708 81 676 58 683 79 b 717 1 724 56 715 28 b 719 -182 718 -60 718 -121 b 750 -285 721 -218 728 -254 b 846 -304 772 -315 815 -324 b 872 -225 876 -285 890 -254 b 826 40 825 -142 833 -49 b 803 179 824 88 821 135 b 675 300 781 240 740 281 b 535 307 629 313 582 313 b 297 292 457 297 379 275 b 219 233 257 300 224 269 b 281 157 215 197 240 167 b 381 160 314 150 347 156 b 593 182 446 167 508 193 z "},"H":{"ha":1008,"x_min":0,"x_max":0,"o":"m 719 321 b 713 -71 711 189 711 58 b 729 -193 713 -112 715 -154 b 786 -246 739 -221 754 -243 b 867 -199 825 -250 849 -229 b 861 -122 881 -172 888 -140 b 819 -4 817 -90 819 -49 b 821 279 819 90 819 185 b 874 597 822 388 835 494 b 917 792 899 658 908 725 b 917 957 925 846 925 901 b 844 1035 908 1006 879 1038 b 778 963 801 1032 786 1000 b 761 806 767 910 765 857 b 631 453 750 676 717 554 b 435 360 581 392 517 360 b 213 421 354 360 283 388 b 143 542 140 454 131 464 b 167 814 157 632 147 724 b 158 879 171 836 168 858 b 96 925 147 907 128 925 b 32 881 64 925 44 908 b 25 800 19 856 24 828 b 7 431 32 676 49 551 b 7 374 0 411 1 393 b 17 267 18 339 17 303 b 14 -133 15 133 14 0 b 17 -224 14 -164 13 -194 b 79 -287 24 -267 50 -294 b 122 -218 117 -281 122 -250 b 122 15 122 -140 121 -62 b 136 272 124 100 121 186 b 182 300 142 301 154 311 b 290 260 218 288 253 269 b 692 313 432 218 568 214 b 719 321 697 317 707 317 z "},"I":{"ha":507,"x_min":0,"x_max":0,"o":"m 292 828 b 324 825 304 835 314 828 b 401 856 358 815 385 826 b 389 947 422 889 413 919 b 285 989 363 979 324 992 b 67 940 211 982 136 968 b 18 842 18 921 0 882 b 97 793 33 808 61 794 b 160 736 157 792 158 790 b 161 519 161 664 160 592 b 169 54 164 364 151 210 b 94 -72 179 -35 179 -35 b 58 -92 82 -78 68 -83 b 36 -165 35 -111 24 -136 b 99 -212 47 -194 68 -210 b 154 -199 119 -214 136 -208 b 331 -172 210 -168 268 -156 b 386 -168 350 -178 368 -178 b 421 -106 410 -154 424 -133 b 360 -36 418 -69 394 -47 b 290 -15 336 -29 306 -39 b 282 65 275 8 282 39 b 283 781 282 304 283 543 b 292 828 283 797 281 814 z "},"J":{"ha":1119,"x_min":0,"x_max":0,"o":"m 871 849 b 890 842 881 846 886 844 b 904 833 896 840 899 835 b 1015 867 956 810 993 821 b 972 976 1036 910 1021 951 b 883 994 944 990 914 992 b 593 996 788 1004 690 1001 b 169 924 449 988 308 963 b 43 861 124 910 79 893 b 32 744 3 826 0 779 b 154 750 65 707 124 706 b 257 815 181 788 217 803 b 607 876 371 850 489 863 b 738 792 692 886 703 892 b 743 750 742 779 742 764 b 753 161 767 554 761 357 b 689 -112 749 68 732 -26 b 585 -151 661 -172 643 -178 b 379 146 457 -94 390 6 b 296 226 374 206 342 233 b 232 126 254 221 222 176 b 540 -276 269 -58 353 -207 b 792 -162 661 -321 746 -283 b 847 97 824 -79 839 8 b 861 761 867 318 863 540 b 871 849 861 789 854 817 z "},"K":{"ha":971,"x_min":0,"x_max":0,"o":"m 7 6 b 0 6 4 6 3 6 b 8 -60 3 -17 4 -39 b 58 -111 15 -85 32 -104 b 131 -82 89 -118 114 -107 b 160 -22 143 -64 150 -43 b 186 47 169 0 178 24 b 244 64 199 78 218 85 b 289 26 260 51 274 39 b 636 -165 392 -60 506 -128 b 742 -181 671 -175 706 -182 b 831 -139 776 -178 807 -165 b 839 -56 851 -114 861 -86 b 760 -42 818 -26 788 -21 b 665 -51 729 -67 697 -62 b 301 174 526 -6 406 71 b 292 256 276 199 271 225 b 476 476 346 336 396 418 b 822 811 607 572 722 685 b 864 874 838 831 853 851 b 856 972 883 907 888 943 b 758 971 824 1001 789 994 b 663 890 725 946 693 919 b 358 572 556 790 451 686 b 175 447 308 513 243 478 b 124 479 136 429 124 436 b 132 688 124 549 125 618 b 178 825 136 736 140 785 b 186 921 203 851 194 889 b 113 988 176 964 143 993 b 53 918 74 982 57 953 b 36 778 46 871 39 824 b 7 6 25 521 17 263 z "},"L":{"ha":932,"x_min":0,"x_max":0,"o":"m 422 -231 b 783 -122 539 -226 664 -185 b 817 -97 796 -115 807 -107 b 828 -6 840 -69 849 -39 b 733 17 807 26 771 35 b 713 4 725 14 719 8 b 450 -99 633 -51 543 -79 b 144 75 301 -131 196 -68 b 113 238 125 128 115 182 b 140 643 107 374 115 510 b 193 807 150 700 156 758 b 194 910 218 839 208 876 b 139 954 185 935 167 953 b 81 915 111 957 93 939 b 58 828 67 889 61 858 b 44 721 54 792 49 756 b 8 274 22 572 0 424 b 64 -10 13 176 25 81 b 422 -231 128 -160 243 -229 z "},"M":{"ha":1142,"x_min":0,"x_max":0,"o":"m 281 664 b 303 568 288 632 296 600 b 406 115 338 418 371 267 b 435 21 413 83 424 51 b 506 -29 447 -10 471 -29 b 575 24 540 -28 561 -6 b 594 138 590 60 592 99 b 693 632 608 306 629 474 b 796 831 721 701 750 771 b 843 858 808 844 821 864 b 872 813 867 853 868 831 b 900 590 889 739 900 665 b 903 8 903 397 904 203 b 919 -182 903 -56 913 -118 b 944 -250 922 -207 928 -231 b 1018 -264 965 -274 990 -283 b 1039 -193 1046 -247 1058 -218 b 1008 -42 1003 -146 1008 -94 b 1007 656 1007 190 1010 424 b 964 925 1007 747 1000 839 b 765 986 925 1013 847 1036 b 707 939 744 974 726 957 b 574 722 643 879 607 801 b 464 313 518 596 486 463 b 446 374 456 343 449 358 b 361 822 417 524 389 672 b 332 943 353 863 350 906 b 207 951 303 1001 244 1006 b 169 850 186 921 179 886 b 42 190 115 633 64 414 b 6 -114 32 89 26 -12 b 36 -185 0 -143 10 -169 b 121 -174 68 -204 96 -193 b 156 -110 142 -157 157 -136 b 179 154 149 -21 172 67 b 281 664 194 325 224 494 z "},"N":{"ha":1040,"x_min":0,"x_max":0,"o":"m 146 207 b 119 621 114 343 119 482 b 163 758 119 671 128 717 b 160 881 194 797 190 843 b 44 868 124 924 71 918 b 26 788 32 843 29 815 b 31 174 0 583 8 378 b 78 -112 40 78 50 -19 b 163 -200 94 -175 121 -200 b 256 -110 208 -201 238 -175 b 285 53 271 -57 278 -1 b 382 524 303 213 326 372 b 576 840 425 643 488 750 b 646 900 597 863 621 883 b 771 858 704 936 746 922 b 793 771 783 831 789 801 b 782 199 821 579 794 389 b 779 -100 775 99 769 -1 b 846 -186 785 -140 801 -176 b 925 -150 879 -193 906 -176 b 926 -44 950 -115 957 -79 b 901 24 908 -25 901 -1 b 904 224 903 90 899 158 b 917 756 922 401 918 578 b 868 947 917 824 899 888 b 622 1043 818 1044 725 1079 b 485 953 569 1024 525 992 b 261 614 385 857 315 740 b 146 207 207 483 174 347 z "},"O":{"ha":1065,"x_min":0,"x_max":0,"o":"m 982 375 b 911 732 981 535 957 639 b 450 990 817 918 640 1018 b 18 604 246 963 56 792 b 114 376 0 510 29 422 b 196 231 176 342 194 300 b 275 -87 197 119 215 10 b 671 -199 361 -232 522 -278 b 810 -82 725 -169 771 -131 b 982 375 925 65 978 233 z m 514 414 b 374 415 467 414 419 411 b 319 482 329 418 313 438 b 375 678 331 549 328 619 b 390 782 397 707 397 744 b 432 849 379 831 386 839 b 754 713 563 875 678 826 b 833 479 801 642 822 563 b 786 429 838 440 819 428 b 514 414 696 429 606 401 z m 560 303 b 758 301 626 303 693 304 b 810 235 814 300 824 286 b 669 -25 782 139 742 49 b 575 -90 643 -53 613 -76 b 403 -53 510 -118 450 -107 b 314 275 322 42 307 156 b 361 306 315 304 338 306 b 560 306 428 304 494 306 b 560 303 560 304 560 303 z m 260 747 b 215 504 243 654 229 578 b 193 472 213 490 210 475 b 154 497 174 469 163 483 b 138 576 138 521 131 547 b 260 747 154 642 182 699 z "},"P":{"ha":1178,"x_min":0,"x_max":0,"o":"m 300 265 b 263 283 282 274 272 279 b 189 265 233 297 208 289 b 175 188 168 243 164 215 b 238 139 186 161 208 139 b 303 54 296 136 301 101 b 321 -118 306 -3 314 -61 b 350 -204 324 -149 331 -179 b 454 -212 376 -236 422 -239 b 465 -125 483 -187 493 -149 b 411 57 404 -75 413 -8 b 488 168 408 142 410 142 b 900 396 640 218 778 293 b 1063 632 975 460 1035 535 b 981 900 1094 739 1063 829 b 778 993 922 950 853 979 b 125 932 556 1035 338 1001 b 40 882 93 921 63 906 b 57 754 0 839 8 785 b 183 800 108 724 147 736 b 271 846 204 836 231 857 b 300 776 306 836 300 803 b 300 265 301 610 300 444 z m 408 533 b 424 836 413 643 407 740 b 476 899 429 869 438 897 b 790 883 581 903 686 915 b 893 560 967 828 1007 706 b 475 288 785 422 640 339 b 408 339 424 272 410 283 b 408 533 406 407 408 476 z "},"Q":{"ha":972,"x_min":0,"x_max":0,"o":"m 885 410 b 868 558 878 471 879 515 b 822 692 857 604 843 650 b 440 1018 742 854 631 981 b 124 797 293 1046 146 947 b 129 625 115 740 108 678 b 99 392 164 538 149 465 b 64 317 83 369 74 342 b 4 43 31 228 0 139 b 256 -253 13 -118 100 -219 b 504 -212 344 -272 426 -247 b 672 -193 560 -187 607 -150 b 760 -165 699 -211 738 -197 b 758 -82 779 -137 782 -106 b 763 4 725 -49 742 -24 b 885 410 854 131 889 272 z m 736 406 b 626 65 742 278 706 165 b 556 61 597 28 586 26 b 315 429 458 172 376 293 b 329 492 304 454 299 474 b 358 588 364 514 369 551 b 283 638 347 624 322 644 b 246 671 257 635 247 647 b 249 786 243 708 240 749 b 368 885 263 844 307 879 b 511 850 419 889 467 878 b 735 481 649 765 715 636 b 736 406 739 456 736 431 z m 213 388 b 399 82 274 271 332 174 b 456 1 418 56 436 28 b 431 -90 499 -56 497 -61 b 310 -121 392 -107 353 -119 b 129 35 213 -122 140 -61 b 213 388 115 154 151 263 z "},"R":{"ha":1114,"x_min":0,"x_max":0,"o":"m 396 185 b 619 271 483 213 553 239 b 935 508 742 328 851 401 b 894 878 1031 633 1014 776 b 704 976 839 925 774 954 b 285 1007 567 1021 425 1022 b 53 925 203 999 121 978 b 19 815 11 892 0 853 b 126 783 40 778 72 768 b 176 751 168 796 176 792 b 163 319 174 607 183 461 b 171 97 151 240 156 171 b 204 -117 186 26 193 -46 b 238 -192 208 -144 217 -171 b 328 -196 263 -217 299 -218 b 342 -111 358 -174 369 -135 b 285 86 276 -56 297 18 b 376 60 324 92 349 71 b 839 -69 526 1 675 -61 b 936 -57 872 -71 906 -71 b 976 47 978 -39 994 7 b 882 86 960 86 921 108 b 697 75 819 51 760 63 b 396 185 597 96 501 125 z m 275 551 b 311 856 268 639 292 747 b 351 900 315 882 325 897 b 776 825 500 908 644 906 b 797 811 785 821 792 817 b 825 574 893 742 904 660 b 343 315 696 431 526 358 b 276 371 294 304 278 319 b 275 551 274 424 275 475 z "},"S":{"ha":943,"x_min":0,"x_max":0,"o":"m 858 853 b 751 997 860 915 819 969 b 450 1010 653 1036 551 1035 b 75 765 297 971 168 896 b 100 457 0 660 10 551 b 225 361 136 419 181 390 b 497 218 313 307 406 265 b 636 129 546 192 594 167 b 621 -33 708 65 703 13 b 424 -96 560 -67 494 -87 b 360 -169 381 -100 356 -135 b 438 -231 365 -204 394 -228 b 454 -231 443 -231 449 -232 b 764 -82 568 -206 681 -171 b 774 168 833 -8 836 88 b 654 269 742 210 700 242 b 375 417 565 325 468 368 b 193 533 311 450 247 483 b 175 718 132 592 128 647 b 653 903 251 836 497 951 b 717 839 688 892 711 882 b 792 771 724 788 753 765 b 858 853 831 775 857 807 z "},"T":{"ha":1146,"x_min":0,"x_max":0,"o":"m 588 258 b 608 749 579 401 601 575 b 622 872 611 790 618 831 b 656 915 625 893 633 911 b 853 900 722 924 788 914 b 928 840 888 892 907 869 b 1044 858 963 793 1022 804 b 1003 972 1063 900 1047 944 b 893 1010 969 993 932 1004 b 121 957 632 1049 375 1022 b 53 926 97 951 74 940 b 24 821 11 900 0 856 b 140 803 49 782 106 769 b 417 899 218 881 321 879 b 496 832 475 910 494 890 b 494 567 499 743 501 654 b 485 -22 478 369 481 174 b 513 -194 486 -81 492 -139 b 593 -228 528 -232 564 -246 b 614 -151 625 -210 633 -181 b 588 -22 586 -111 588 -67 b 588 258 586 60 588 143 z "},"U":{"ha":875,"x_min":0,"x_max":0,"o":"m 624 108 b 636 14 643 75 635 43 b 661 -133 639 -36 644 -86 b 756 -174 678 -176 719 -192 b 767 -89 785 -157 792 -128 b 743 -3 749 -61 744 -32 b 739 89 742 28 742 58 b 753 603 719 261 728 432 b 775 867 765 690 779 778 b 711 971 772 931 749 968 b 639 875 675 974 647 939 b 638 867 639 872 638 869 b 601 613 626 782 617 697 b 501 244 579 488 550 363 b 328 -15 463 146 411 53 b 157 24 251 -78 201 -64 b 114 243 124 93 114 168 b 175 767 114 419 117 596 b 149 883 189 807 181 850 b 88 888 132 900 107 901 b 42 779 50 861 32 822 b 35 647 51 733 42 690 b 3 158 6 486 0 322 b 58 -65 6 81 21 6 b 381 -158 129 -197 250 -232 b 564 32 461 -112 514 -43 b 624 108 581 57 589 88 z "},"V":{"ha":1108,"x_min":0,"x_max":0,"o":"m 1018 928 b 961 1024 1025 981 1001 1018 b 885 936 919 1029 886 994 b 869 763 885 878 876 821 b 660 50 844 511 771 275 b 608 -26 646 22 631 -4 b 506 -32 572 -61 546 -64 b 413 83 467 0 436 39 b 294 367 361 172 322 267 b 194 761 257 496 225 629 b 154 878 186 801 176 842 b 72 918 135 907 110 931 b 4 831 31 906 10 872 b 49 750 0 794 14 763 b 121 650 100 733 111 694 b 254 169 157 488 194 325 b 417 -118 293 67 336 -37 b 714 -118 514 -215 615 -215 b 842 104 776 -56 813 24 b 1018 928 942 369 1010 643 z "},"W":{"ha":1324,"x_min":0,"x_max":0,"o":"m 522 238 b 594 61 549 175 571 118 b 786 -185 636 -37 703 -118 b 1151 -99 921 -292 1076 -254 b 1190 19 1169 -61 1183 -22 b 1050 847 1240 311 1186 588 b 981 940 1032 882 1010 914 b 857 947 936 982 890 985 b 881 819 822 908 828 847 b 976 690 935 790 957 743 b 1060 235 1031 544 1057 390 b 1017 -33 1061 144 1057 51 b 872 -75 982 -108 939 -121 b 710 122 799 -25 747 43 b 600 444 661 226 629 335 b 508 546 588 493 574 544 b 415 446 463 547 439 522 b 318 138 383 343 353 239 b 229 -60 296 68 269 1 b 193 -87 221 -72 213 -92 b 164 -50 174 -85 169 -65 b 126 163 143 19 129 89 b 172 649 121 326 144 488 b 215 754 178 688 188 724 b 236 872 247 788 246 831 b 188 924 229 897 217 919 b 122 885 156 929 136 911 b 106 846 115 872 110 860 b 19 32 38 579 0 308 b 74 -158 25 -35 39 -100 b 304 -194 131 -253 222 -267 b 389 -81 340 -162 367 -124 b 490 174 431 0 464 85 b 522 238 496 194 497 217 z "},"X":{"ha":968,"x_min":0,"x_max":0,"o":"m 382 224 b 449 125 413 199 428 158 b 614 -72 494 50 547 -15 b 726 -140 647 -101 683 -128 b 878 -60 794 -160 861 -124 b 856 15 885 -31 882 -3 b 786 19 835 32 806 36 b 682 33 743 -22 714 3 b 486 279 603 106 546 193 b 482 424 451 329 449 371 b 753 842 572 563 657 706 b 785 900 765 860 776 879 b 765 974 797 928 789 954 b 688 978 742 993 715 993 b 631 901 657 961 638 935 b 588 803 622 865 607 833 b 422 532 532 713 478 622 b 419 525 421 531 421 528 b 343 532 385 472 375 474 b 314 590 333 551 324 571 b 171 872 267 685 218 779 b 140 922 161 889 153 907 b 32 942 107 963 63 969 b 31 838 3 917 0 876 b 103 736 56 804 83 774 b 276 424 160 632 215 525 b 272 271 310 368 304 325 b 67 -100 199 150 133 25 b 24 -217 46 -136 29 -174 b 50 -282 21 -243 26 -265 b 121 -281 74 -297 97 -294 b 179 -181 157 -258 188 -228 b 201 -86 174 -144 186 -115 b 346 186 249 6 297 96 b 382 224 353 200 358 217 z "},"Y":{"ha":938,"x_min":0,"x_max":0,"o":"m 403 161 b 422 -125 410 63 415 -31 b 450 -211 425 -156 432 -185 b 544 -240 472 -244 513 -256 b 567 -154 574 -225 582 -196 b 544 -92 558 -133 546 -115 b 532 306 540 40 531 174 b 571 454 532 356 531 414 b 835 1003 721 608 765 813 b 782 1107 854 1054 825 1099 b 700 1033 742 1114 714 1089 b 697 1018 699 1028 699 1022 b 524 604 654 874 604 732 b 272 590 450 486 361 482 b 156 792 222 650 182 717 b 125 868 147 817 138 843 b 50 906 110 897 85 914 b 3 844 19 899 6 875 b 26 733 0 806 0 764 b 140 560 72 681 101 617 b 363 386 194 478 260 406 b 415 306 410 376 417 344 b 403 161 413 256 407 207 z "},"Z":{"ha":1081,"x_min":0,"x_max":0,"o":"m 717 569 b 844 718 765 625 804 672 b 875 744 853 728 864 740 b 954 836 919 761 936 797 b 878 1015 997 925 974 986 b 672 1040 811 1035 743 1047 b 140 960 494 1022 315 999 b 46 926 107 953 75 946 b 21 825 10 901 0 863 b 126 799 43 786 92 768 b 303 864 178 843 242 851 b 739 915 446 894 590 921 b 786 824 815 913 826 889 b 771 803 781 817 776 810 b 565 575 703 726 633 651 b 471 529 540 547 508 531 b 250 490 396 524 324 504 b 147 458 215 483 179 472 b 111 361 106 439 92 399 b 211 331 131 326 171 313 b 246 351 224 336 233 346 b 407 396 293 378 344 390 b 210 124 336 299 267 215 b 144 -19 181 79 157 32 b 253 -226 122 -115 161 -190 b 383 -249 294 -243 338 -249 b 764 -232 510 -250 638 -246 b 864 -158 833 -225 867 -203 b 756 -103 863 -114 826 -93 b 400 -124 638 -117 519 -128 b 304 35 267 -118 246 -83 b 390 176 329 85 357 133 b 538 368 439 240 488 306 b 771 408 599 443 686 460 b 863 404 803 390 832 381 b 896 485 889 425 901 451 b 825 546 888 522 861 539 b 717 569 793 553 761 560 z "},"[":{"ha":589,"x_min":0,"x_max":0,"o":"m 147 231 b 150 421 147 294 143 358 b 167 619 157 488 156 554 b 217 904 183 714 171 814 b 349 957 244 960 293 982 b 375 938 358 953 365 943 b 482 960 419 911 457 919 b 457 1076 506 999 494 1050 b 385 1097 435 1092 410 1099 b 90 1056 286 1093 186 1086 b 53 917 15 1031 0 978 b 82 810 82 883 89 850 b 71 694 76 772 74 733 b 43 314 61 568 49 442 b 54 -67 38 188 28 60 b 361 -265 85 -222 208 -303 b 482 -162 419 -251 463 -219 b 458 -81 494 -129 485 -101 b 374 -85 429 -60 400 -62 b 339 -119 361 -94 351 -108 b 215 -125 304 -149 250 -150 b 161 -35 185 -103 171 -69 b 147 231 136 53 146 142 z "},"\\":{"ha":496,"x_min":0,"x_max":0,"o":"m 154 946 b 121 1058 160 985 146 1024 b 47 1083 103 1083 76 1092 b 4 1028 19 1075 8 1054 b 11 938 0 997 0 967 b 182 297 90 729 131 511 b 254 -19 207 192 231 86 b 289 -206 268 -81 288 -142 b 296 -239 289 -217 292 -228 b 360 -279 307 -267 328 -285 b 410 -222 390 -275 407 -254 b 400 -149 413 -197 406 -174 b 169 819 329 175 254 499 b 154 946 160 860 142 899 z "},"]":{"ha":590,"x_min":0,"x_max":0,"o":"m 358 593 b 357 401 358 529 364 465 b 339 204 350 336 351 268 b 289 -81 324 108 335 10 b 157 -133 261 -136 213 -160 b 131 -114 147 -129 140 -119 b 25 -136 86 -89 49 -97 b 50 -254 0 -176 11 -228 b 121 -274 71 -268 96 -275 b 415 -232 221 -269 319 -264 b 453 -93 492 -207 507 -154 b 424 13 425 -61 418 -28 b 435 128 429 51 432 90 b 463 508 446 256 457 382 b 453 890 468 636 478 764 b 144 1089 421 1046 299 1125 b 24 985 88 1075 43 1043 b 49 904 13 953 21 925 b 132 907 76 883 106 886 b 168 943 144 918 154 932 b 290 947 203 971 256 974 b 346 857 321 925 335 893 b 358 593 369 769 360 681 z "},"^":{"ha":704,"x_min":0,"x_max":0,"o":"m 618 974 b 575 1029 617 1001 601 1022 b 460 1121 524 1043 493 1082 b 401 1190 440 1143 422 1168 b 193 1217 336 1257 272 1265 b 18 1031 118 1171 69 1099 b 21 953 0 1007 3 978 b 138 958 50 910 103 910 b 221 1071 165 996 189 1036 b 360 1067 289 1143 301 1143 b 453 950 392 1028 421 988 b 511 906 469 931 488 913 b 618 974 565 886 621 922 z "},"_":{"ha":1193,"x_min":0,"x_max":0,"o":"m 786 -76 b 129 -96 568 -99 349 -90 b 72 -101 110 -96 90 -97 b 7 -183 24 -114 0 -146 b 94 -243 14 -222 47 -247 b 442 -215 210 -232 326 -224 b 914 -217 600 -203 757 -194 b 1029 -232 953 -222 990 -229 b 1099 -185 1064 -235 1089 -217 b 1065 -107 1110 -150 1094 -124 b 1018 -93 1051 -100 1033 -96 b 786 -76 940 -82 864 -72 z "},"`":{"ha":465,"x_min":0,"x_max":0,"o":"m 315 875 b 375 950 353 875 382 913 b 333 1022 369 979 351 1001 b 138 1236 268 1093 204 1167 b 31 1253 97 1279 60 1283 b 46 1136 0 1219 3 1164 b 251 921 131 1079 188 997 b 315 875 269 899 286 878 z "},"a":{"ha":822,"x_min":0,"x_max":0,"o":"m 553 369 b 507 375 532 361 519 369 b 289 388 436 408 363 410 b 28 29 143 344 26 181 b 246 -176 29 -101 117 -183 b 349 -149 282 -175 317 -164 b 543 -21 419 -115 485 -74 b 601 4 558 -7 571 15 b 622 -90 608 -26 615 -58 b 642 -146 628 -110 632 -129 b 704 -171 654 -169 676 -181 b 731 -111 733 -161 739 -137 b 694 201 704 -8 701 96 b 661 431 690 279 682 356 b 506 647 636 522 593 601 b 44 574 382 711 144 674 b 29 456 6 535 0 489 b 144 461 60 421 101 419 b 306 542 190 504 244 528 b 553 369 443 572 526 517 z m 226 -35 b 151 53 176 -35 149 -1 b 339 271 154 149 246 254 b 450 249 378 278 415 272 b 461 94 525 199 529 157 b 297 -17 413 49 360 10 b 226 -35 275 -28 251 -36 z "},"b":{"ha":1024,"x_min":0,"x_max":0,"o":"m 133 450 b 185 790 126 571 154 681 b 219 835 189 810 201 825 b 263 975 278 868 269 922 b 201 1043 258 1010 240 1040 b 129 986 161 1047 140 1021 b 86 843 114 939 97 892 b 57 169 32 621 0 397 b 189 -87 82 74 122 -14 b 442 -214 256 -162 338 -210 b 890 317 707 -225 940 49 b 464 603 851 533 682 644 b 214 493 372 585 292 543 b 133 450 192 479 174 456 z m 761 240 b 489 -94 769 74 625 -64 b 308 -51 422 -108 361 -92 b 156 199 225 11 182 100 b 158 239 151 213 150 226 b 406 458 221 333 293 419 b 576 486 461 478 517 494 b 761 240 694 469 763 378 z "},"c":{"ha":872,"x_min":0,"x_max":0,"o":"m 131 244 b 131 328 131 272 129 300 b 406 588 139 533 199 589 b 547 522 463 588 511 579 b 663 533 576 476 633 485 b 653 642 685 571 678 607 b 563 699 631 672 597 688 b 267 710 465 729 365 718 b 193 706 242 708 219 701 b 64 629 115 719 88 703 b 14 385 38 550 22 468 b 43 7 0 258 4 131 b 308 -237 85 -124 167 -221 b 749 -81 478 -257 622 -187 b 760 29 789 -47 789 0 b 650 22 732 60 689 58 b 401 -104 579 -44 494 -82 b 164 8 289 -131 214 -94 b 131 244 126 83 129 164 z "},"d":{"ha":917,"x_min":0,"x_max":0,"o":"m 669 363 b 667 303 668 331 668 317 b 672 -128 647 160 654 15 b 719 -222 678 -164 688 -199 b 808 -211 747 -243 785 -239 b 804 -139 829 -186 833 -157 b 761 -29 763 -111 763 -72 b 807 824 756 256 775 540 b 825 981 813 876 822 928 b 778 1049 828 1014 815 1042 b 706 1008 743 1056 718 1040 b 688 936 697 985 692 960 b 619 619 669 829 650 724 b 588 547 613 593 611 565 b 544 572 567 546 557 561 b 197 567 425 675 313 674 b 129 485 172 543 149 514 b 8 151 60 383 24 271 b 33 -53 0 82 4 13 b 271 -157 78 -153 168 -193 b 404 -74 322 -140 365 -111 b 556 132 467 -14 517 56 b 669 363 592 204 626 275 z m 126 142 b 265 475 136 265 175 381 b 472 433 344 556 426 538 b 463 247 501 368 506 310 b 281 14 408 164 358 78 b 132 71 196 -56 147 -36 b 126 142 128 93 129 115 z "},"e":{"ha":832,"x_min":0,"x_max":0,"o":"m 504 -99 b 504 -100 504 -100 504 -100 b 446 -100 485 -100 465 -101 b 189 67 326 -96 242 -37 b 231 144 160 126 161 132 b 628 354 383 175 518 240 b 704 472 661 389 688 428 b 581 739 749 588 697 697 b 442 754 536 754 489 761 b 117 535 296 736 192 657 b 36 336 78 474 65 400 b 36 119 0 258 10 197 b 471 -240 113 -107 233 -217 b 611 -235 517 -244 565 -249 b 668 -154 651 -222 675 -189 b 596 -100 660 -117 633 -100 b 504 -99 565 -99 535 -99 z m 208 293 b 164 326 171 289 160 303 b 469 624 190 492 339 638 b 561 579 507 619 544 617 b 539 488 578 546 560 515 b 208 293 453 375 336 314 z "},"f":{"ha":636,"x_min":0,"x_max":0,"o":"m 290 801 b 306 749 311 781 303 764 b 378 663 314 694 339 663 b 456 754 419 663 458 703 b 396 967 453 829 440 903 b 285 1026 368 1004 333 1033 b 193 940 235 1021 208 985 b 174 868 185 917 179 893 b 156 646 157 794 153 721 b 96 540 158 596 146 561 b 11 435 51 521 22 483 b 28 304 0 389 14 346 b 108 -110 75 171 106 33 b 132 -214 108 -146 115 -181 b 199 -254 144 -240 168 -257 b 257 -203 229 -251 250 -232 b 264 -121 263 -176 264 -149 b 265 386 265 49 265 217 b 381 467 267 469 301 493 b 431 438 397 460 413 446 b 532 457 472 415 510 422 b 507 558 553 492 543 531 b 446 585 489 572 468 579 b 331 599 408 593 369 600 b 281 642 303 599 282 611 b 290 801 279 693 278 744 z "},"g":{"ha":892,"x_min":0,"x_max":0,"o":"m 804 47 b 786 221 801 106 796 163 b 746 399 776 281 763 340 b 692 518 735 442 726 492 b 553 671 636 561 600 621 b 194 661 436 790 306 789 b 13 283 100 551 40 425 b 8 126 3 232 0 179 b 229 11 28 7 119 -42 b 354 106 276 33 317 68 b 544 325 424 174 481 251 b 635 313 590 379 617 376 b 689 -87 675 182 703 49 b 593 -350 679 -182 657 -272 b 297 -292 526 -432 347 -419 b 313 -218 288 -262 286 -243 b 318 -93 361 -175 360 -129 b 179 -110 274 -56 217 -62 b 144 -210 156 -139 147 -174 b 363 -526 132 -351 221 -481 b 708 -400 500 -571 632 -524 b 804 47 793 -262 808 -110 z m 119 214 b 308 606 133 368 194 500 b 443 593 360 653 397 646 b 447 429 503 525 504 497 b 219 179 375 342 304 256 b 182 147 207 167 196 156 b 119 172 146 122 126 129 b 119 214 118 186 119 200 z "},"h":{"ha":1029,"x_min":0,"x_max":0,"o":"m 118 107 b 142 760 99 289 111 606 b 179 840 147 790 156 817 b 168 986 219 883 213 949 b 74 974 138 1011 97 1007 b 53 911 60 956 57 933 b 7 550 26 792 13 671 b 7 35 0 378 0 206 b 31 -189 11 -40 19 -115 b 108 -282 40 -251 68 -279 b 199 -199 149 -285 181 -258 b 229 -69 211 -157 219 -114 b 481 449 274 122 357 296 b 547 510 500 472 521 494 b 619 486 583 531 606 525 b 653 349 635 442 644 396 b 738 21 674 238 690 125 b 786 -56 750 -7 763 -36 b 888 -67 818 -81 853 -85 b 944 29 924 -46 943 -12 b 889 100 946 68 928 94 b 832 161 850 104 839 132 b 778 396 813 240 796 318 b 725 579 764 458 756 522 b 500 651 676 669 593 697 b 365 543 447 626 403 588 b 188 264 293 458 232 365 b 118 107 165 214 143 164 z "},"i":{"ha":256,"x_min":0,"x_max":0,"o":"m 0 289 b 1 289 0 289 1 289 b 1 14 1 197 1 106 b 19 -108 0 -28 10 -68 b 74 -178 28 -139 43 -164 b 150 -165 103 -192 128 -186 b 157 -97 169 -146 172 -121 b 125 -22 143 -74 125 -53 b 143 549 126 168 110 358 b 76 669 154 615 126 667 b 0 563 29 672 1 633 b 0 289 0 471 0 379 z m 153 811 b 97 881 157 844 133 875 b 15 832 57 889 22 868 b 74 757 8 794 33 761 b 153 811 114 751 147 775 z "},"j":{"ha":828,"x_min":0,"x_max":0,"o":"m 740 182 b 646 492 744 258 711 379 b 425 654 596 578 524 632 b 53 643 299 682 176 643 b 4 592 28 643 10 619 b 33 528 0 565 13 544 b 113 515 57 508 83 511 b 326 539 183 524 254 536 b 543 411 426 542 497 496 b 607 122 592 322 614 224 b 467 -299 597 -28 553 -171 b 379 -397 443 -336 415 -371 b 300 -379 343 -425 319 -418 b 364 -92 261 -297 293 -150 b 396 -12 390 -69 404 -46 b 325 61 385 25 365 54 b 238 10 283 68 256 43 b 147 -331 181 -96 139 -207 b 163 -421 150 -361 154 -392 b 467 -514 210 -572 342 -612 b 558 -417 503 -486 533 -454 b 740 182 669 -253 736 -74 z m 300 878 b 231 808 263 876 231 844 b 308 742 231 769 265 739 b 379 808 347 743 379 775 b 300 878 378 846 339 879 z "},"k":{"ha":971,"x_min":0,"x_max":0,"o":"m 735 -108 b 818 -97 775 -108 797 -107 b 872 0 867 -75 888 -36 b 774 31 857 36 822 47 b 718 19 756 25 738 17 b 382 76 606 38 494 57 b 357 131 350 82 340 100 b 468 304 389 192 417 254 b 613 506 526 363 578 428 b 632 610 628 539 639 574 b 506 664 621 674 560 700 b 442 589 478 646 458 617 b 317 383 399 521 356 453 b 168 240 282 319 222 282 b 122 261 143 222 126 231 b 121 294 121 272 121 283 b 136 726 126 439 131 582 b 171 861 138 774 144 818 b 156 989 199 907 190 954 b 40 969 117 1029 63 1019 b 28 913 32 953 29 932 b 10 582 17 803 8 693 b 8 182 10 449 11 315 b 13 -49 6 106 0 28 b 44 -168 18 -90 22 -132 b 194 -185 81 -232 146 -239 b 249 -92 219 -157 235 -124 b 335 -44 265 -50 294 -39 b 474 -68 382 -53 428 -61 b 735 -108 567 -83 660 -97 z "},"l":{"ha":504,"x_min":0,"x_max":0,"o":"m 0 317 b 44 -78 0 156 7 36 b 301 -317 86 -204 176 -281 b 415 -246 353 -331 408 -293 b 331 -168 421 -203 390 -169 b 175 -72 257 -168 213 -126 b 122 83 143 -26 133 29 b 121 439 100 203 107 321 b 213 907 142 597 139 760 b 157 1029 235 954 201 1019 b 69 951 114 1040 81 1013 b 56 853 64 919 61 886 b 0 317 25 661 6 469 z "},"m":{"ha":1386,"x_min":0,"x_max":0,"o":"m 135 85 b 118 207 128 136 119 172 b 167 511 115 311 94 417 b 119 639 193 547 161 619 b 47 618 90 653 64 646 b 26 556 36 600 29 578 b 7 358 18 490 11 424 b 26 -24 0 231 13 103 b 54 -204 32 -83 36 -144 b 129 -271 67 -240 88 -269 b 211 -210 169 -272 196 -246 b 232 -139 219 -187 225 -162 b 381 310 275 14 314 167 b 576 597 431 417 493 514 b 669 568 629 649 651 639 b 689 361 688 500 689 431 b 689 -4 689 239 688 118 b 753 -100 690 -60 714 -94 b 842 -40 799 -106 822 -75 b 858 -1 849 -28 854 -14 b 942 151 879 54 910 103 b 1076 297 978 208 1022 257 b 1165 260 1128 336 1157 324 b 1163 111 1172 211 1172 160 b 1111 -124 1149 32 1146 -49 b 1154 -218 1093 -161 1118 -204 b 1246 -172 1192 -233 1229 -215 b 1258 -124 1253 -157 1257 -140 b 1290 124 1271 -42 1283 40 b 1279 346 1297 197 1303 272 b 1050 450 1244 454 1154 496 b 917 351 999 426 956 392 b 829 265 890 325 863 299 b 813 472 824 342 818 407 b 760 697 807 550 797 628 b 571 763 719 775 649 799 b 429 649 514 736 469 696 b 135 85 293 488 203 301 z "},"n":{"ha":988,"x_min":0,"x_max":0,"o":"m 136 143 b 135 500 114 264 89 382 b 118 608 150 540 147 576 b 51 625 100 629 76 638 b 6 535 13 608 6 572 b 24 -79 0 329 4 125 b 46 -185 26 -115 35 -151 b 111 -242 56 -215 76 -237 b 193 -197 149 -246 176 -229 b 218 -136 203 -178 211 -157 b 261 17 233 -85 246 -35 b 492 510 313 192 372 365 b 575 590 517 540 542 569 b 683 571 619 618 651 613 b 718 506 699 551 710 529 b 758 146 761 389 778 271 b 721 -92 746 67 743 -14 b 718 -107 719 -96 718 -101 b 778 -186 717 -147 742 -182 b 853 -135 817 -192 844 -169 b 885 44 868 -76 878 -17 b 843 546 904 214 901 382 b 403 628 758 783 568 819 b 185 265 310 519 239 397 b 136 143 168 225 153 185 z "},"o":{"ha":901,"x_min":0,"x_max":0,"o":"m 818 232 b 756 493 815 332 796 415 b 92 569 601 790 244 767 b 122 214 0 450 7 311 b 175 93 163 179 182 146 b 175 44 174 78 175 60 b 588 -181 183 -185 393 -300 b 818 232 744 -85 810 65 z m 200 328 b 207 522 144 400 149 458 b 544 551 285 604 454 621 b 676 251 639 479 682 382 b 531 274 628 292 579 285 b 374 267 479 261 426 265 b 325 288 354 267 333 264 b 342 333 319 306 331 321 b 375 368 353 346 367 356 b 357 471 399 404 390 450 b 258 442 322 493 281 481 b 200 328 238 407 239 360 z m 678 194 b 510 -60 654 74 601 -7 b 353 -62 458 -89 403 -100 b 288 100 301 -24 286 38 b 335 129 288 132 311 133 b 565 144 413 114 489 135 b 678 194 601 149 636 158 z "},"p":{"ha":964,"x_min":0,"x_max":0,"o":"m 114 206 b 114 289 114 233 113 261 b 131 400 115 326 101 371 b 149 625 204 472 168 549 b 82 676 140 657 118 681 b 25 615 47 674 29 647 b 7 475 17 568 8 522 b 6 -365 0 194 0 -85 b 28 -487 7 -407 15 -447 b 94 -540 39 -518 60 -539 b 172 -490 133 -543 160 -524 b 194 -403 183 -462 190 -432 b 213 -212 201 -339 207 -275 b 281 -143 218 -150 218 -147 b 497 -92 356 -139 428 -119 b 615 690 815 35 881 472 b 588 710 607 697 597 704 b 360 693 506 763 433 757 b 240 536 308 650 271 596 b 114 206 186 429 151 315 z m 651 300 b 517 60 642 196 604 114 b 329 -3 460 24 396 4 b 243 78 275 -10 238 24 b 394 531 261 239 304 393 b 419 563 401 542 411 553 b 561 558 474 622 511 622 b 651 300 622 482 643 390 z "},"q":{"ha":883,"x_min":0,"x_max":0,"o":"m 540 467 b 450 610 504 521 485 569 b 182 617 365 701 271 704 b 113 524 154 589 132 558 b 8 185 54 418 22 304 b 29 -21 0 115 4 46 b 276 -114 72 -133 171 -171 b 417 1 331 -86 376 -44 b 599 269 489 83 543 176 b 647 336 611 292 621 318 b 654 251 663 306 656 278 b 636 -421 642 28 632 -196 b 646 -511 638 -451 635 -482 b 725 -553 661 -549 694 -567 b 751 -476 757 -536 768 -508 b 733 -272 719 -410 729 -340 b 763 167 742 -126 751 21 b 789 489 771 274 781 382 b 786 638 793 539 800 589 b 660 668 768 704 706 718 b 617 597 642 647 631 621 b 540 467 593 557 581 511 z m 129 158 b 235 503 135 282 171 396 b 272 546 244 518 258 533 b 343 542 296 569 321 567 b 394 439 369 513 382 475 b 339 136 449 272 449 274 b 222 19 304 93 269 50 b 147 44 182 -6 167 0 b 129 158 132 81 129 119 z "},"r":{"ha":840,"x_min":0,"x_max":0,"o":"m 156 226 b 146 515 143 324 142 419 b 138 631 147 554 151 593 b 82 674 128 657 110 674 b 31 639 58 675 39 660 b 10 501 10 594 0 549 b 36 188 28 397 36 293 b 53 -103 35 90 44 -6 b 125 -200 58 -162 85 -196 b 211 -114 165 -203 194 -174 b 229 -33 218 -87 224 -60 b 558 581 285 200 388 408 b 672 636 590 613 621 642 b 744 693 710 632 733 658 b 725 792 757 731 756 764 b 632 806 697 817 665 819 b 549 750 601 792 574 772 b 269 422 442 653 346 547 b 156 226 231 358 194 293 z "},"s":{"ha":779,"x_min":0,"x_max":0,"o":"m 379 749 b 390 660 385 708 385 683 b 443 613 397 635 417 618 b 508 640 471 607 492 619 b 506 822 538 676 535 782 b 363 856 475 864 424 879 b 49 607 233 804 125 725 b 63 367 0 531 7 438 b 204 253 100 317 151 282 b 431 131 279 211 356 172 b 521 72 463 113 493 94 b 521 -1 556 44 556 28 b 375 -79 478 -37 426 -60 b 278 -69 342 -93 308 -106 b 208 -60 260 -50 233 -49 b 147 -178 168 -78 139 -137 b 242 -243 157 -218 190 -242 b 315 -229 268 -243 292 -236 b 550 -126 399 -206 476 -169 b 628 -65 579 -110 606 -89 b 619 153 696 7 693 86 b 497 238 583 188 542 214 b 285 350 426 275 356 313 b 168 429 243 372 201 396 b 147 557 126 471 119 506 b 379 749 199 646 278 703 z "},"t":{"ha":838,"x_min":0,"x_max":0,"o":"m 313 774 b 335 868 307 815 317 843 b 344 989 363 907 356 949 b 275 1047 336 1024 315 1049 b 210 983 235 1046 215 1019 b 190 835 201 935 194 885 b 99 715 186 775 167 729 b 47 692 81 713 61 703 b 61 571 0 656 7 597 b 135 563 85 560 108 557 b 174 525 164 568 174 551 b 174 475 174 508 176 492 b 175 43 154 331 165 188 b 249 -165 181 -32 197 -104 b 493 -151 322 -253 429 -246 b 497 -51 514 -118 525 -86 b 393 -51 474 -24 436 -24 b 317 -28 347 -81 338 -78 b 300 28 308 -10 303 8 b 289 583 265 213 285 399 b 344 647 290 617 310 644 b 625 624 439 651 535 689 b 733 660 665 594 714 614 b 671 776 754 706 728 761 b 490 793 613 793 553 803 b 313 774 433 785 375 781 z "},"u":{"ha":824,"x_min":0,"x_max":0,"o":"m 561 147 b 574 146 565 147 569 147 b 574 67 574 119 575 93 b 597 -106 572 8 579 -50 b 689 -154 611 -150 651 -168 b 718 -58 726 -140 740 -103 b 694 29 703 -29 694 -1 b 708 594 696 218 689 406 b 704 685 713 624 715 656 b 649 728 694 710 676 726 b 593 694 624 729 606 715 b 569 617 579 671 575 643 b 350 90 532 426 460 250 b 274 4 328 58 304 28 b 176 21 232 -28 203 -22 b 149 90 164 42 156 67 b 115 336 128 171 115 253 b 158 453 115 381 111 425 b 179 497 172 461 179 479 b 132 653 181 554 164 607 b 44 643 108 689 67 682 b 25 556 28 617 25 586 b 18 381 24 497 28 438 b 40 43 0 267 21 154 b 86 -72 49 3 63 -37 b 325 -132 144 -160 231 -182 b 468 4 385 -100 429 -51 b 561 147 500 51 531 100 z "},"v":{"ha":981,"x_min":0,"x_max":0,"o":"m 442 -226 b 571 -167 493 -229 533 -201 b 660 -37 608 -129 636 -85 b 892 619 769 169 831 394 b 894 643 893 626 894 635 b 844 728 897 689 879 719 b 757 682 811 738 776 721 b 738 619 749 663 743 640 b 686 418 719 551 704 485 b 511 -21 643 265 593 117 b 346 -22 449 -122 408 -125 b 154 519 243 144 175 324 b 89 610 149 561 129 593 b 29 594 67 619 46 614 b 28 486 0 560 8 524 b 32 479 28 485 29 482 b 90 343 65 440 75 390 b 169 99 115 261 140 179 b 282 -132 197 17 235 -60 b 442 -226 318 -187 367 -228 z "},"w":{"ha":1008,"x_min":0,"x_max":0,"o":"m 354 235 b 497 -54 407 128 451 36 b 610 -218 528 -114 561 -172 b 822 -197 681 -286 765 -278 b 879 -60 851 -156 867 -108 b 904 468 924 115 925 292 b 863 646 896 529 888 590 b 761 692 843 692 800 708 b 725 581 719 674 699 622 b 772 399 761 524 767 461 b 782 299 776 365 782 332 b 733 -78 782 171 774 44 b 668 -90 717 -128 700 -129 b 567 82 625 -37 597 22 b 476 269 536 144 508 208 b 344 382 447 324 417 381 b 214 271 271 383 242 325 b 146 119 189 221 169 169 b 113 75 139 104 140 81 b 113 211 113 124 110 168 b 174 547 119 325 94 443 b 140 658 200 582 168 626 b 88 676 126 674 108 683 b 40 588 46 661 46 624 b 6 -51 14 375 0 163 b 14 -158 7 -86 8 -124 b 78 -237 19 -194 36 -229 b 169 -183 124 -247 151 -218 b 231 -46 193 -139 211 -92 b 354 235 267 43 301 133 z "},"x":{"ha":911,"x_min":0,"x_max":0,"o":"m 351 338 b 203 568 299 421 250 494 b 150 643 186 594 171 621 b 47 643 118 675 74 674 b 104 461 0 585 31 476 b 188 401 144 453 167 432 b 258 299 210 367 232 332 b 256 211 282 268 279 242 b 113 17 206 147 160 82 b 78 -58 97 -6 82 -29 b 128 -140 71 -99 90 -132 b 215 -87 168 -150 215 -128 b 294 71 215 -19 260 24 b 433 74 358 157 364 157 b 628 -129 493 1 557 -67 b 736 -187 660 -157 693 -182 b 822 -125 775 -193 817 -161 b 751 -71 828 -90 806 -71 b 685 -46 722 -72 703 -62 b 460 200 601 29 531 114 b 464 288 435 232 438 257 b 617 463 515 344 565 404 b 674 492 632 481 651 486 b 785 651 731 508 788 593 b 699 703 783 700 740 728 b 636 649 675 689 656 668 b 351 338 544 549 454 449 z "},"y":{"ha":926,"x_min":0,"x_max":0,"o":"m 703 283 b 703 96 703 211 701 154 b 643 -244 706 -22 689 -136 b 558 -357 624 -289 596 -326 b 467 -358 529 -381 506 -396 b 344 -394 421 -312 367 -333 b 365 -501 331 -433 336 -471 b 488 -535 399 -537 440 -549 b 746 -318 604 -500 696 -433 b 792 -176 765 -272 779 -224 b 799 401 843 15 825 208 b 776 532 793 444 794 490 b 651 550 750 590 692 600 b 603 464 631 525 617 494 b 392 107 543 338 476 218 b 307 28 368 76 342 47 b 213 47 267 7 240 11 b 169 128 196 72 181 99 b 125 371 140 206 126 288 b 143 560 124 435 122 497 b 106 688 158 604 146 654 b 43 689 88 703 63 704 b 10 568 6 657 0 613 b 19 418 22 518 21 468 b 38 196 17 343 25 269 b 121 -37 51 113 74 33 b 351 -108 175 -122 260 -147 b 490 -4 407 -85 451 -49 b 639 206 549 60 594 132 b 703 283 651 229 658 258 z "},"z":{"ha":917,"x_min":0,"x_max":0,"o":"m 294 -47 b 374 58 318 6 347 31 b 651 346 465 154 560 249 b 763 518 699 396 740 451 b 668 729 794 613 758 690 b 596 749 644 738 621 744 b 94 676 421 781 256 740 b 33 632 71 667 50 653 b 46 508 0 592 6 539 b 160 539 88 475 133 485 b 249 608 181 578 208 597 b 353 635 283 617 317 631 b 590 639 432 644 510 667 b 638 526 656 617 669 586 b 543 410 613 482 579 446 b 264 136 450 319 357 228 b 156 0 224 96 183 53 b 226 -167 114 -78 142 -140 b 342 -172 265 -178 304 -179 b 575 -157 419 -157 497 -160 b 710 -185 621 -156 667 -157 b 814 -153 753 -212 794 -194 b 776 -47 833 -112 819 -71 b 738 -35 764 -42 750 -36 b 596 -28 690 -32 644 -24 b 294 -47 500 -37 404 -29 z "},"{":{"ha":613,"x_min":0,"x_max":0,"o":"m 357 1111 b 192 949 232 1111 186 1064 b 200 890 193 929 197 910 b 225 660 210 814 229 739 b 119 511 222 574 201 543 b 57 488 99 503 76 499 b 49 367 4 458 0 406 b 85 346 60 358 72 353 b 143 246 126 325 144 292 b 136 96 140 196 144 144 b 139 -85 125 35 131 -25 b 433 -278 164 -246 278 -319 b 508 -207 471 -268 500 -247 b 476 -128 515 -175 503 -147 b 383 -132 444 -106 415 -114 b 276 -92 328 -162 300 -150 b 263 -1 264 -62 263 -32 b 268 231 264 76 265 154 b 243 376 269 282 271 332 b 258 446 224 407 233 425 b 349 660 326 501 347 576 b 322 882 349 736 333 808 b 407 951 307 978 315 985 b 510 976 454 935 490 943 b 475 1083 529 1011 515 1056 b 357 1111 436 1110 393 1113 z "},"|":{"ha":271,"x_min":0,"x_max":0,"o":"m 43 701 b 42 444 43 615 47 529 b 1 -143 31 249 14 53 b 8 -217 0 -168 3 -193 b 86 -287 19 -267 49 -292 b 143 -193 126 -281 153 -243 b 133 -19 132 -135 132 -78 b 183 1007 138 324 142 667 b 165 1078 188 1033 181 1057 b 51 1072 133 1124 78 1121 b 39 1008 40 1053 35 1031 b 43 701 58 906 44 804 z "},"}":{"ha":613,"x_min":0,"x_max":0,"o":"m 172 -289 b 336 -125 297 -287 343 -240 b 329 -68 336 -106 331 -87 b 304 163 319 10 300 85 b 410 311 307 249 328 279 b 472 335 431 319 453 325 b 481 456 525 365 529 418 b 444 476 469 464 457 471 b 386 578 403 497 385 532 b 393 726 389 628 385 678 b 389 908 404 789 399 849 b 94 1100 365 1068 251 1142 b 21 1031 57 1090 29 1069 b 53 950 14 997 26 969 b 146 956 85 928 114 938 b 253 914 201 986 229 974 b 267 825 264 885 267 854 b 261 592 265 747 264 669 b 286 447 260 542 258 492 b 271 378 306 415 294 399 b 181 163 203 322 182 246 b 207 -60 179 88 196 14 b 121 -128 221 -156 214 -161 b 19 -153 75 -111 39 -121 b 54 -261 0 -187 14 -233 b 172 -289 93 -287 136 -290 z "},"~":{"ha":772,"x_min":0,"x_max":0,"o":"m 481 107 b 679 251 561 107 656 176 b 653 332 689 285 681 313 b 571 325 624 354 596 347 b 544 293 560 317 553 304 b 397 279 488 221 468 218 b 251 372 353 317 308 353 b 22 269 167 400 57 351 b 60 149 0 219 18 165 b 151 215 101 132 132 154 b 249 250 171 274 199 286 b 342 168 282 225 310 194 b 481 107 382 133 426 104 z "},"¡":{"ha":243,"x_min":0,"x_max":0,"o":"m 158 -361 b 157 -87 158 -269 158 -179 b 149 -14 157 -62 156 -37 b 67 36 136 28 101 49 b 31 -44 28 22 19 -10 b 44 -217 49 -101 51 -158 b 33 -399 36 -278 35 -337 b 18 -587 31 -462 33 -525 b 29 -703 8 -626 14 -665 b 85 -744 39 -728 57 -744 b 147 -700 117 -746 136 -728 b 157 -601 160 -668 160 -635 b 158 -361 150 -521 156 -442 z m 1 242 b 75 167 0 204 35 167 b 142 228 108 167 138 194 b 74 308 144 267 113 306 b 1 242 38 310 4 279 z "},"¢":{"ha":807,"x_min":0,"x_max":0,"o":"m 396 464 b 426 354 429 432 419 392 b 506 286 436 308 468 282 b 564 364 542 290 567 318 b 481 585 561 446 542 526 b 410 714 440 622 407 654 b 358 772 411 743 390 767 b 283 732 324 778 299 761 b 263 669 274 713 264 690 b 204 565 260 624 232 597 b 6 78 79 428 0 269 b 213 -185 10 -65 72 -147 b 282 -236 243 -193 269 -204 b 360 -285 296 -271 319 -292 b 410 -210 399 -276 411 -247 b 443 -168 408 -186 424 -175 b 521 -140 469 -160 496 -151 b 686 -44 579 -115 640 -92 b 696 67 721 -8 724 38 b 593 60 668 96 635 96 b 475 -17 557 28 518 1 b 397 31 407 -47 397 -42 b 396 464 396 175 396 319 z m 288 485 b 282 167 288 372 293 269 b 275 -15 275 107 278 46 b 199 -60 271 -71 249 -83 b 118 39 156 -40 129 -6 b 288 485 83 190 182 415 z "},"£":{"ha":890,"x_min":0,"x_max":0,"o":"m 183 253 b 89 -25 190 136 190 42 b 61 -140 42 -56 36 -107 b 181 -151 86 -175 135 -182 b 278 -110 211 -132 243 -119 b 581 -58 378 -81 479 -71 b 686 -75 617 -54 651 -58 b 789 -44 735 -99 774 -83 b 733 58 807 0 785 40 b 618 64 696 74 657 69 b 339 24 525 50 432 36 b 285 61 311 21 276 17 b 294 243 296 122 293 183 b 349 306 296 281 314 304 b 536 308 411 307 472 339 b 618 343 572 290 601 308 b 582 433 633 376 619 414 b 476 447 549 450 514 454 b 344 432 433 442 388 442 b 283 478 303 424 288 444 b 261 710 275 556 268 632 b 310 783 257 747 269 768 b 349 890 361 803 374 844 b 301 947 338 913 319 932 b 154 900 238 1004 171 982 b 144 783 146 863 142 824 b 179 463 153 676 161 568 b 132 381 188 419 175 393 b 42 339 100 371 69 356 b 11 260 14 322 0 294 b 82 211 22 228 49 214 b 183 253 117 207 144 226 z "},"¤":{"ha":760,"x_min":0,"x_max":0,"o":"m 599 -26 b 665 10 628 -28 654 -19 b 647 85 676 39 674 71 b 603 208 589 114 588 154 b 603 282 608 232 610 260 b 646 476 581 357 565 422 b 640 574 676 497 667 551 b 549 572 610 599 578 593 b 500 526 531 558 514 543 b 411 503 475 496 446 490 b 322 519 382 514 350 511 b 131 581 257 538 183 519 b 47 581 110 606 75 604 b 36 490 18 556 18 524 b 56 464 42 481 47 471 b 82 344 92 431 100 393 b 79 165 61 286 56 225 b 49 58 99 118 83 90 b 26 -50 6 19 0 -19 b 138 -51 51 -81 92 -82 b 151 -42 143 -49 147 -46 b 265 -24 185 -6 222 -6 b 403 -29 308 -42 357 -49 b 582 -25 463 -4 521 17 b 599 -26 586 -28 593 -26 z m 188 258 b 318 376 188 344 224 376 b 464 249 418 375 465 333 b 331 100 463 160 410 100 b 188 258 250 100 186 169 z "},"¥":{"ha":1046,"x_min":0,"x_max":0,"o":"m 453 300 b 425 282 439 290 433 285 b 368 272 407 278 388 275 b 304 256 346 271 325 267 b 263 168 267 236 250 201 b 358 125 276 132 318 113 b 411 149 376 132 393 142 b 454 144 426 154 447 165 b 419 108 463 118 439 111 b 333 83 389 104 360 100 b 303 4 306 64 292 38 b 375 -40 314 -29 340 -43 b 407 -32 385 -39 397 -36 b 468 -69 447 -12 461 -32 b 489 -142 472 -94 478 -119 b 578 -181 506 -179 543 -193 b 611 -90 613 -167 626 -132 b 593 -46 606 -75 596 -61 b 631 -8 588 -18 601 -1 b 668 -25 643 -10 656 -19 b 754 0 704 -42 733 -32 b 740 90 776 33 765 64 b 650 124 717 117 685 124 b 593 146 629 125 604 118 b 600 168 590 154 592 164 b 658 150 625 183 639 161 b 774 186 706 124 751 138 b 726 294 794 229 775 271 b 644 306 700 306 672 304 b 596 326 625 307 603 303 b 624 374 590 350 608 363 b 789 547 690 421 744 479 b 897 763 833 615 869 686 b 949 903 915 808 935 854 b 903 996 963 946 940 985 b 818 949 871 1007 835 989 b 796 876 807 925 803 901 b 626 546 763 754 704 646 b 519 456 597 508 561 478 b 357 475 461 426 407 433 b 269 586 321 507 293 544 b 169 768 236 646 203 707 b 124 836 157 792 144 818 b 24 821 88 865 44 858 b 56 663 0 779 13 678 b 189 513 132 635 151 568 b 340 349 231 449 275 390 b 453 300 374 329 417 332 z "},"¦":{"ha":242,"x_min":0,"x_max":0,"o":"m 14 560 b 19 438 15 519 7 478 b 90 394 31 404 56 386 b 129 458 122 401 133 426 b 147 879 113 600 147 739 b 150 921 147 893 151 907 b 83 994 147 961 115 993 b 15 915 47 996 17 960 b 19 883 15 904 17 893 b 25 701 40 824 33 763 b 14 560 19 656 17 608 z m 0 -56 b 0 -108 0 -81 0 -94 b 65 -199 3 -167 28 -199 b 122 -106 103 -199 122 -169 b 149 200 122 -3 132 99 b 94 300 158 260 140 294 b 18 214 49 306 21 276 b 0 -56 14 121 14 26 z "},"§":{"ha":774,"x_min":0,"x_max":0,"o":"m 194 278 b 228 106 142 199 150 153 b 318 64 256 88 288 76 b 442 15 360 47 401 33 b 454 -65 497 -8 501 -29 b 306 -158 408 -101 358 -131 b 278 -242 269 -176 261 -212 b 364 -267 294 -272 329 -287 b 590 -87 447 -218 531 -167 b 589 64 631 -33 632 19 b 579 174 553 101 544 128 b 542 308 622 229 604 276 b 415 347 501 329 458 336 b 207 404 346 367 275 382 b 190 493 147 425 144 449 b 446 625 263 561 353 597 b 535 575 517 646 517 646 b 604 515 544 539 565 514 b 664 574 639 515 657 540 b 510 764 690 719 625 772 b 444 754 488 763 467 758 b 103 574 315 722 203 658 b 51 518 83 557 67 539 b 92 328 0 444 14 376 b 194 278 122 310 156 297 z m 426 213 b 382 176 418 193 413 169 b 317 208 358 182 335 190 b 304 243 307 217 296 229 b 340 251 311 258 328 254 b 404 235 363 246 383 240 b 426 213 414 232 424 226 z "},"¨":{"ha":503,"x_min":0,"x_max":0,"o":"m 1 1075 b 86 981 4 1022 42 979 b 175 1082 132 981 175 1031 b 85 1168 175 1135 136 1171 b 1 1075 33 1165 0 1128 z m 246 1075 b 331 981 249 1022 286 979 b 419 1082 376 981 419 1031 b 329 1168 419 1135 381 1171 b 246 1075 278 1165 244 1128 z "},"©":{"ha":1079,"x_min":0,"x_max":0,"o":"m 471 -276 b 976 165 721 -276 940 -82 b 917 521 996 292 969 408 b 529 794 840 683 708 781 b 210 690 413 803 299 785 b 3 181 74 546 0 378 b 471 -276 8 -74 219 -275 z m 833 276 b 482 -147 835 38 690 -125 b 111 183 308 -165 121 -1 b 253 589 103 336 153 472 b 300 619 267 603 281 624 b 443 649 354 606 396 642 b 744 535 564 669 668 633 b 833 276 811 451 831 351 z m 472 -8 b 644 35 522 1 585 13 b 735 76 676 47 708 54 b 757 164 763 100 775 129 b 672 199 739 200 708 207 b 621 172 654 193 638 182 b 465 119 571 147 521 126 b 375 182 413 113 381 135 b 460 379 368 263 397 328 b 507 371 478 393 494 397 b 525 333 513 358 517 344 b 599 311 543 308 569 301 b 642 367 625 319 638 340 b 535 503 649 431 600 496 b 417 474 492 508 453 497 b 261 228 328 415 282 331 b 472 -8 236 97 325 -10 z "},"ª":{"ha":581,"x_min":0,"x_max":0,"o":"m 314 924 b 339 865 335 910 331 885 b 372 810 347 844 356 825 b 464 803 400 785 438 782 b 469 890 492 825 497 857 b 432 988 443 919 438 953 b 431 1253 419 1076 419 1164 b 432 1335 433 1279 442 1307 b 342 1363 418 1376 368 1396 b 231 1332 308 1321 278 1314 b 146 1311 200 1343 171 1329 b 86 1242 121 1292 101 1268 b 1 925 31 1144 10 1036 b 22 838 0 894 8 864 b 161 786 50 781 103 761 b 263 869 203 804 232 838 b 314 924 278 888 285 915 z m 125 919 b 182 1190 115 1026 132 1113 b 228 1186 196 1213 215 1208 b 240 1124 238 1167 250 1147 b 125 919 214 1056 190 985 z "},"«":{"ha":1347,"x_min":0,"x_max":0,"o":"m 554 376 b 569 369 560 375 564 371 b 664 422 619 358 657 379 b 600 504 671 461 644 497 b 535 503 578 507 556 507 b 347 464 472 492 408 481 b 94 361 260 439 172 410 b 96 149 0 300 1 210 b 139 126 110 140 125 133 b 571 -18 276 57 426 26 b 619 -18 586 -24 604 -21 b 685 44 657 -12 683 4 b 618 106 685 78 658 106 b 347 174 522 108 436 150 b 207 224 300 186 249 196 b 176 250 196 231 179 233 b 207 283 174 271 193 276 b 497 381 301 325 396 363 b 554 376 517 383 536 388 z m 1133 376 b 1149 369 1139 375 1143 371 b 1243 422 1199 358 1236 379 b 1179 504 1250 461 1224 497 b 1114 503 1157 507 1135 507 b 926 464 1051 492 988 481 b 674 361 839 439 751 410 b 675 149 579 300 581 210 b 718 126 689 140 704 133 b 1150 -18 856 57 1006 26 b 1199 -18 1165 -24 1183 -21 b 1264 44 1236 -12 1263 4 b 1197 106 1264 78 1238 106 b 926 174 1101 108 1015 150 b 786 224 879 186 828 196 b 756 250 775 231 758 233 b 786 283 753 271 772 276 b 1076 381 881 325 975 363 b 1133 376 1096 383 1115 388 z "},"¬":{"ha":835,"x_min":0,"x_max":0,"o":"m 376 360 b 535 358 429 360 482 363 b 606 285 586 354 603 336 b 594 160 608 243 603 201 b 592 36 586 119 582 78 b 665 -18 600 1 635 -24 b 721 44 699 -12 724 10 b 740 258 713 118 733 188 b 575 490 751 379 693 461 b 493 501 549 497 521 500 b 171 474 385 506 278 493 b 50 449 131 467 88 468 b 43 342 3 425 0 372 b 114 331 65 326 90 322 b 376 360 200 360 289 361 z "},"®":{"ha":969,"x_min":0,"x_max":0,"o":"m 450 1521 b 1 1083 208 1524 3 1325 b 429 643 0 843 190 653 b 881 1075 640 635 874 793 b 450 1521 886 1321 692 1518 z m 431 771 b 111 1083 268 763 114 903 b 435 1397 108 1219 222 1408 b 747 1086 606 1389 749 1256 b 431 771 744 879 567 758 z m 499 1086 b 529 1132 510 1104 521 1118 b 529 1301 567 1197 567 1256 b 339 1353 488 1351 400 1375 b 281 1258 292 1335 265 1300 b 288 1103 301 1206 292 1156 b 279 896 282 1035 279 965 b 350 814 279 840 308 811 b 408 913 397 818 419 858 b 465 963 393 981 396 983 b 521 944 483 957 501 950 b 585 931 542 939 564 932 b 672 1013 635 931 674 968 b 581 1067 669 1056 640 1075 b 499 1086 551 1061 526 1060 z "},"¯":{"ha":528,"x_min":0,"x_max":0,"o":"m 214 1147 b 214 1143 214 1146 214 1144 b 65 1142 165 1143 114 1147 b 6 1065 22 1136 0 1101 b 86 1015 10 1029 38 1011 b 357 1004 176 1022 267 1035 b 426 1033 385 994 411 1006 b 414 1117 444 1064 438 1093 b 339 1147 393 1138 368 1147 b 214 1147 297 1149 256 1147 z "},"°":{"ha":481,"x_min":0,"x_max":0,"o":"m 188 1265 b 6 1083 85 1268 10 1194 b 182 883 0 975 78 886 b 396 1083 293 879 394 975 b 188 1265 397 1183 307 1261 z m 196 1093 b 251 1081 215 1092 242 1114 b 188 1018 258 1054 218 1017 b 135 1069 156 1019 133 1039 b 196 1093 136 1118 176 1083 z "},"±":{"ha":764,"x_min":0,"x_max":0,"o":"m 388 217 b 460 289 388 282 400 296 b 569 253 499 285 533 271 b 663 278 608 232 644 246 b 635 381 681 313 668 357 b 572 401 615 394 594 400 b 457 415 533 406 496 410 b 407 488 408 421 396 439 b 422 526 411 500 418 513 b 400 635 438 567 424 603 b 288 618 365 679 308 669 b 279 561 281 600 281 581 b 278 461 278 528 278 494 b 218 400 279 421 260 403 b 71 382 168 397 119 392 b 8 300 24 374 0 339 b 106 246 17 260 61 235 b 158 269 124 250 140 264 b 265 201 256 294 269 292 b 299 85 264 160 272 119 b 386 61 325 51 358 43 b 406 140 417 81 421 110 b 388 217 393 167 386 192 z m 460 -132 b 569 -168 499 -136 533 -150 b 663 -143 608 -189 644 -175 b 635 -40 681 -108 668 -64 b 572 -19 615 -26 594 -21 b 457 -6 533 -15 496 -11 b 218 -21 408 0 260 -18 b 71 -39 168 -24 119 -29 b 8 -121 24 -47 0 -82 b 106 -175 17 -161 61 -186 b 158 -151 124 -171 140 -157 b 460 -132 256 -126 400 -125 z "},"²":{"ha":446,"x_min":0,"x_max":0,"o":"m 233 918 b 281 1017 242 963 264 989 b 356 1218 318 1079 346 1146 b 297 1364 363 1276 353 1329 b 18 1279 224 1408 56 1358 b 39 1190 3 1244 10 1210 b 126 1208 74 1167 103 1179 b 171 1256 140 1225 150 1246 b 232 1261 190 1265 211 1279 b 235 1207 251 1246 240 1225 b 106 976 207 1122 160 1047 b 29 867 79 940 50 906 b 97 763 0 811 36 754 b 325 811 174 774 250 793 b 360 863 349 818 361 838 b 318 917 360 890 346 913 b 233 918 294 921 269 918 z "},"³":{"ha":435,"x_min":0,"x_max":0,"o":"m 164 1253 b 118 1190 157 1221 132 1210 b 71 1132 101 1171 85 1153 b 113 956 17 1054 31 1000 b 157 926 128 947 153 951 b 81 894 136 903 107 904 b 29 806 35 878 15 843 b 126 768 43 769 81 754 b 253 832 171 783 213 807 b 336 956 297 861 342 893 b 233 1051 331 1017 281 1033 b 214 1115 188 1068 183 1079 b 314 1238 249 1154 288 1192 b 253 1375 351 1304 329 1360 b 38 1332 178 1390 106 1368 b 14 1253 7 1317 0 1285 b 99 1224 28 1222 65 1211 b 164 1253 119 1232 129 1257 z "},"´":{"ha":465,"x_min":0,"x_max":0,"o":"m 67 875 b 131 921 96 878 113 899 b 336 1136 194 997 251 1079 b 350 1253 379 1164 382 1219 b 244 1236 321 1283 285 1279 b 49 1022 178 1167 114 1093 b 7 950 29 1001 13 979 b 67 875 0 913 29 875 z "},"µ":{"ha":824,"x_min":0,"x_max":0,"o":"m 119 401 b 121 406 121 403 121 404 b 158 453 125 424 138 440 b 179 497 172 463 179 478 b 132 653 179 554 164 607 b 88 676 119 671 104 678 b 44 643 71 674 57 663 b 25 556 31 617 24 588 l 25 507 b 18 381 26 464 24 422 b 14 342 17 368 15 354 b 10 306 11 331 10 319 l 10 32 l 11 32 l 11 -243 b 29 -365 13 -285 18 -325 b 83 -435 36 -397 54 -419 b 160 -422 113 -447 138 -443 b 167 -354 181 -401 182 -379 b 161 -344 165 -350 163 -347 b 135 -279 146 -326 136 -304 b 133 -133 135 -231 135 -182 l 133 -124 b 325 -132 186 -167 250 -169 b 468 4 383 -99 431 -53 b 533 104 490 36 513 69 b 561 147 543 119 551 133 l 565 147 b 574 146 568 147 571 147 b 575 121 574 138 574 129 b 574 67 575 103 575 85 b 597 -106 572 7 579 -50 b 635 -151 604 -128 617 -143 b 689 -154 651 -160 669 -161 b 718 -58 729 -137 739 -106 b 694 29 703 -31 694 -1 l 694 179 b 708 594 692 318 696 457 b 704 685 714 625 713 656 b 649 728 694 711 675 725 b 593 694 624 728 606 717 b 572 626 582 674 575 650 b 569 617 571 622 571 619 b 350 90 533 426 460 250 b 274 4 329 58 303 29 b 176 21 233 -28 201 -22 b 149 90 164 43 156 67 b 119 401 122 182 113 285 z "},"¶":{"ha":919,"x_min":0,"x_max":0,"o":"m 400 36 b 410 -100 404 -12 392 -57 b 481 -140 422 -131 444 -151 b 517 -74 513 -131 522 -106 b 511 -42 515 -62 513 -53 b 526 165 503 28 519 96 b 619 214 531 199 581 222 b 646 146 658 204 651 172 b 607 -40 635 83 619 22 b 596 -139 600 -74 592 -106 b 704 -183 604 -192 660 -215 b 740 -104 731 -164 744 -137 b 754 126 729 -26 744 50 b 803 235 760 168 764 206 b 813 315 831 254 836 293 b 774 446 772 354 778 400 b 515 693 763 600 668 690 b 125 571 372 694 243 650 b 36 474 89 546 57 514 b 82 292 0 404 17 335 b 164 254 107 276 135 263 b 342 217 222 235 281 222 b 407 140 408 210 413 203 b 400 36 404 104 403 68 z m 433 440 b 306 343 431 325 417 314 b 213 372 274 351 242 360 b 206 451 157 396 156 414 b 353 525 250 486 300 508 b 433 465 415 544 432 532 b 433 440 433 457 433 449 z m 539 397 b 558 519 546 438 550 479 b 603 535 564 546 582 546 b 642 483 622 524 636 506 b 663 379 651 450 657 414 b 622 318 668 347 653 328 b 539 397 560 299 539 319 z "},"·":{"ha":229,"x_min":0,"x_max":0,"o":"m 76 478 b 3 417 38 479 7 454 b 71 339 0 378 32 340 b 146 411 108 338 146 372 b 76 478 144 447 115 476 z "},"∙":{"ha":229,"x_min":0,"x_max":0,"o":"m 76 478 b 3 417 38 479 7 454 b 71 339 0 378 32 340 b 146 411 108 338 146 372 b 76 478 144 447 115 476 z "},"¸":{"ha":467,"x_min":0,"x_max":0,"o":"m 382 -350 b 353 -275 382 -322 371 -296 b 103 -85 283 -193 197 -133 b 13 -115 65 -64 26 -82 b 49 -199 0 -147 14 -179 b 88 -212 61 -206 75 -207 b 246 -318 147 -239 199 -275 b 239 -392 278 -349 275 -365 b 86 -453 193 -424 142 -443 b 33 -525 49 -460 28 -492 b 106 -581 39 -558 65 -581 b 154 -571 121 -579 139 -578 b 344 -440 225 -539 292 -499 b 382 -350 367 -414 383 -386 z "},"¹":{"ha":314,"x_min":0,"x_max":0,"o":"m 211 1099 b 211 1289 211 1163 211 1226 b 167 1363 211 1322 200 1350 b 86 1332 133 1374 107 1357 b 40 1274 69 1314 54 1294 b 67 1147 0 1213 3 1185 b 99 1088 93 1131 101 1114 b 92 1029 97 1068 93 1049 b 103 825 88 961 81 892 b 181 781 117 786 149 769 b 221 851 214 792 231 818 b 211 1099 196 933 214 1017 z "},"º":{"ha":499,"x_min":0,"x_max":0,"o":"m 415 1103 b 407 1175 414 1119 413 1147 b 110 1361 383 1303 236 1394 b 31 1240 43 1344 18 1308 b 22 1142 36 1206 31 1175 b 24 929 7 1071 0 1000 b 160 797 44 861 88 811 b 329 864 228 783 285 814 b 415 1103 386 929 415 1006 z m 111 1067 b 172 1219 100 1126 142 1171 b 215 1228 182 1236 199 1235 b 269 1179 240 1218 257 1201 b 213 936 304 1111 275 981 b 136 950 183 914 157 918 b 111 1067 114 983 110 1022 z "},"»":{"ha":1347,"x_min":0,"x_max":0,"o":"m 710 108 b 694 114 704 110 700 114 b 600 63 644 126 606 106 b 664 -19 593 24 619 -12 b 729 -18 685 -22 708 -22 b 917 21 792 -7 856 4 b 1169 124 1004 46 1092 75 b 1168 336 1264 185 1263 275 b 1125 358 1154 344 1139 351 b 693 503 988 426 838 458 b 643 503 678 508 660 506 b 579 439 607 497 581 479 b 646 379 579 407 606 379 b 917 311 740 375 828 335 b 1057 261 964 299 1014 289 b 1088 235 1068 253 1085 251 b 1057 201 1090 214 1071 208 b 767 104 963 160 868 122 b 710 108 747 101 728 97 z m 131 108 b 115 114 125 110 121 114 b 21 63 65 126 26 106 b 85 -19 14 24 40 -12 b 150 -18 106 -22 129 -22 b 338 21 213 -7 276 4 b 590 124 425 46 513 75 b 589 336 685 185 683 275 b 546 358 575 344 560 351 b 114 503 408 426 258 458 b 64 503 99 508 81 506 b 0 439 28 497 1 479 b 67 379 0 407 26 379 b 338 311 161 375 249 335 b 478 261 385 299 435 289 b 508 235 489 253 506 251 b 478 201 511 214 492 208 b 188 104 383 160 289 122 b 131 108 168 101 149 97 z "},"¼":{"ha":946,"x_min":0,"x_max":0,"o":"m 803 926 b 758 997 801 957 790 983 b 672 969 722 1013 692 1000 b 613 860 650 933 635 894 b 214 217 481 644 346 432 b 28 -89 151 115 89 14 b 32 -183 0 -136 3 -165 b 121 -135 64 -203 94 -186 b 151 -76 131 -115 140 -96 b 781 872 347 250 553 568 b 803 926 793 888 801 904 z m 711 -67 b 722 -186 714 -104 714 -146 b 794 -240 729 -224 763 -244 b 850 -168 829 -235 854 -206 b 857 179 833 -51 839 64 b 824 257 863 211 856 242 b 739 242 793 272 764 265 b 713 222 732 233 726 222 b 690 265 706 236 700 253 b 589 276 661 301 622 308 b 429 108 533 224 478 168 b 453 -28 389 58 399 8 b 642 -71 510 -65 572 -86 b 711 -67 664 -65 683 -54 z m 269 779 b 269 924 269 819 274 872 b 210 996 267 958 249 988 b 124 960 174 1003 143 990 b 63 860 101 928 81 894 b 96 735 33 801 39 772 b 138 651 129 713 138 688 b 139 553 136 618 138 585 b 161 464 142 522 146 490 b 231 432 175 439 199 422 b 272 493 260 440 281 464 b 269 779 250 585 286 675 z "},"½":{"ha":942,"x_min":0,"x_max":0,"o":"m 771 908 b 726 988 772 942 763 971 b 646 963 693 1003 668 986 b 619 921 636 950 628 935 b 82 -71 440 590 261 260 b 83 -186 47 -135 47 -169 b 179 -119 114 -201 147 -183 b 503 479 281 83 385 286 b 743 844 578 604 639 739 b 771 908 760 861 765 883 z m 607 96 b 510 -54 579 36 544 -8 b 489 -175 482 -92 457 -129 b 601 -203 518 -215 558 -212 b 774 -178 658 -190 714 -178 b 857 -108 832 -176 858 -151 b 764 -36 857 -64 821 -37 b 700 -31 744 -36 722 -57 b 765 119 722 18 749 68 b 611 297 800 232 728 314 b 501 190 551 289 504 243 b 607 96 499 142 522 118 z m 226 818 b 225 950 226 863 226 907 b 174 1017 224 985 208 1010 b 53 933 107 1029 82 976 b 35 806 26 894 0 854 b 46 793 38 801 40 796 b 90 686 99 772 97 733 b 97 531 83 635 78 581 b 176 488 111 496 139 478 b 222 556 211 496 231 522 b 226 818 199 643 235 731 z "},"¾":{"ha":950,"x_min":0,"x_max":0,"o":"m 807 931 b 758 1001 806 964 789 988 b 685 979 728 1014 703 1001 b 651 922 669 964 661 942 b 174 94 493 646 346 364 b 65 -92 135 33 97 -28 b 92 -183 43 -133 58 -169 b 176 -140 124 -199 160 -182 b 206 -62 186 -114 192 -87 b 528 490 313 122 417 308 b 789 885 610 625 681 767 b 807 931 800 897 806 913 z m 701 -49 b 714 -154 718 -82 706 -119 b 800 -224 726 -207 758 -233 b 847 -119 843 -214 867 -169 b 831 -6 833 -82 831 -44 b 843 193 831 61 829 128 b 804 275 851 229 842 261 b 719 242 768 289 739 272 b 668 147 701 211 686 178 b 576 69 649 115 628 82 b 651 178 599 117 621 151 b 654 286 692 211 686 263 b 550 254 621 310 582 299 b 494 171 531 226 513 199 b 422 58 471 133 442 99 b 499 -76 388 -11 421 -69 b 622 -65 540 -81 581 -78 b 701 -49 647 -58 671 -37 z m 158 644 b 114 631 142 631 128 633 b 36 553 60 621 33 593 b 128 489 40 511 75 485 b 282 544 183 493 236 511 b 307 711 342 588 350 654 b 261 767 292 729 258 739 b 313 829 264 794 296 808 b 333 856 319 839 328 846 b 258 1026 393 939 360 1017 b 57 986 188 1033 121 1014 b 18 889 14 965 0 924 b 118 868 36 854 75 844 b 192 896 140 881 158 901 b 158 644 69 774 67 751 z "},"¿":{"ha":928,"x_min":0,"x_max":0,"o":"m 421 -810 b 215 -761 319 -811 261 -796 b 163 -579 151 -714 133 -653 b 226 -474 176 -540 201 -507 b 440 -229 292 -386 369 -311 b 564 -15 494 -165 542 -99 b 568 65 572 11 576 39 b 479 124 556 107 521 129 b 415 43 436 119 406 89 b 351 -128 429 -29 393 -79 b 189 -306 297 -187 242 -244 b 31 -557 125 -382 60 -458 b 106 -829 0 -664 26 -753 b 265 -912 150 -874 204 -903 b 721 -832 425 -937 581 -922 b 807 -744 756 -808 788 -782 b 763 -553 844 -676 824 -587 b 671 -560 731 -535 697 -533 b 664 -644 646 -585 647 -614 b 642 -740 693 -700 692 -710 b 421 -810 567 -787 483 -806 z m 419 239 b 494 167 421 201 457 165 b 571 238 533 167 572 203 b 494 311 569 274 532 311 b 419 239 456 313 419 278 z "},"À":{"ha":1032,"x_min":0,"x_max":0,"o":"m 949 275 b 910 335 946 301 933 325 b 857 428 865 353 861 388 b 776 826 844 564 825 697 b 661 996 751 893 714 950 b 364 989 563 1081 457 1079 b 251 815 313 940 281 879 b 129 410 192 686 160 549 b 58 308 121 365 107 329 b 39 207 11 289 0 238 b 67 82 88 169 75 128 b 24 -26 60 43 44 8 b 39 -107 7 -54 8 -86 b 124 -101 67 -126 97 -121 b 175 -18 151 -81 164 -49 b 226 175 197 44 214 110 b 275 233 232 204 242 229 b 706 257 418 250 561 274 b 782 167 778 247 781 243 b 814 -106 785 75 796 -15 b 850 -178 819 -133 826 -160 b 918 -179 872 -196 896 -197 b 936 -121 939 -165 949 -140 b 883 119 886 -47 899 39 b 919 218 876 161 875 196 b 949 275 939 229 947 251 z m 763 411 b 721 364 767 381 753 364 b 679 363 707 363 693 363 b 314 350 558 358 436 368 b 265 403 269 343 257 358 b 393 813 293 543 322 685 b 464 906 413 847 435 879 b 583 910 506 942 539 943 b 654 819 615 886 636 854 b 763 411 722 692 743 551 z m 651 1122 b 711 1197 689 1122 718 1160 b 669 1269 706 1226 688 1249 b 474 1483 604 1340 540 1414 b 367 1500 433 1526 396 1531 b 382 1383 336 1467 339 1411 b 588 1168 467 1326 524 1244 b 651 1122 606 1146 622 1125 z "},"Á":{"ha":1032,"x_min":0,"x_max":0,"o":"m 949 275 b 910 335 946 301 933 325 b 857 428 865 353 861 388 b 776 826 844 564 825 697 b 661 996 751 893 714 950 b 364 989 563 1081 457 1079 b 251 815 313 940 281 879 b 129 410 192 686 160 549 b 58 308 121 365 107 329 b 39 207 11 289 0 238 b 67 82 88 169 75 128 b 24 -26 60 43 44 8 b 39 -107 7 -54 8 -86 b 124 -101 67 -126 97 -121 b 175 -18 151 -81 164 -49 b 226 175 197 44 214 110 b 275 233 232 204 242 229 b 706 257 418 250 561 274 b 782 167 778 247 781 243 b 814 -106 785 75 796 -15 b 850 -178 819 -133 826 -160 b 918 -179 872 -196 896 -197 b 936 -121 939 -165 949 -140 b 883 119 886 -47 899 39 b 919 218 876 161 875 196 b 949 275 939 229 947 251 z m 763 411 b 721 364 767 381 753 364 b 679 363 707 363 693 363 b 314 350 558 358 436 368 b 265 403 269 343 257 358 b 393 813 293 543 322 685 b 464 906 413 847 435 879 b 583 910 506 942 539 943 b 654 819 615 886 636 854 b 763 411 722 692 743 551 z m 365 1124 b 429 1169 394 1126 411 1147 b 635 1385 493 1246 550 1328 b 649 1501 678 1413 681 1468 b 543 1485 619 1532 583 1528 b 347 1271 476 1415 413 1342 b 306 1199 328 1250 311 1228 b 365 1124 299 1161 328 1124 z "},"Â":{"ha":1032,"x_min":0,"x_max":0,"o":"m 949 275 b 910 335 946 301 933 325 b 857 428 865 353 861 388 b 776 826 844 564 825 697 b 661 996 751 893 714 950 b 364 989 563 1081 457 1079 b 251 815 313 940 281 879 b 129 410 192 686 160 549 b 58 308 121 365 107 329 b 39 207 11 289 0 238 b 67 82 88 169 75 128 b 24 -26 60 43 44 8 b 39 -107 7 -54 8 -86 b 124 -101 67 -126 97 -121 b 175 -18 151 -81 164 -49 b 226 175 197 44 214 110 b 275 233 232 204 242 229 b 706 257 418 250 561 274 b 782 167 778 247 781 243 b 814 -106 785 75 796 -15 b 850 -178 819 -133 826 -160 b 918 -179 872 -196 896 -197 b 936 -121 939 -165 949 -140 b 883 119 886 -47 899 39 b 919 218 876 161 875 196 b 949 275 939 229 947 251 z m 763 411 b 721 364 767 381 753 364 b 679 363 707 363 693 363 b 314 350 558 358 436 368 b 265 403 269 343 257 358 b 393 813 293 543 322 685 b 464 906 413 847 435 879 b 583 910 506 942 539 943 b 654 819 615 886 636 854 b 763 411 722 692 743 551 z m 803 1190 b 760 1246 801 1218 786 1239 b 644 1338 708 1260 678 1299 b 586 1407 625 1360 607 1385 b 378 1433 521 1474 457 1482 b 203 1247 303 1388 254 1315 b 206 1169 185 1224 188 1194 b 322 1175 235 1126 288 1126 b 406 1288 350 1213 374 1253 b 544 1283 474 1360 486 1360 b 638 1167 576 1244 606 1204 b 696 1122 654 1147 672 1129 b 803 1190 750 1103 806 1139 z "},"Ã":{"ha":1032,"x_min":0,"x_max":0,"o":"m 949 275 b 910 335 946 301 933 325 b 857 428 865 353 861 388 b 776 826 844 564 825 697 b 661 996 751 893 714 950 b 364 989 563 1081 457 1079 b 251 815 313 940 281 879 b 129 410 192 686 160 549 b 58 308 121 365 107 329 b 39 207 11 289 0 238 b 67 82 88 169 75 128 b 24 -26 60 43 44 8 b 39 -107 7 -54 8 -86 b 124 -101 67 -126 97 -121 b 175 -18 151 -81 164 -49 b 226 175 197 44 214 110 b 275 233 232 204 242 229 b 706 257 418 250 561 274 b 782 167 778 247 781 243 b 814 -106 785 75 796 -15 b 850 -178 819 -133 826 -160 b 918 -179 872 -196 896 -197 b 936 -121 939 -165 949 -140 b 883 119 886 -47 899 39 b 919 218 876 161 875 196 b 949 275 939 229 947 251 z m 763 411 b 721 364 767 381 753 364 b 679 363 707 363 693 363 b 314 350 558 358 436 368 b 265 403 269 343 257 358 b 393 813 293 543 322 685 b 464 906 413 847 435 879 b 583 910 506 942 539 943 b 654 819 615 886 636 854 b 763 411 722 692 743 551 z m 625 1121 b 824 1265 706 1121 800 1190 b 797 1346 833 1299 825 1326 b 715 1339 768 1368 740 1361 b 689 1307 704 1331 697 1318 b 542 1293 632 1235 613 1232 b 396 1386 497 1331 453 1367 b 167 1283 311 1414 201 1365 b 204 1163 144 1233 163 1179 b 296 1229 246 1146 276 1168 b 393 1264 315 1288 343 1300 b 486 1182 426 1239 454 1208 b 625 1121 526 1147 571 1118 z "},"Ä":{"ha":1032,"x_min":0,"x_max":0,"o":"m 949 275 b 910 335 946 301 933 325 b 857 428 865 353 861 388 b 776 826 844 564 825 697 b 661 996 751 893 714 950 b 364 989 563 1081 457 1079 b 251 815 313 940 281 879 b 129 410 192 686 160 549 b 58 308 121 365 107 329 b 39 207 11 289 0 238 b 67 82 88 169 75 128 b 24 -26 60 43 44 8 b 39 -107 7 -54 8 -86 b 124 -101 67 -126 97 -121 b 175 -18 151 -81 164 -49 b 226 175 197 44 214 110 b 275 233 232 204 242 229 b 706 257 418 250 561 274 b 782 167 778 247 781 243 b 814 -106 785 75 796 -15 b 850 -178 819 -133 826 -160 b 918 -179 872 -196 896 -197 b 936 -121 939 -165 949 -140 b 883 119 886 -47 899 39 b 919 218 876 161 875 196 b 949 275 939 229 947 251 z m 763 411 b 721 364 767 381 753 364 b 679 363 707 363 693 363 b 314 350 558 358 436 368 b 265 403 269 343 257 358 b 393 813 293 543 322 685 b 464 906 413 847 435 879 b 583 910 506 942 539 943 b 654 819 615 886 636 854 b 763 411 722 692 743 551 z m 296 1236 b 381 1142 299 1183 336 1140 b 469 1243 426 1142 469 1192 b 379 1329 469 1296 431 1332 b 296 1236 328 1326 294 1289 z m 540 1236 b 625 1142 543 1183 581 1140 b 714 1243 671 1142 714 1192 b 624 1329 714 1296 675 1332 b 540 1236 572 1326 539 1289 z "},"Å":{"ha":1032,"x_min":0,"x_max":0,"o":"m 949 275 b 910 335 946 301 933 325 b 857 428 865 353 861 388 b 776 826 844 564 825 697 b 661 996 751 893 714 950 b 364 989 563 1081 457 1079 b 251 815 313 940 281 879 b 129 410 192 686 160 549 b 58 308 121 365 107 329 b 39 207 11 289 0 238 b 67 82 88 169 75 128 b 24 -26 60 43 44 8 b 39 -107 7 -54 8 -86 b 124 -101 67 -126 97 -121 b 175 -18 151 -81 164 -49 b 226 175 197 44 214 110 b 275 233 232 204 242 229 b 706 257 418 250 561 274 b 782 167 778 247 781 243 b 814 -106 785 75 796 -15 b 850 -178 819 -133 826 -160 b 918 -179 872 -196 896 -197 b 936 -121 939 -165 949 -140 b 883 119 886 -47 899 39 b 919 218 876 161 875 196 b 949 275 939 229 947 251 z m 763 411 b 721 364 767 381 753 364 b 679 363 707 363 693 363 b 314 350 558 358 436 368 b 265 403 269 343 257 358 b 393 813 293 543 322 685 b 464 906 413 847 435 879 b 583 910 506 942 539 943 b 654 819 615 886 636 854 b 763 411 722 692 743 551 z m 504 1544 b 322 1363 401 1547 326 1474 b 499 1163 317 1254 394 1165 b 713 1363 610 1158 711 1254 b 504 1544 714 1463 624 1540 z m 513 1372 b 568 1360 532 1371 558 1393 b 504 1297 575 1333 535 1296 b 451 1349 472 1299 450 1318 b 513 1372 453 1397 493 1363 z "},"Æ":{"ha":1735,"x_min":0,"x_max":0,"o":"m 763 411 b 721 364 767 381 753 365 b 701 363 714 363 708 363 l 679 363 b 557 361 639 361 597 361 b 314 350 475 364 394 360 b 265 403 271 343 256 360 b 314 613 278 474 294 543 b 393 813 332 682 358 749 b 464 906 411 847 435 879 b 583 910 503 942 543 943 b 654 819 614 885 638 854 b 726 621 688 756 711 689 b 763 411 742 551 753 482 z m 942 -140 b 1085 -224 978 -185 1025 -212 b 1267 -218 1147 -235 1208 -233 b 1438 -157 1325 -204 1382 -183 b 1476 -115 1456 -149 1469 -135 b 1471 -47 1486 -89 1483 -67 b 1410 -18 1457 -28 1436 -18 b 1354 -36 1389 -19 1371 -26 b 1182 -94 1300 -65 1243 -85 b 1003 0 1096 -112 1036 -81 b 954 292 965 93 950 190 b 1010 351 956 328 974 347 b 1422 386 1146 372 1283 385 b 1483 376 1443 385 1464 382 b 1521 369 1496 374 1508 371 b 1589 404 1551 365 1574 376 b 1567 486 1601 438 1594 465 b 1489 511 1544 504 1518 513 l 1425 511 b 1224 500 1357 514 1290 510 b 1126 492 1192 496 1158 493 b 1010 481 1086 492 1047 488 b 965 522 978 474 964 488 b 969 585 967 543 968 564 b 986 771 971 647 976 708 b 1071 861 994 821 1022 851 b 1260 885 1133 872 1197 881 b 1450 872 1322 889 1386 885 b 1521 835 1478 868 1501 856 b 1628 828 1558 796 1594 793 b 1651 888 1643 846 1651 865 b 1624 947 1650 908 1642 929 b 1518 992 1593 974 1558 988 b 1511 993 1517 992 1514 992 b 1325 1010 1443 1007 1382 1013 b 957 972 1194 1008 1072 996 b 831 935 914 964 871 951 b 765 853 790 921 769 894 b 661 996 742 908 707 956 b 364 989 560 1081 460 1079 b 251 815 315 938 278 881 b 129 410 196 685 156 550 b 110 351 125 388 119 368 b 58 308 100 333 82 319 b 17 263 35 297 21 282 b 39 207 13 242 19 224 b 74 153 60 189 72 171 b 68 93 75 133 74 114 b 67 82 68 89 68 86 b 24 -26 60 44 44 8 b 39 -107 6 -57 10 -83 b 124 -101 68 -125 96 -124 b 175 -18 149 -79 165 -51 b 226 175 197 44 214 110 b 240 214 228 190 233 203 b 275 233 247 224 258 231 b 331 240 293 235 313 238 b 518 260 393 249 456 256 b 706 257 581 264 643 264 b 771 238 740 254 761 247 b 782 167 779 228 783 204 b 814 -106 785 75 796 -15 b 825 -144 817 -119 821 -132 b 850 -178 829 -157 838 -168 b 918 -179 872 -196 894 -196 b 940 -151 928 -172 936 -162 b 942 -140 942 -149 942 -144 z m 850 513 b 785 801 838 611 817 707 b 838 782 797 789 814 783 b 869 744 861 781 871 768 b 865 676 868 722 867 700 b 856 554 864 636 860 594 l 856 551 b 850 513 854 538 853 525 z "},"Ç":{"ha":915,"x_min":0,"x_max":0,"o":"m 383 -168 b 397 -172 388 -169 393 -171 l 414 -178 b 572 -283 474 -204 526 -239 b 565 -357 604 -310 603 -335 b 413 -418 519 -389 468 -408 b 369 -444 393 -422 379 -431 b 360 -490 360 -458 357 -474 b 432 -546 367 -526 390 -544 b 481 -536 449 -546 465 -543 b 671 -406 553 -506 617 -462 b 708 -315 696 -381 708 -350 b 679 -240 707 -286 697 -261 b 592 -156 651 -210 624 -182 b 729 -117 639 -147 683 -133 b 810 -60 763 -107 789 -87 b 801 39 832 -22 829 10 b 710 43 772 65 742 67 b 564 -22 664 10 615 -12 b 404 -40 513 -32 458 -39 b 200 28 322 -43 254 -21 b 113 240 146 76 117 147 b 343 800 108 458 186 646 b 418 851 364 821 389 839 b 474 864 442 863 460 867 b 518 828 488 860 503 849 b 526 815 521 824 524 819 b 536 801 529 811 532 806 b 639 774 571 764 604 756 b 656 885 674 799 679 836 b 424 983 601 972 525 1006 b 236 865 350 963 288 922 b 1 276 86 697 8 501 l 1 253 b 3 201 1 236 1 219 b 97 -36 10 108 42 29 b 314 -160 151 -101 224 -142 b 383 -168 338 -164 360 -167 z "},"È":{"ha":981,"x_min":0,"x_max":0,"o":"m 563 1010 b 194 972 429 1013 313 994 b 68 935 151 964 110 951 b 3 847 31 919 0 893 b 75 782 6 806 33 785 b 107 744 99 781 110 769 b 93 554 103 681 101 617 b 40 439 89 511 85 469 b 40 338 4 413 4 364 b 83 221 86 306 82 264 b 146 -86 89 115 100 11 b 322 -224 182 -162 243 -210 b 676 -157 447 -247 564 -210 b 714 -115 693 -150 707 -133 b 647 -18 733 -67 699 -17 b 593 -36 626 -18 610 -28 b 419 -94 539 -65 481 -83 b 240 0 332 -110 275 -82 b 192 292 200 93 189 192 b 247 351 193 329 210 347 b 660 386 383 369 521 388 b 758 369 694 385 725 374 b 826 404 788 365 813 375 b 804 486 842 438 829 464 b 726 511 782 504 756 511 b 463 500 639 510 550 517 b 247 481 392 488 318 497 b 203 522 217 474 201 489 b 224 771 208 606 208 689 b 308 861 233 819 260 854 b 688 872 435 882 561 897 b 758 835 715 867 738 857 b 865 828 794 794 833 794 b 861 947 897 861 896 911 b 756 992 832 975 793 985 b 563 1010 688 1004 619 1017 z m 558 1107 b 618 1182 596 1107 625 1144 b 576 1254 613 1211 594 1233 b 381 1468 511 1325 447 1399 b 274 1485 340 1511 303 1515 b 289 1368 243 1451 246 1396 b 494 1153 374 1311 431 1229 b 558 1107 513 1131 529 1110 z "},"É":{"ha":981,"x_min":0,"x_max":0,"o":"m 563 1010 b 194 972 429 1013 313 994 b 68 935 151 964 110 951 b 3 847 31 919 0 893 b 75 782 6 806 33 785 b 107 744 99 781 110 769 b 93 554 103 681 101 617 b 40 439 89 511 85 469 b 40 338 4 413 4 364 b 83 221 86 306 82 264 b 146 -86 89 115 100 11 b 322 -224 182 -162 243 -210 b 676 -157 447 -247 564 -210 b 714 -115 693 -150 707 -133 b 647 -18 733 -67 699 -17 b 593 -36 626 -18 610 -28 b 419 -94 539 -65 481 -83 b 240 0 332 -110 275 -82 b 192 292 200 93 189 192 b 247 351 193 329 210 347 b 660 386 383 369 521 388 b 758 369 694 385 725 374 b 826 404 788 365 813 375 b 804 486 842 438 829 464 b 726 511 782 504 756 511 b 463 500 639 510 550 517 b 247 481 392 488 318 497 b 203 522 217 474 201 489 b 224 771 208 606 208 689 b 308 861 233 819 260 854 b 688 872 435 882 561 897 b 758 835 715 867 738 857 b 865 828 794 794 833 794 b 861 947 897 861 896 911 b 756 992 832 975 793 985 b 563 1010 688 1004 619 1017 z m 349 1092 b 413 1138 378 1094 394 1115 b 618 1353 476 1214 533 1296 b 632 1469 661 1381 664 1436 b 526 1453 603 1500 567 1496 b 331 1239 460 1383 396 1310 b 289 1167 311 1218 294 1196 b 349 1092 282 1129 311 1092 z "},"Ê":{"ha":981,"x_min":0,"x_max":0,"o":"m 563 1010 b 194 972 429 1013 313 994 b 68 935 151 964 110 951 b 3 847 31 919 0 893 b 75 782 6 806 33 785 b 107 744 99 781 110 769 b 93 554 103 681 101 617 b 40 439 89 511 85 469 b 40 338 4 413 4 364 b 83 221 86 306 82 264 b 146 -86 89 115 100 11 b 322 -224 182 -162 243 -210 b 676 -157 447 -247 564 -210 b 714 -115 693 -150 707 -133 b 647 -18 733 -67 699 -17 b 593 -36 626 -18 610 -28 b 419 -94 539 -65 481 -83 b 240 0 332 -110 275 -82 b 192 292 200 93 189 192 b 247 351 193 329 210 347 b 660 386 383 369 521 388 b 758 369 694 385 725 374 b 826 404 788 365 813 375 b 804 486 842 438 829 464 b 726 511 782 504 756 511 b 463 500 639 510 550 517 b 247 481 392 488 318 497 b 203 522 217 474 201 489 b 224 771 208 606 208 689 b 308 861 233 819 260 854 b 688 872 435 882 561 897 b 758 835 715 867 738 857 b 865 828 794 794 833 794 b 861 947 897 861 896 911 b 756 992 832 975 793 985 b 563 1010 688 1004 619 1017 z m 769 1149 b 726 1204 768 1176 753 1197 b 611 1296 675 1218 644 1257 b 553 1365 592 1318 574 1343 b 344 1392 488 1432 424 1440 b 169 1206 269 1346 221 1274 b 172 1128 151 1182 154 1153 b 289 1133 201 1085 254 1085 b 372 1246 317 1171 340 1211 b 511 1242 440 1318 453 1318 b 604 1125 543 1203 572 1163 b 663 1081 621 1106 639 1088 b 769 1149 717 1061 772 1097 z "},"Ë":{"ha":981,"x_min":0,"x_max":0,"o":"m 563 1010 b 194 972 429 1013 313 994 b 68 935 151 964 110 951 b 3 847 31 919 0 893 b 75 782 6 806 33 785 b 107 744 99 781 110 769 b 93 554 103 681 101 617 b 40 439 89 511 85 469 b 40 338 4 413 4 364 b 83 221 86 306 82 264 b 146 -86 89 115 100 11 b 322 -224 182 -162 243 -210 b 676 -157 447 -247 564 -210 b 714 -115 693 -150 707 -133 b 647 -18 733 -67 699 -17 b 593 -36 626 -18 610 -28 b 419 -94 539 -65 481 -83 b 240 0 332 -110 275 -82 b 192 292 200 93 189 192 b 247 351 193 329 210 347 b 660 386 383 369 521 388 b 758 369 694 385 725 374 b 826 404 788 365 813 375 b 804 486 842 438 829 464 b 726 511 782 504 756 511 b 463 500 639 510 550 517 b 247 481 392 488 318 497 b 203 522 217 474 201 489 b 224 771 208 606 208 689 b 308 861 233 819 260 854 b 688 872 435 882 561 897 b 758 835 715 867 738 857 b 865 828 794 794 833 794 b 861 947 897 861 896 911 b 756 992 832 975 793 985 b 563 1010 688 1004 619 1017 z m 264 1157 b 349 1063 267 1104 304 1061 b 438 1164 394 1063 438 1113 b 347 1250 438 1217 399 1253 b 264 1157 296 1247 263 1210 z m 508 1157 b 593 1063 511 1104 549 1061 b 682 1164 639 1063 682 1113 b 592 1250 682 1217 643 1253 b 508 1157 540 1247 507 1210 z "},"Ì":{"ha":507,"x_min":0,"x_max":0,"o":"m 292 828 b 324 825 304 835 314 828 b 401 856 358 815 385 826 b 389 947 422 889 413 919 b 285 989 363 979 324 992 b 67 940 211 982 136 968 b 18 842 18 921 0 882 b 97 793 33 808 61 794 b 160 736 157 792 158 790 b 161 519 161 664 160 592 b 169 54 164 364 151 210 b 94 -72 179 -35 179 -35 b 58 -92 82 -78 68 -83 b 36 -165 35 -111 24 -136 b 99 -212 47 -194 68 -210 b 154 -199 119 -214 136 -208 b 331 -172 210 -168 268 -156 b 386 -168 350 -178 368 -178 b 421 -106 410 -154 424 -133 b 360 -36 418 -69 394 -47 b 290 -15 336 -29 306 -39 b 282 65 275 8 282 39 b 283 781 282 304 283 543 b 292 828 283 797 281 814 z m 317 1053 b 376 1128 354 1053 383 1090 b 335 1200 371 1157 353 1179 b 139 1414 269 1271 206 1344 b 32 1431 99 1457 61 1461 b 47 1314 1 1397 4 1342 b 253 1099 132 1257 189 1175 b 317 1053 271 1076 288 1056 z "},"Í":{"ha":507,"x_min":0,"x_max":0,"o":"m 292 828 b 324 825 304 835 314 828 b 401 856 358 815 385 826 b 389 947 422 889 413 919 b 285 989 363 979 324 992 b 67 940 211 982 136 968 b 18 842 18 921 0 882 b 97 793 33 808 61 794 b 160 736 157 792 158 790 b 161 519 161 664 160 592 b 169 54 164 364 151 210 b 94 -72 179 -35 179 -35 b 58 -92 82 -78 68 -83 b 36 -165 35 -111 24 -136 b 99 -212 47 -194 68 -210 b 154 -199 119 -214 136 -208 b 331 -172 210 -168 268 -156 b 386 -168 350 -178 368 -178 b 421 -106 410 -154 424 -133 b 360 -36 418 -69 394 -47 b 290 -15 336 -29 306 -39 b 282 65 275 8 282 39 b 283 781 282 304 283 543 b 292 828 283 797 281 814 z m 94 1019 b 158 1065 124 1022 140 1043 b 364 1281 222 1142 279 1224 b 378 1397 407 1308 410 1364 b 272 1381 349 1428 313 1424 b 76 1167 206 1311 142 1238 b 35 1094 57 1146 40 1124 b 94 1019 28 1057 57 1019 z "},"Î":{"ha":507,"x_min":0,"x_max":0,"o":"m 292 828 b 324 825 304 835 314 828 b 401 856 358 815 385 826 b 389 947 422 889 413 919 b 285 989 363 979 324 992 b 67 940 211 982 136 968 b 18 842 18 921 0 882 b 97 793 33 808 61 794 b 160 736 157 792 158 790 b 161 519 161 664 160 592 b 169 54 164 364 151 210 b 94 -72 179 -35 179 -35 b 58 -92 82 -78 68 -83 b 36 -165 35 -111 24 -136 b 99 -212 47 -194 68 -210 b 154 -199 119 -214 136 -208 b 331 -172 210 -168 268 -156 b 386 -168 350 -178 368 -178 b 421 -106 410 -154 424 -133 b 360 -36 418 -69 394 -47 b 290 -15 336 -29 306 -39 b 282 65 275 8 282 39 b 283 781 282 304 283 543 b 292 828 283 797 281 814 z m 535 1115 b 492 1171 533 1143 518 1164 b 376 1263 440 1185 410 1224 b 318 1332 357 1285 339 1310 b 110 1358 253 1399 189 1407 b -65 1172 35 1313 -14 1240 b -62 1094 -83 1149 -81 1119 b 54 1100 -33 1051 19 1051 b 138 1213 82 1138 106 1178 b 276 1208 206 1285 218 1285 b 369 1092 308 1169 338 1129 b 428 1047 386 1072 404 1054 b 535 1115 482 1028 538 1064 z "},"Ï":{"ha":507,"x_min":0,"x_max":0,"o":"m 292 828 b 324 825 304 835 314 828 b 401 856 358 815 385 826 b 389 947 422 889 413 919 b 285 989 363 979 324 992 b 67 940 211 982 136 968 b 18 842 18 921 0 882 b 97 793 33 808 61 794 b 160 736 157 792 158 790 b 161 519 161 664 160 592 b 169 54 164 364 151 210 b 94 -72 179 -35 179 -35 b 58 -92 82 -78 68 -83 b 36 -165 35 -111 24 -136 b 99 -212 47 -194 68 -210 b 154 -199 119 -214 136 -208 b 331 -172 210 -168 268 -156 b 386 -168 350 -178 368 -178 b 421 -106 410 -154 424 -133 b 360 -36 418 -69 394 -47 b 290 -15 336 -29 306 -39 b 282 65 275 8 282 39 b 283 781 282 304 283 543 b 292 828 283 797 281 814 z m 7 1150 b 92 1056 10 1097 47 1054 b 181 1157 138 1056 181 1106 b 90 1243 181 1210 142 1246 b 7 1150 39 1240 6 1203 z m 251 1150 b 336 1056 254 1097 292 1054 b 425 1157 382 1056 425 1106 b 335 1243 425 1210 386 1246 b 251 1150 283 1240 250 1203 z "},"Ð":{"ha":1124,"x_min":0,"x_max":0,"o":"m 288 335 b 308 483 293 385 300 433 b 382 764 324 579 347 674 b 385 771 383 765 383 768 b 403 810 390 783 396 797 b 607 856 451 914 519 929 b 882 358 769 726 861 560 b 738 46 876 231 828 126 b 536 -76 675 -8 608 -49 b 307 -136 463 -104 386 -124 b 239 -68 249 -147 226 -125 b 274 211 254 25 265 118 l 279 211 b 396 179 319 215 358 204 b 496 199 436 154 469 161 b 507 256 506 217 510 235 b 481 304 504 275 496 292 b 396 335 457 325 428 335 b 297 335 364 336 331 336 z m 136 333 b 115 332 129 332 122 332 b 114 372 115 346 115 358 b 110 618 108 454 107 536 b 151 858 113 699 126 779 b 143 921 158 881 156 901 b 96 957 131 940 114 953 b 18 879 53 961 28 936 b 17 867 17 875 17 871 b 1 706 8 813 3 760 b 1 322 0 578 0 450 b -140 300 -46 317 -93 308 b -214 240 -176 296 -201 275 b -186 167 -221 210 -211 185 b -87 167 -154 142 -121 142 b -17 193 -67 182 -43 190 b -11 194 -15 194 -12 194 l 3 197 b 33 -40 6 117 15 38 b 100 -190 47 -94 69 -144 b 125 -233 108 -206 117 -219 b 192 -278 140 -260 163 -274 b 276 -279 219 -282 247 -283 b 532 -222 364 -269 450 -250 b 763 -104 614 -196 690 -156 b 965 129 856 -39 922 39 b 1000 435 1008 219 1019 321 b 671 967 958 653 849 831 b 274 879 508 1088 375 1058 b 251 829 265 864 258 847 b 250 826 250 828 250 828 b 167 532 210 731 182 633 b 136 333 156 465 146 399 z "},"Ñ":{"ha":1040,"x_min":0,"x_max":0,"o":"m 146 207 b 119 621 114 343 119 482 b 163 758 119 671 128 717 b 160 881 194 797 190 843 b 44 868 124 924 71 918 b 26 788 32 843 29 815 b 31 174 0 583 8 378 b 78 -112 40 78 50 -19 b 163 -200 94 -175 121 -200 b 256 -110 208 -201 238 -175 b 285 53 271 -57 278 -1 b 382 524 303 213 326 372 b 576 840 425 643 488 750 b 646 900 597 863 621 883 b 771 858 704 936 746 922 b 793 771 783 831 789 801 b 782 199 821 579 794 389 b 779 -100 775 99 769 -1 b 846 -186 785 -140 801 -176 b 925 -150 879 -193 906 -176 b 926 -44 950 -115 957 -79 b 901 24 908 -25 901 -1 b 904 224 903 90 899 158 b 917 756 922 401 918 578 b 868 947 917 824 899 888 b 622 1043 818 1044 725 1079 b 485 953 569 1024 525 992 b 261 614 385 857 315 740 b 146 207 207 483 174 347 z m 622 1140 b 821 1285 703 1140 797 1210 b 794 1365 831 1318 822 1346 b 713 1358 765 1388 738 1381 b 686 1326 701 1350 694 1338 b 539 1313 629 1254 610 1251 b 393 1406 494 1350 450 1386 b 164 1303 308 1433 199 1385 b 201 1182 142 1253 160 1199 b 293 1249 243 1165 274 1188 b 390 1283 313 1307 340 1319 b 483 1201 424 1258 451 1228 b 622 1140 524 1167 568 1138 z "},"Ò":{"ha":1065,"x_min":0,"x_max":0,"o":"m 982 375 b 911 732 981 535 957 639 b 450 990 817 918 640 1018 b 18 604 246 963 56 792 b 114 376 0 510 29 422 b 196 231 176 342 194 300 b 275 -87 197 119 215 10 b 671 -199 361 -232 522 -278 b 810 -82 725 -169 771 -131 b 982 375 925 65 978 233 z m 514 414 b 374 415 467 414 419 411 b 319 482 329 418 313 438 b 375 678 331 549 328 619 b 390 782 397 707 397 744 b 432 849 379 831 386 839 b 754 713 563 875 678 826 b 833 479 801 642 822 563 b 786 429 838 440 819 428 b 514 414 696 429 606 401 z m 560 303 b 758 301 626 303 693 304 b 810 235 814 300 824 286 b 669 -25 782 139 742 49 b 575 -90 643 -53 613 -76 b 403 -53 510 -118 450 -107 b 314 275 322 42 307 156 b 361 306 315 304 338 306 b 560 306 428 304 494 306 b 560 303 560 304 560 303 z m 260 747 b 215 504 243 654 229 578 b 193 472 213 490 210 475 b 154 497 174 469 163 483 b 138 576 138 521 131 547 b 260 747 154 642 182 699 z m 618 1061 b 678 1136 656 1061 685 1099 b 636 1208 672 1165 654 1188 b 440 1422 571 1279 507 1353 b 333 1439 400 1465 363 1469 b 349 1322 303 1406 306 1350 b 554 1107 433 1265 490 1183 b 618 1061 572 1085 589 1064 z "},"Ó":{"ha":1065,"x_min":0,"x_max":0,"o":"m 982 375 b 911 732 981 535 957 639 b 450 990 817 918 640 1018 b 18 604 246 963 56 792 b 114 376 0 510 29 422 b 196 231 176 342 194 300 b 275 -87 197 119 215 10 b 671 -199 361 -232 522 -278 b 810 -82 725 -169 771 -131 b 982 375 925 65 978 233 z m 514 414 b 374 415 467 414 419 411 b 319 482 329 418 313 438 b 375 678 331 549 328 619 b 390 782 397 707 397 744 b 432 849 379 831 386 839 b 754 713 563 875 678 826 b 833 479 801 642 822 563 b 786 429 838 440 819 428 b 514 414 696 429 606 401 z m 560 303 b 758 301 626 303 693 304 b 810 235 814 300 824 286 b 669 -25 782 139 742 49 b 575 -90 643 -53 613 -76 b 403 -53 510 -118 450 -107 b 314 275 322 42 307 156 b 361 306 315 304 338 306 b 560 306 428 304 494 306 b 560 303 560 304 560 303 z m 260 747 b 215 504 243 654 229 578 b 193 472 213 490 210 475 b 154 497 174 469 163 483 b 138 576 138 521 131 547 b 260 747 154 642 182 699 z m 408 1058 b 472 1104 438 1061 454 1082 b 678 1319 536 1181 593 1263 b 692 1436 721 1347 724 1403 b 586 1419 663 1467 626 1463 b 390 1206 519 1350 456 1276 b 349 1133 371 1185 354 1163 b 408 1058 342 1096 371 1058 z "},"Ô":{"ha":1065,"x_min":0,"x_max":0,"o":"m 982 375 b 911 732 981 535 957 639 b 450 990 817 918 640 1018 b 18 604 246 963 56 792 b 114 376 0 510 29 422 b 196 231 176 342 194 300 b 275 -87 197 119 215 10 b 671 -199 361 -232 522 -278 b 810 -82 725 -169 771 -131 b 982 375 925 65 978 233 z m 514 414 b 374 415 467 414 419 411 b 319 482 329 418 313 438 b 375 678 331 549 328 619 b 390 782 397 707 397 744 b 432 849 379 831 386 839 b 754 713 563 875 678 826 b 833 479 801 642 822 563 b 786 429 838 440 819 428 b 514 414 696 429 606 401 z m 560 303 b 758 301 626 303 693 304 b 810 235 814 300 824 286 b 669 -25 782 139 742 49 b 575 -90 643 -53 613 -76 b 403 -53 510 -118 450 -107 b 314 275 322 42 307 156 b 361 306 315 304 338 306 b 560 306 428 304 494 306 b 560 303 560 304 560 303 z m 260 747 b 215 504 243 654 229 578 b 193 472 213 490 210 475 b 154 497 174 469 163 483 b 138 576 138 521 131 547 b 260 747 154 642 182 699 z m 856 1131 b 813 1186 854 1158 839 1179 b 697 1278 761 1200 731 1239 b 639 1347 678 1300 660 1325 b 431 1374 574 1414 510 1422 b 256 1188 356 1328 307 1256 b 258 1110 238 1164 240 1135 b 375 1115 288 1067 340 1067 b 458 1228 403 1153 426 1193 b 597 1224 526 1300 539 1300 b 690 1107 629 1185 658 1144 b 749 1063 707 1088 725 1069 b 856 1131 803 1043 858 1079 z "},"Õ":{"ha":1065,"x_min":0,"x_max":0,"o":"m 982 375 b 911 732 981 535 957 639 b 450 990 817 918 640 1018 b 18 604 246 963 56 792 b 114 376 0 510 29 422 b 196 231 176 342 194 300 b 275 -87 197 119 215 10 b 671 -199 361 -232 522 -278 b 810 -82 725 -169 771 -131 b 982 375 925 65 978 233 z m 514 414 b 374 415 467 414 419 411 b 319 482 329 418 313 438 b 375 678 331 549 328 619 b 390 782 397 707 397 744 b 432 849 379 831 386 839 b 754 713 563 875 678 826 b 833 479 801 642 822 563 b 786 429 838 440 819 428 b 514 414 696 429 606 401 z m 560 303 b 758 301 626 303 693 304 b 810 235 814 300 824 286 b 669 -25 782 139 742 49 b 575 -90 643 -53 613 -76 b 403 -53 510 -118 450 -107 b 314 275 322 42 307 156 b 361 306 315 304 338 306 b 560 306 428 304 494 306 b 560 303 560 304 560 303 z m 260 747 b 215 504 243 654 229 578 b 193 472 213 490 210 475 b 154 497 174 469 163 483 b 138 576 138 521 131 547 b 260 747 154 642 182 699 z m 686 1088 b 885 1232 767 1088 861 1157 b 858 1313 894 1265 886 1293 b 776 1306 829 1335 801 1328 b 750 1274 765 1297 758 1285 b 603 1260 693 1201 674 1199 b 457 1353 558 1297 514 1333 b 228 1250 372 1381 263 1332 b 265 1129 206 1200 224 1146 b 357 1196 307 1113 338 1135 b 454 1231 376 1254 404 1267 b 547 1149 488 1206 515 1175 b 686 1088 588 1114 632 1085 z "},"Ö":{"ha":1065,"x_min":0,"x_max":0,"o":"m 982 375 b 911 732 981 535 957 639 b 450 990 817 918 640 1018 b 18 604 246 963 56 792 b 114 376 0 510 29 422 b 196 231 176 342 194 300 b 275 -87 197 119 215 10 b 671 -199 361 -232 522 -278 b 810 -82 725 -169 771 -131 b 982 375 925 65 978 233 z m 514 414 b 374 415 467 414 419 411 b 319 482 329 418 313 438 b 375 678 331 549 328 619 b 390 782 397 707 397 744 b 432 849 379 831 386 839 b 754 713 563 875 678 826 b 833 479 801 642 822 563 b 786 429 838 440 819 428 b 514 414 696 429 606 401 z m 560 303 b 758 301 626 303 693 304 b 810 235 814 300 824 286 b 669 -25 782 139 742 49 b 575 -90 643 -53 613 -76 b 403 -53 510 -118 450 -107 b 314 275 322 42 307 156 b 361 306 315 304 338 306 b 560 306 428 304 494 306 b 560 303 560 304 560 303 z m 260 747 b 215 504 243 654 229 578 b 193 472 213 490 210 475 b 154 497 174 469 163 483 b 138 576 138 521 131 547 b 260 747 154 642 182 699 z m 319 1175 b 404 1081 322 1122 360 1079 b 493 1182 450 1081 493 1131 b 403 1268 493 1235 454 1271 b 319 1175 351 1265 318 1228 z m 564 1175 b 649 1081 567 1122 604 1079 b 738 1182 694 1081 738 1131 b 647 1268 738 1235 699 1271 b 564 1175 596 1265 563 1228 z "},"×":{"ha":726,"x_min":0,"x_max":0,"o":"m 547 157 b 382 243 493 151 407 196 b 390 286 372 261 378 275 b 488 349 418 314 450 335 b 543 443 526 364 544 401 b 504 501 543 469 529 490 b 408 469 464 518 436 496 b 325 389 382 443 354 415 b 225 397 278 347 269 347 b 161 472 204 422 186 451 b 57 478 124 507 83 507 b 64 372 32 451 35 410 b 124 329 81 353 104 344 b 135 210 182 286 183 263 b 29 94 99 172 57 139 b 44 -15 0 49 7 6 b 146 26 81 -35 125 -21 b 233 135 165 72 203 100 b 315 135 261 169 285 165 b 461 28 357 92 407 56 b 594 35 507 6 553 6 b 631 121 625 56 643 83 b 547 157 617 157 586 167 z "},"Ø":{"ha":1065,"x_min":0,"x_max":0,"o":"m 260 747 b 215 504 243 654 229 578 b 193 472 213 490 210 475 b 154 497 174 469 163 483 b 138 576 138 521 131 547 b 260 747 154 642 182 699 z m 719 757 b 754 713 731 743 743 729 b 833 479 799 642 825 564 b 786 429 838 443 821 426 b 672 419 749 428 710 425 b 625 414 657 417 642 415 b 719 757 660 542 690 657 z m 596 303 l 619 303 b 758 301 665 304 713 303 b 810 288 785 301 803 297 b 810 235 817 278 817 260 b 669 -25 786 136 739 50 b 575 -90 643 -54 611 -75 b 499 -104 549 -101 522 -106 b 539 71 511 -46 525 13 b 571 206 550 115 561 160 b 596 303 579 239 588 271 z m 397 -46 b 326 103 361 0 338 50 b 314 275 314 157 310 215 b 329 301 315 289 319 297 b 361 306 339 306 349 307 b 485 306 403 304 443 304 b 397 -46 453 178 424 61 z m 514 414 l 471 414 b 374 415 438 413 406 413 b 319 482 329 417 311 439 b 326 528 322 497 325 513 b 340 607 329 554 333 581 b 375 678 346 632 357 656 b 390 782 396 708 400 743 b 390 831 383 806 383 821 b 432 849 396 839 410 844 b 624 829 504 863 568 856 b 514 414 585 681 547 543 z m 469 -232 b 671 -199 535 -244 603 -233 b 810 -82 725 -169 772 -131 b 938 150 867 -7 910 71 b 982 375 965 229 981 304 b 911 732 981 528 957 647 b 764 911 872 807 822 867 b 840 1158 793 1014 819 1097 b 847 1249 850 1188 853 1218 b 804 1304 846 1276 831 1294 b 731 1279 775 1313 750 1304 b 697 1167 704 1244 693 1207 b 689 1063 704 1129 701 1094 b 682 1040 686 1056 683 1047 b 661 967 675 1015 668 992 b 450 990 596 993 525 1000 b 172 857 346 974 253 929 b 18 604 92 785 40 700 b 114 376 -1 504 31 428 b 196 231 172 344 200 296 b 275 -87 193 118 219 13 b 364 -186 300 -129 329 -162 b 321 -375 349 -254 333 -317 b 319 -382 321 -376 321 -379 b 311 -449 313 -404 310 -426 b 361 -506 314 -481 331 -500 b 426 -465 393 -508 414 -494 b 433 -432 431 -454 432 -443 b 457 -287 435 -383 443 -335 b 467 -246 461 -274 464 -260 z "},"Ù":{"ha":875,"x_min":0,"x_max":0,"o":"m 624 108 b 636 14 643 75 635 43 b 661 -133 639 -36 644 -86 b 756 -174 678 -176 719 -192 b 767 -89 785 -157 792 -128 b 743 -3 749 -61 744 -32 b 739 89 742 28 742 58 b 753 603 719 261 728 432 b 775 867 765 690 779 778 b 711 971 772 931 749 968 b 639 875 675 974 647 939 b 638 867 639 872 638 869 b 601 613 626 782 617 697 b 501 244 579 488 550 363 b 328 -15 463 146 411 53 b 157 24 251 -78 201 -64 b 114 243 124 93 114 168 b 175 767 114 419 117 596 b 149 883 189 807 181 850 b 88 888 132 900 107 901 b 42 779 50 861 32 822 b 35 647 51 733 42 690 b 3 158 6 486 0 322 b 58 -65 6 81 21 6 b 381 -158 129 -197 250 -232 b 564 32 461 -112 514 -43 b 624 108 581 57 589 88 z m 501 968 b 561 1043 539 968 568 1006 b 519 1115 556 1072 538 1094 b 324 1329 454 1186 390 1260 b 217 1346 283 1372 246 1376 b 232 1229 186 1313 189 1257 b 438 1014 317 1172 374 1090 b 501 968 456 992 472 971 z "},"Ú":{"ha":875,"x_min":0,"x_max":0,"o":"m 624 108 b 636 14 643 75 635 43 b 661 -133 639 -36 644 -86 b 756 -174 678 -176 719 -192 b 767 -89 785 -157 792 -128 b 743 -3 749 -61 744 -32 b 739 89 742 28 742 58 b 753 603 719 261 728 432 b 775 867 765 690 779 778 b 711 971 772 931 749 968 b 639 875 675 974 647 939 b 638 867 639 872 638 869 b 601 613 626 782 617 697 b 501 244 579 488 550 363 b 328 -15 463 146 411 53 b 157 24 251 -78 201 -64 b 114 243 124 93 114 168 b 175 767 114 419 117 596 b 149 883 189 807 181 850 b 88 888 132 900 107 901 b 42 779 50 861 32 822 b 35 647 51 733 42 690 b 3 158 6 486 0 322 b 58 -65 6 81 21 6 b 381 -158 129 -197 250 -232 b 564 32 461 -112 514 -43 b 624 108 581 57 589 88 z m 304 968 b 368 1014 333 971 350 992 b 574 1229 432 1090 489 1172 b 588 1346 617 1257 619 1313 b 482 1329 558 1376 522 1372 b 286 1115 415 1260 351 1186 b 244 1043 267 1094 250 1072 b 304 968 238 1006 267 968 z "},"Û":{"ha":875,"x_min":0,"x_max":0,"o":"m 624 108 b 636 14 643 75 635 43 b 661 -133 639 -36 644 -86 b 756 -174 678 -176 719 -192 b 767 -89 785 -157 792 -128 b 743 -3 749 -61 744 -32 b 739 89 742 28 742 58 b 753 603 719 261 728 432 b 775 867 765 690 779 778 b 711 971 772 931 749 968 b 639 875 675 974 647 939 b 638 867 639 872 638 869 b 601 613 626 782 617 697 b 501 244 579 488 550 363 b 328 -15 463 146 411 53 b 157 24 251 -78 201 -64 b 114 243 124 93 114 168 b 175 767 114 419 117 596 b 149 883 189 807 181 850 b 88 888 132 900 107 901 b 42 779 50 861 32 822 b 35 647 51 733 42 690 b 3 158 6 486 0 322 b 58 -65 6 81 21 6 b 381 -158 129 -197 250 -232 b 564 32 461 -112 514 -43 b 624 108 581 57 589 88 z m 678 1106 b 635 1161 676 1133 661 1154 b 519 1253 583 1175 553 1214 b 461 1322 500 1275 482 1300 b 253 1349 396 1389 332 1397 b 78 1163 178 1303 129 1231 b 81 1085 60 1139 63 1110 b 197 1090 110 1042 163 1042 b 281 1203 225 1128 249 1168 b 419 1199 349 1275 361 1275 b 513 1082 451 1160 481 1119 b 571 1038 529 1063 547 1044 b 678 1106 625 1018 681 1054 z "},"Ü":{"ha":875,"x_min":0,"x_max":0,"o":"m 624 108 b 636 14 643 75 635 43 b 661 -133 639 -36 644 -86 b 756 -174 678 -176 719 -192 b 767 -89 785 -157 792 -128 b 743 -3 749 -61 744 -32 b 739 89 742 28 742 58 b 753 603 719 261 728 432 b 775 867 765 690 779 778 b 711 971 772 931 749 968 b 639 875 675 974 647 939 b 638 867 639 872 638 869 b 601 613 626 782 617 697 b 501 244 579 488 550 363 b 328 -15 463 146 411 53 b 157 24 251 -78 201 -64 b 114 243 124 93 114 168 b 175 767 114 419 117 596 b 149 883 189 807 181 850 b 88 888 132 900 107 901 b 42 779 50 861 32 822 b 35 647 51 733 42 690 b 3 158 6 486 0 322 b 58 -65 6 81 21 6 b 381 -158 129 -197 250 -232 b 564 32 461 -112 514 -43 b 624 108 581 57 589 88 z m 182 1079 b 267 985 185 1026 222 983 b 356 1086 313 985 356 1035 b 265 1172 356 1139 317 1175 b 182 1079 214 1169 181 1132 z m 426 1079 b 511 985 429 1026 467 983 b 600 1086 557 985 600 1035 b 510 1172 600 1139 561 1175 b 426 1079 458 1169 425 1132 z "},"Ý":{"ha":938,"x_min":0,"x_max":0,"o":"m 403 161 b 422 -125 410 63 415 -31 b 450 -211 425 -156 432 -185 b 544 -240 472 -244 513 -256 b 567 -154 574 -225 582 -196 b 544 -92 558 -133 546 -115 b 532 306 540 40 531 174 b 571 454 532 356 531 414 b 835 1003 721 608 765 813 b 782 1107 854 1054 825 1099 b 700 1033 742 1114 714 1089 b 697 1018 699 1028 699 1022 b 524 604 654 874 604 732 b 272 590 450 486 361 482 b 156 792 222 650 182 717 b 125 868 147 817 138 843 b 50 906 110 897 85 914 b 3 844 19 899 6 875 b 26 733 0 806 0 764 b 140 560 72 681 101 617 b 363 386 194 478 260 406 b 415 306 410 376 417 344 b 403 161 413 256 407 207 z m 269 1019 b 333 1065 299 1022 315 1043 b 539 1281 397 1142 454 1224 b 553 1397 582 1308 585 1364 b 447 1381 524 1428 488 1424 b 251 1167 381 1311 317 1238 b 210 1094 232 1146 215 1124 b 269 1019 203 1057 232 1019 z "},"Þ":{"ha":1178,"x_min":0,"x_max":0,"o":"m 408 533 b 411 635 410 568 410 603 b 424 836 410 704 414 771 b 438 881 425 854 431 868 b 476 899 444 892 457 897 l 532 901 b 661 904 575 904 618 906 b 790 883 704 903 747 896 b 950 756 878 854 932 813 b 893 560 968 699 950 633 b 475 288 783 425 643 335 b 424 286 450 279 433 279 b 408 339 414 293 410 311 b 408 482 407 389 407 436 z m 421 1140 b 422 1160 421 1147 421 1153 b 429 1178 422 1167 425 1172 b 443 1181 433 1181 439 1182 b 454 1176 447 1179 450 1178 b 461 1175 457 1175 460 1175 b 539 1206 496 1165 521 1176 b 526 1297 557 1239 553 1269 b 422 1339 497 1329 463 1343 b 204 1290 347 1333 275 1317 b 156 1192 154 1268 138 1235 b 235 1143 171 1160 197 1143 b 289 1135 264 1144 282 1142 b 297 1086 296 1128 299 1113 b 297 981 299 1050 299 1015 b 300 786 300 864 301 799 l 300 776 b 300 399 301 653 301 528 l 300 265 b 283 274 293 268 288 271 b 263 283 275 278 268 281 b 189 265 233 296 208 290 b 175 188 168 242 164 217 b 238 139 188 158 208 142 b 292 114 265 138 283 129 b 303 54 299 99 303 78 b 318 -97 307 3 311 -47 b 321 -118 319 -104 319 -111 b 350 -204 322 -150 332 -178 b 400 -229 364 -219 381 -228 b 454 -212 419 -231 438 -225 b 482 -168 469 -200 478 -185 b 465 -125 485 -151 479 -137 b 418 -51 439 -103 424 -78 b 411 32 413 -25 410 3 l 411 57 b 413 118 410 85 410 106 b 433 147 414 131 421 140 b 488 168 444 153 463 160 b 900 396 640 217 778 293 b 1063 632 978 458 1032 536 b 981 900 1092 739 1065 829 b 778 993 921 949 854 981 b 449 1006 667 1014 557 1018 b 421 1001 439 1004 429 1003 z "},"ß":{"ha":938,"x_min":0,"x_max":0,"o":"m 647 -8 b 326 -42 540 -28 438 -68 b 233 -101 278 -31 242 -58 b 308 -181 226 -143 257 -175 b 333 -182 317 -182 325 -182 b 710 -126 461 -181 588 -160 b 806 -78 746 -118 778 -103 b 806 67 854 -32 854 21 b 704 122 778 94 742 110 b 554 169 656 139 604 153 b 471 349 442 208 429 236 b 547 524 494 408 521 465 b 643 815 590 618 625 714 b 581 982 657 896 635 957 b 404 946 514 1013 457 990 b 318 844 371 917 343 882 b 192 539 253 753 219 647 b 140 317 174 465 157 392 b 133 543 133 393 132 468 b 153 765 136 617 125 692 b 138 869 167 799 150 836 b 83 913 129 894 113 913 b 26 871 54 913 38 894 b 13 758 8 835 0 796 b 26 610 28 710 26 660 b 26 44 26 421 28 233 b 42 -96 26 -3 32 -50 b 110 -169 50 -133 68 -164 b 196 -115 153 -175 178 -150 b 233 3 214 -78 224 -37 b 350 547 272 185 310 367 b 469 810 371 643 408 732 b 518 835 481 824 489 846 b 463 631 514 764 489 697 b 354 379 428 546 388 464 b 501 51 285 200 324 117 b 647 -8 551 33 604 26 z "},"à":{"ha":822,"x_min":0,"x_max":0,"o":"m 553 369 b 507 375 532 361 519 369 b 289 388 436 408 363 410 b 28 29 143 344 26 181 b 246 -176 29 -101 117 -183 b 349 -149 282 -175 317 -164 b 543 -21 419 -115 485 -74 b 601 4 558 -7 571 15 b 622 -90 608 -26 615 -58 b 642 -146 628 -110 632 -129 b 704 -171 654 -169 676 -181 b 731 -111 733 -161 739 -137 b 694 201 704 -8 701 96 b 661 431 690 279 682 356 b 506 647 636 522 593 601 b 44 574 382 711 144 674 b 29 456 6 535 0 489 b 144 461 60 421 101 419 b 306 542 190 504 244 528 b 553 369 443 572 526 517 z m 226 -35 b 151 53 176 -35 149 -1 b 339 271 154 149 246 254 b 450 249 378 278 415 272 b 461 94 525 199 529 157 b 297 -17 413 49 360 10 b 226 -35 275 -28 251 -36 z m 468 769 b 528 844 506 769 535 807 b 486 917 522 874 504 896 b 290 1131 421 988 357 1061 b 183 1147 250 1174 213 1178 b 199 1031 153 1114 156 1058 b 404 815 283 974 340 892 b 468 769 422 793 439 772 z "},"á":{"ha":822,"x_min":0,"x_max":0,"o":"m 553 369 b 507 375 532 361 519 369 b 289 388 436 408 363 410 b 28 29 143 344 26 181 b 246 -176 29 -101 117 -183 b 349 -149 282 -175 317 -164 b 543 -21 419 -115 485 -74 b 601 4 558 -7 571 15 b 622 -90 608 -26 615 -58 b 642 -146 628 -110 632 -129 b 704 -171 654 -169 676 -181 b 731 -111 733 -161 739 -137 b 694 201 704 -8 701 96 b 661 431 690 279 682 356 b 506 647 636 522 593 601 b 44 574 382 711 144 674 b 29 456 6 535 0 489 b 144 461 60 421 101 419 b 306 542 190 504 244 528 b 553 369 443 572 526 517 z m 226 -35 b 151 53 176 -35 149 -1 b 339 271 154 149 246 254 b 450 249 378 278 415 272 b 461 94 525 199 529 157 b 297 -17 413 49 360 10 b 226 -35 275 -28 251 -36 z m 188 769 b 251 815 217 772 233 793 b 457 1031 315 892 372 974 b 471 1147 500 1058 503 1114 b 365 1131 442 1178 406 1174 b 169 917 299 1061 235 988 b 128 844 150 896 133 874 b 188 769 121 807 150 769 z "},"â":{"ha":822,"x_min":0,"x_max":0,"o":"m 553 369 b 507 375 532 361 519 369 b 289 388 436 408 363 410 b 28 29 143 344 26 181 b 246 -176 29 -101 117 -183 b 349 -149 282 -175 317 -164 b 543 -21 419 -115 485 -74 b 601 4 558 -7 571 15 b 622 -90 608 -26 615 -58 b 642 -146 628 -110 632 -129 b 704 -171 654 -169 676 -181 b 731 -111 733 -161 739 -137 b 694 201 704 -8 701 96 b 661 431 690 279 682 356 b 506 647 636 522 593 601 b 44 574 382 711 144 674 b 29 456 6 535 0 489 b 144 461 60 421 101 419 b 306 542 190 504 244 528 b 553 369 443 572 526 517 z m 226 -35 b 151 53 176 -35 149 -1 b 339 271 154 149 246 254 b 450 249 378 278 415 272 b 461 94 525 199 529 157 b 297 -17 413 49 360 10 b 226 -35 275 -28 251 -36 z m 706 831 b 663 886 704 858 689 879 b 547 978 611 900 581 939 b 489 1047 528 1000 510 1025 b 281 1074 424 1114 360 1122 b 106 888 206 1028 157 956 b 108 810 88 864 90 835 b 225 815 138 767 190 767 b 308 928 253 853 276 893 b 447 924 376 1000 389 1000 b 540 807 479 885 508 844 b 599 763 557 788 575 769 b 706 831 653 743 708 779 z "},"ã":{"ha":822,"x_min":0,"x_max":0,"o":"m 553 369 b 507 375 532 361 519 369 b 289 388 436 408 363 410 b 28 29 143 344 26 181 b 246 -176 29 -101 117 -183 b 349 -149 282 -175 317 -164 b 543 -21 419 -115 485 -74 b 601 4 558 -7 571 15 b 622 -90 608 -26 615 -58 b 642 -146 628 -110 632 -129 b 704 -171 654 -169 676 -181 b 731 -111 733 -161 739 -137 b 694 201 704 -8 701 96 b 661 431 690 279 682 356 b 506 647 636 522 593 601 b 44 574 382 711 144 674 b 29 456 6 535 0 489 b 144 461 60 421 101 419 b 306 542 190 504 244 528 b 553 369 443 572 526 517 z m 226 -35 b 151 53 176 -35 149 -1 b 339 271 154 149 246 254 b 450 249 378 278 415 272 b 461 94 525 199 529 157 b 297 -17 413 49 360 10 b 226 -35 275 -28 251 -36 z m 486 765 b 685 910 567 765 661 835 b 658 990 694 943 686 971 b 576 983 629 1013 601 1006 b 550 951 565 975 558 963 b 403 938 493 879 474 876 b 257 1031 358 975 314 1011 b 28 928 172 1058 63 1010 b 65 807 6 878 24 824 b 157 874 107 790 138 813 b 254 908 176 932 204 944 b 347 826 288 883 315 853 b 486 765 388 792 432 763 z "},"ä":{"ha":822,"x_min":0,"x_max":0,"o":"m 553 369 b 507 375 532 361 519 369 b 289 388 436 408 363 410 b 28 29 143 344 26 181 b 246 -176 29 -101 117 -183 b 349 -149 282 -175 317 -164 b 543 -21 419 -115 485 -74 b 601 4 558 -7 571 15 b 622 -90 608 -26 615 -58 b 642 -146 628 -110 632 -129 b 704 -171 654 -169 676 -181 b 731 -111 733 -161 739 -137 b 694 201 704 -8 701 96 b 661 431 690 279 682 356 b 506 647 636 522 593 601 b 44 574 382 711 144 674 b 29 456 6 535 0 489 b 144 461 60 421 101 419 b 306 542 190 504 244 528 b 553 369 443 572 526 517 z m 226 -35 b 151 53 176 -35 149 -1 b 339 271 154 149 246 254 b 450 249 378 278 415 272 b 461 94 525 199 529 157 b 297 -17 413 49 360 10 b 226 -35 275 -28 251 -36 z m 138 854 b 222 760 140 801 178 758 b 311 861 268 760 311 810 b 221 947 311 914 272 950 b 138 854 169 944 136 907 z m 382 854 b 467 760 385 801 422 758 b 556 861 513 760 556 810 b 465 947 556 914 517 950 b 382 854 414 944 381 907 z "},"å":{"ha":822,"x_min":0,"x_max":0,"o":"m 553 369 b 507 375 532 361 519 369 b 289 388 436 408 363 410 b 28 29 143 344 26 181 b 246 -176 29 -101 117 -183 b 349 -149 282 -175 317 -164 b 543 -21 419 -115 485 -74 b 601 4 558 -7 571 15 b 622 -90 608 -26 615 -58 b 642 -146 628 -110 632 -129 b 704 -171 654 -169 676 -181 b 731 -111 733 -161 739 -137 b 694 201 704 -8 701 96 b 661 431 690 279 682 356 b 506 647 636 522 593 601 b 44 574 382 711 144 674 b 29 456 6 535 0 489 b 144 461 60 421 101 419 b 306 542 190 504 244 528 b 553 369 443 572 526 517 z m 226 -35 b 151 53 176 -35 149 -1 b 339 271 154 149 246 254 b 450 249 378 278 415 272 b 461 94 525 199 529 157 b 297 -17 413 49 360 10 b 226 -35 275 -28 251 -36 z m 346 1138 b 164 956 243 1140 168 1067 b 340 756 158 847 236 758 b 554 956 451 751 553 847 b 346 1138 556 1056 465 1133 z m 354 965 b 410 953 374 964 400 986 b 346 890 417 926 376 889 b 293 942 314 892 292 911 b 354 965 294 990 335 956 z "},"æ":{"ha":1306,"x_min":0,"x_max":0,"o":"m 226 -35 b 151 53 175 -33 150 -4 b 211 192 154 103 174 149 b 339 271 249 233 290 260 b 450 249 379 278 415 271 b 461 94 525 203 529 151 b 297 -17 413 49 358 11 b 226 -35 275 -28 251 -33 z m 757 293 b 713 326 722 290 707 301 b 828 542 729 411 768 483 b 1019 624 888 600 951 628 l 1022 624 b 1074 614 1040 622 1058 618 b 1111 579 1089 608 1101 597 b 1114 532 1118 563 1119 547 b 1089 488 1107 517 1099 501 b 757 293 999 376 889 311 z m 735 -129 b 743 -136 738 -132 740 -135 b 1019 -240 811 -194 903 -229 b 1160 -235 1067 -247 1114 -246 b 1207 -203 1181 -228 1196 -218 b 1217 -154 1217 -187 1221 -172 b 1144 -100 1207 -117 1183 -99 b 1082 -99 1124 -99 1103 -99 l 1053 -99 l 1053 -100 l 1035 -100 b 994 -100 1022 -101 1008 -101 b 738 67 876 -94 790 -39 b 722 124 722 96 718 114 b 779 144 726 133 746 140 b 1176 354 933 174 1067 243 b 1254 472 1211 389 1236 428 b 1253 633 1275 532 1275 585 b 1129 739 1229 682 1189 717 b 990 754 1085 754 1039 760 b 665 535 847 733 739 660 b 642 489 657 519 649 504 b 607 557 632 513 621 535 b 506 647 583 594 549 624 b 267 672 439 679 360 688 b 44 574 174 657 100 625 b 29 456 4 532 0 493 b 144 461 61 419 100 421 b 306 542 190 503 244 529 b 553 369 443 574 526 515 b 529 367 543 365 536 365 b 511 374 522 368 517 369 b 507 375 510 374 508 374 b 289 388 436 407 363 411 b 103 250 214 364 151 318 b 28 29 54 182 29 108 b 89 -125 29 -36 50 -87 b 246 -176 128 -162 181 -179 b 349 -149 282 -175 317 -165 b 543 -21 419 -115 483 -72 b 551 -14 546 -19 549 -17 b 572 4 557 -7 564 0 b 601 4 579 8 589 8 b 607 -22 603 -4 606 -12 b 622 -90 611 -46 617 -68 b 642 -146 626 -110 632 -128 b 704 -171 656 -171 676 -179 b 732 -147 719 -167 728 -158 b 735 -129 733 -142 735 -136 z "},"ç":{"ha":872,"x_min":0,"x_max":0,"o":"m 363 -240 b 382 -247 369 -243 375 -246 l 399 -253 b 557 -358 458 -279 511 -314 b 550 -432 589 -385 588 -410 b 397 -493 504 -464 453 -483 b 354 -519 378 -497 364 -506 b 344 -565 344 -533 342 -549 b 417 -621 351 -601 375 -619 b 465 -611 433 -621 450 -618 b 656 -481 538 -581 601 -537 b 693 -390 681 -456 693 -425 b 664 -315 692 -361 682 -336 b 546 -206 628 -275 589 -237 b 749 -81 618 -176 686 -135 b 781 -24 768 -64 779 -44 b 760 29 782 -3 775 14 b 650 22 728 60 692 57 b 401 -104 578 -43 494 -85 b 164 8 292 -131 213 -93 b 133 122 146 46 136 83 b 131 239 129 160 129 199 l 131 244 b 129 271 131 253 131 261 b 131 328 129 289 129 308 b 193 536 132 429 153 499 b 406 588 233 574 304 590 b 485 576 435 589 461 585 b 547 522 508 568 529 550 b 606 493 563 500 582 490 b 663 533 628 496 647 510 b 653 642 683 571 681 607 b 563 699 629 671 599 689 b 425 718 517 711 471 718 b 285 711 378 718 331 715 b 267 710 279 711 274 711 l 244 707 b 193 706 228 704 211 704 b 108 700 156 713 126 711 b 64 629 90 689 75 665 b 14 385 39 550 22 468 b 43 7 -3 257 7 131 b 139 -158 64 -60 96 -115 b 308 -237 182 -201 238 -228 b 363 -240 326 -239 344 -240 z "},"è":{"ha":832,"x_min":0,"x_max":0,"o":"m 504 -99 b 504 -100 504 -100 504 -100 b 446 -100 485 -100 465 -101 b 189 67 326 -96 242 -37 b 231 144 160 126 161 132 b 628 354 383 175 518 240 b 704 472 661 389 688 428 b 581 739 749 588 697 697 b 442 754 536 754 489 761 b 117 535 296 736 192 657 b 36 336 78 474 65 400 b 36 119 0 258 10 197 b 471 -240 113 -107 233 -217 b 611 -235 517 -244 565 -249 b 668 -154 651 -222 675 -189 b 596 -100 660 -117 633 -100 b 504 -99 565 -99 535 -99 z m 208 293 b 164 326 171 289 160 303 b 469 624 190 492 339 638 b 561 579 507 619 544 617 b 539 488 578 546 560 515 b 208 293 453 375 336 314 z m 536 868 b 596 943 574 868 603 906 b 554 1015 590 972 572 994 b 358 1229 489 1086 425 1160 b 251 1246 318 1272 281 1276 b 267 1129 221 1213 224 1157 b 472 914 351 1072 408 990 b 536 868 490 892 507 871 z "},"é":{"ha":832,"x_min":0,"x_max":0,"o":"m 504 -99 b 504 -100 504 -100 504 -100 b 446 -100 485 -100 465 -101 b 189 67 326 -96 242 -37 b 231 144 160 126 161 132 b 628 354 383 175 518 240 b 704 472 661 389 688 428 b 581 739 749 588 697 697 b 442 754 536 754 489 761 b 117 535 296 736 192 657 b 36 336 78 474 65 400 b 36 119 0 258 10 197 b 471 -240 113 -107 233 -217 b 611 -235 517 -244 565 -249 b 668 -154 651 -222 675 -189 b 596 -100 660 -117 633 -100 b 504 -99 565 -99 535 -99 z m 208 293 b 164 326 171 289 160 303 b 469 624 190 492 339 638 b 561 579 507 619 544 617 b 539 488 578 546 560 515 b 208 293 453 375 336 314 z m 315 857 b 379 903 344 860 361 881 b 585 1118 443 979 500 1061 b 599 1235 628 1146 631 1201 b 493 1218 569 1265 533 1261 b 297 1004 426 1149 363 1075 b 256 932 278 983 261 961 b 315 857 249 894 278 857 z "},"ê":{"ha":832,"x_min":0,"x_max":0,"o":"m 504 -99 b 504 -100 504 -100 504 -100 b 446 -100 485 -100 465 -101 b 189 67 326 -96 242 -37 b 231 144 160 126 161 132 b 628 354 383 175 518 240 b 704 472 661 389 688 428 b 581 739 749 588 697 697 b 442 754 536 754 489 761 b 117 535 296 736 192 657 b 36 336 78 474 65 400 b 36 119 0 258 10 197 b 471 -240 113 -107 233 -217 b 611 -235 517 -244 565 -249 b 668 -154 651 -222 675 -189 b 596 -100 660 -117 633 -100 b 504 -99 565 -99 535 -99 z m 208 293 b 164 326 171 289 160 303 b 469 624 190 492 339 638 b 561 579 507 619 544 617 b 539 488 578 546 560 515 b 208 293 453 375 336 314 z m 735 938 b 692 993 733 965 718 986 b 576 1085 640 1007 610 1046 b 518 1154 557 1107 539 1132 b 310 1181 453 1221 389 1229 b 135 994 235 1135 186 1063 b 138 917 117 971 119 942 b 254 922 167 874 219 874 b 338 1035 282 960 306 1000 b 476 1031 406 1107 418 1107 b 569 914 508 992 538 951 b 628 869 586 894 604 876 b 735 938 682 850 738 886 z "},"ë":{"ha":832,"x_min":0,"x_max":0,"o":"m 504 -99 b 504 -100 504 -100 504 -100 b 446 -100 485 -100 465 -101 b 189 67 326 -96 242 -37 b 231 144 160 126 161 132 b 628 354 383 175 518 240 b 704 472 661 389 688 428 b 581 739 749 588 697 697 b 442 754 536 754 489 761 b 117 535 296 736 192 657 b 36 336 78 474 65 400 b 36 119 0 258 10 197 b 471 -240 113 -107 233 -217 b 611 -235 517 -244 565 -249 b 668 -154 651 -222 675 -189 b 596 -100 660 -117 633 -100 b 504 -99 565 -99 535 -99 z m 208 293 b 164 326 171 289 160 303 b 469 624 190 492 339 638 b 561 579 507 619 544 617 b 539 488 578 546 560 515 b 208 293 453 375 336 314 z m 236 946 b 321 851 239 893 276 850 b 410 953 367 851 410 901 b 319 1039 410 1006 371 1042 b 236 946 268 1036 235 999 z m 481 946 b 565 851 483 893 521 850 b 654 953 611 851 654 901 b 564 1039 654 1006 615 1042 b 481 946 513 1036 479 999 z "},"ì":{"ha":256,"x_min":0,"x_max":0,"o":"m 0 289 b 1 289 0 289 1 289 b 1 14 1 197 1 106 b 19 -108 0 -28 10 -68 b 74 -178 28 -139 43 -164 b 150 -165 103 -192 128 -186 b 157 -97 169 -146 172 -121 b 125 -22 143 -74 125 -53 b 143 549 126 168 110 358 b 76 669 154 615 126 667 b 0 563 29 672 1 633 b 0 289 0 471 0 379 z m 222 718 b 282 793 260 718 289 756 b 240 865 276 822 258 844 b 44 1079 175 936 111 1010 b -62 1096 4 1122 -33 1126 b -47 979 -93 1063 -90 1007 b 158 764 38 922 94 840 b 222 718 176 742 193 721 z "},"í":{"ha":256,"x_min":0,"x_max":0,"o":"m 0 289 b 1 289 0 289 1 289 b 1 14 1 197 1 106 b 19 -108 0 -28 10 -68 b 74 -178 28 -139 43 -164 b 150 -165 103 -192 128 -186 b 157 -97 169 -146 172 -121 b 125 -22 143 -74 125 -53 b 143 549 126 168 110 358 b 76 669 154 615 126 667 b 0 563 29 672 1 633 b 0 289 0 471 0 379 z m -62 754 b 1 800 -33 757 -17 778 b 207 1015 65 876 122 958 b 221 1132 250 1043 253 1099 b 115 1115 192 1163 156 1158 b -81 901 49 1046 -15 972 b -122 829 -100 881 -117 858 b -62 754 -129 792 -100 754 z "},"î":{"ha":256,"x_min":0,"x_max":0,"o":"m 0 289 b 1 289 0 289 1 289 b 1 14 1 197 1 106 b 19 -108 0 -28 10 -68 b 74 -178 28 -139 43 -164 b 150 -165 103 -192 128 -186 b 157 -97 169 -146 172 -121 b 125 -22 143 -74 125 -53 b 143 549 126 168 110 358 b 76 669 154 615 126 667 b 0 563 29 672 1 633 b 0 289 0 471 0 379 z m 414 811 b 371 867 413 839 397 860 b 256 958 319 881 289 919 b 197 1028 236 981 218 1006 b -11 1054 132 1094 68 1103 b -186 868 -86 1008 -135 936 b -183 790 -204 844 -201 815 b -67 796 -154 747 -101 747 b 17 908 -39 833 -15 874 b 156 904 85 981 97 981 b 249 788 188 865 217 825 b 307 743 265 768 283 750 b 414 811 361 724 417 760 z "},"ï":{"ha":256,"x_min":0,"x_max":0,"o":"m 0 289 b 1 289 0 289 1 289 b 1 14 1 197 1 106 b 19 -108 0 -28 10 -68 b 74 -178 28 -139 43 -164 b 150 -165 103 -192 128 -186 b 157 -97 169 -146 172 -121 b 125 -22 143 -74 125 -53 b 143 549 126 168 110 358 b 76 669 154 615 126 667 b 0 563 29 672 1 633 b 0 289 0 471 0 379 z m -118 872 b -33 778 -115 819 -78 776 b 56 879 13 778 56 828 b -35 965 56 932 17 968 b -118 872 -86 963 -119 925 z m 126 872 b 211 778 129 819 167 776 b 300 879 257 778 300 828 b 210 965 300 932 261 968 b 126 872 158 963 125 925 z "},"ð":{"ha":917,"x_min":0,"x_max":0,"o":"m 126 142 b 265 475 136 265 175 381 b 472 433 344 556 426 538 b 463 247 501 368 506 310 b 281 14 408 164 358 78 b 132 71 196 -56 147 -36 b 126 142 128 93 129 115 z m 801 775 b 835 774 813 775 824 774 l 871 774 b 988 742 911 778 950 767 b 1088 761 1028 717 1061 724 b 1099 818 1097 779 1101 797 b 1072 867 1096 838 1088 854 b 988 897 1049 888 1019 897 b 889 897 956 899 922 899 l 817 897 b 825 981 821 925 824 953 b 778 1049 829 1015 813 1039 b 706 1008 743 1056 718 1042 b 688 936 697 985 692 961 b 681 893 685 922 682 907 b 451 863 603 888 528 876 b 378 803 415 858 390 838 b 406 729 371 772 381 747 b 504 729 438 704 471 704 b 575 756 525 744 549 753 b 581 757 576 757 579 757 b 656 768 606 761 631 765 b 619 619 644 718 632 668 b 615 603 618 614 617 608 b 607 572 614 593 611 582 b 588 547 603 563 597 554 b 567 551 579 546 572 547 b 553 564 561 556 557 560 l 544 572 b 197 567 426 675 311 674 b 129 485 171 542 149 514 b 8 151 63 383 22 272 b 33 -53 -1 82 7 14 b 271 -157 83 -156 163 -190 b 404 -74 321 -139 365 -111 b 556 132 467 -14 517 56 b 631 283 579 181 604 231 b 669 363 643 308 656 335 b 668 333 669 350 669 340 b 667 303 668 321 668 311 b 672 -128 649 160 651 15 b 719 -222 675 -165 690 -197 b 765 -235 733 -232 749 -236 b 808 -211 782 -233 796 -225 b 825 -172 818 -199 824 -185 b 804 -139 825 -160 818 -149 b 768 -89 785 -125 772 -108 b 761 -29 764 -71 761 -50 b 801 775 758 239 772 507 z "},"ñ":{"ha":988,"x_min":0,"x_max":0,"o":"m 136 143 b 135 500 114 264 89 382 b 118 608 150 540 147 576 b 51 625 100 629 76 638 b 6 535 13 608 6 572 b 24 -79 0 329 4 125 b 46 -185 26 -115 35 -151 b 111 -242 56 -215 76 -237 b 193 -197 149 -246 176 -229 b 218 -136 203 -178 211 -157 b 261 17 233 -85 246 -35 b 492 510 313 192 372 365 b 575 590 517 540 542 569 b 683 571 619 618 651 613 b 718 506 699 551 710 529 b 758 146 761 389 778 271 b 721 -92 746 67 743 -14 b 718 -107 719 -96 718 -101 b 778 -186 717 -147 742 -182 b 853 -135 817 -192 844 -169 b 885 44 868 -76 878 -17 b 843 546 904 214 901 382 b 403 628 758 783 568 819 b 185 265 310 519 239 397 b 136 143 168 225 153 185 z m 604 856 b 803 1000 685 856 779 925 b 776 1081 813 1033 804 1061 b 694 1074 747 1103 719 1096 b 668 1042 683 1065 676 1053 b 521 1028 611 969 592 967 b 375 1121 476 1065 432 1101 b 146 1018 290 1149 181 1100 b 183 897 124 968 142 914 b 275 964 225 881 256 903 b 372 999 294 1022 322 1035 b 465 917 406 974 433 943 b 604 856 506 882 550 853 z "},"ò":{"ha":901,"x_min":0,"x_max":0,"o":"m 818 232 b 756 493 815 332 796 415 b 92 569 601 790 244 767 b 122 214 0 450 7 311 b 175 93 163 179 182 146 b 175 44 174 78 175 60 b 588 -181 183 -185 393 -300 b 818 232 744 -85 810 65 z m 200 328 b 207 522 144 400 149 458 b 544 551 285 604 454 621 b 676 251 639 479 682 382 b 531 274 628 292 579 285 b 374 267 479 261 426 265 b 325 288 354 267 333 264 b 342 333 319 306 331 321 b 375 368 353 346 367 356 b 357 471 399 404 390 450 b 258 442 322 493 281 481 b 200 328 238 407 239 360 z m 678 194 b 510 -60 654 74 601 -7 b 353 -62 458 -89 403 -100 b 288 100 301 -24 286 38 b 335 129 288 132 311 133 b 565 144 413 114 489 135 b 678 194 601 149 636 158 z m 538 810 b 597 885 575 810 604 847 b 556 957 592 914 574 936 b 360 1171 490 1028 426 1101 b 253 1188 319 1214 282 1218 b 268 1071 222 1154 225 1099 b 474 856 353 1014 410 932 b 538 810 492 833 508 813 z "},"ó":{"ha":901,"x_min":0,"x_max":0,"o":"m 818 232 b 756 493 815 332 796 415 b 92 569 601 790 244 767 b 122 214 0 450 7 311 b 175 93 163 179 182 146 b 175 44 174 78 175 60 b 588 -181 183 -185 393 -300 b 818 232 744 -85 810 65 z m 200 328 b 207 522 144 400 149 458 b 544 551 285 604 454 621 b 676 251 639 479 682 382 b 531 274 628 292 579 285 b 374 267 479 261 426 265 b 325 288 354 267 333 264 b 342 333 319 306 331 321 b 375 368 353 346 367 356 b 357 471 399 404 390 450 b 258 442 322 493 281 481 b 200 328 238 407 239 360 z m 678 194 b 510 -60 654 74 601 -7 b 353 -62 458 -89 403 -100 b 288 100 301 -24 286 38 b 335 129 288 132 311 133 b 565 144 413 114 489 135 b 678 194 601 149 636 158 z m 288 828 b 351 874 317 831 333 851 b 557 1089 415 950 472 1032 b 571 1206 600 1117 603 1172 b 465 1189 542 1236 506 1232 b 269 975 399 1119 335 1046 b 228 903 250 954 233 932 b 288 828 221 865 250 828 z "},"ô":{"ha":901,"x_min":0,"x_max":0,"o":"m 818 232 b 756 493 815 332 796 415 b 92 569 601 790 244 767 b 122 214 0 450 7 311 b 175 93 163 179 182 146 b 175 44 174 78 175 60 b 588 -181 183 -185 393 -300 b 818 232 744 -85 810 65 z m 200 328 b 207 522 144 400 149 458 b 544 551 285 604 454 621 b 676 251 639 479 682 382 b 531 274 628 292 579 285 b 374 267 479 261 426 265 b 325 288 354 267 333 264 b 342 333 319 306 331 321 b 375 368 353 346 367 356 b 357 471 399 404 390 450 b 258 442 322 493 281 481 b 200 328 238 407 239 360 z m 678 194 b 510 -60 654 74 601 -7 b 353 -62 458 -89 403 -100 b 288 100 301 -24 286 38 b 335 129 288 132 311 133 b 565 144 413 114 489 135 b 678 194 601 149 636 158 z m 753 868 b 710 924 751 896 736 917 b 594 1015 658 938 628 976 b 536 1085 575 1038 557 1063 b 328 1111 471 1151 407 1160 b 153 925 253 1065 204 993 b 156 847 135 901 138 872 b 272 853 185 804 238 804 b 356 965 300 890 324 931 b 494 961 424 1038 436 1038 b 588 844 526 922 556 882 b 646 800 604 825 622 807 b 753 868 700 781 756 817 z "},"õ":{"ha":901,"x_min":0,"x_max":0,"o":"m 818 232 b 756 493 815 332 796 415 b 92 569 601 790 244 767 b 122 214 0 450 7 311 b 175 93 163 179 182 146 b 175 44 174 78 175 60 b 588 -181 183 -185 393 -300 b 818 232 744 -85 810 65 z m 200 328 b 207 522 144 400 149 458 b 544 551 285 604 454 621 b 676 251 639 479 682 382 b 531 274 628 292 579 285 b 374 267 479 261 426 265 b 325 288 354 267 333 264 b 342 333 319 306 331 321 b 375 368 353 346 367 356 b 357 471 399 404 390 450 b 258 442 322 493 281 481 b 200 328 238 407 239 360 z m 678 194 b 510 -60 654 74 601 -7 b 353 -62 458 -89 403 -100 b 288 100 301 -24 286 38 b 335 129 288 132 311 133 b 565 144 413 114 489 135 b 678 194 601 149 636 158 z m 544 792 b 743 936 625 792 719 861 b 717 1017 753 969 744 997 b 635 1010 688 1039 660 1032 b 608 978 624 1001 617 989 b 461 964 551 906 532 903 b 315 1057 417 1001 372 1038 b 86 954 231 1085 121 1036 b 124 833 64 904 82 850 b 215 900 165 817 196 839 b 313 935 235 958 263 971 b 406 853 346 910 374 879 b 544 792 446 818 490 789 z "},"ö":{"ha":901,"x_min":0,"x_max":0,"o":"m 818 232 b 756 493 815 332 796 415 b 92 569 601 790 244 767 b 122 214 0 450 7 311 b 175 93 163 179 182 146 b 175 44 174 78 175 60 b 588 -181 183 -185 393 -300 b 818 232 744 -85 810 65 z m 200 328 b 207 522 144 400 149 458 b 544 551 285 604 454 621 b 676 251 639 479 682 382 b 531 274 628 292 579 285 b 374 267 479 261 426 265 b 325 288 354 267 333 264 b 342 333 319 306 331 321 b 375 368 353 346 367 356 b 357 471 399 404 390 450 b 258 442 322 493 281 481 b 200 328 238 407 239 360 z m 678 194 b 510 -60 654 74 601 -7 b 353 -62 458 -89 403 -100 b 288 100 301 -24 286 38 b 335 129 288 132 311 133 b 565 144 413 114 489 135 b 678 194 601 149 636 158 z m 214 865 b 299 771 217 813 254 769 b 388 872 344 771 388 821 b 297 958 388 925 349 961 b 214 865 246 956 213 918 z m 458 865 b 543 771 461 813 499 769 b 632 872 589 771 632 821 b 542 958 632 925 593 961 b 458 865 490 956 457 918 z "},"÷":{"ha":822,"x_min":0,"x_max":0,"o":"m 478 335 b 82 300 344 339 213 322 b 8 240 47 293 18 276 b 36 167 0 210 13 186 b 135 167 68 142 103 142 b 211 194 158 185 185 189 b 501 211 307 215 404 211 b 618 179 543 211 581 207 b 718 199 656 151 694 163 b 703 304 739 232 733 279 b 618 335 679 325 650 335 b 478 335 571 336 525 335 z m 371 67 b 297 6 331 69 300 43 b 364 -72 293 -33 325 -71 b 439 0 403 -74 439 -39 b 371 67 439 36 408 65 z m 371 556 b 297 494 331 558 300 532 b 364 417 293 456 325 418 b 439 489 403 415 439 450 b 371 556 439 525 408 554 z "},"ø":{"ha":901,"x_min":0,"x_max":0,"o":"m 425 265 l 407 265 l 374 267 l 371 267 b 344 269 361 265 353 267 b 325 288 335 271 329 278 b 326 313 322 297 322 306 b 342 333 331 319 335 326 b 356 347 346 338 350 343 b 375 368 363 354 369 361 b 388 425 388 386 392 406 b 357 471 383 444 374 460 b 304 479 339 482 322 485 b 258 442 286 474 271 461 b 242 400 251 429 246 415 b 228 363 238 388 233 375 b 200 328 221 350 213 338 b 207 522 146 397 147 463 b 371 594 250 564 304 588 b 504 574 419 599 464 592 b 425 265 476 467 450 363 z m 346 -57 b 288 100 303 -15 283 38 b 303 129 289 115 293 125 b 335 129 313 132 322 132 b 390 125 353 126 372 125 b 346 -57 375 63 360 1 z m 507 136 l 508 136 b 565 144 528 139 547 142 b 678 194 600 146 638 163 b 510 -60 656 76 600 -8 b 456 -82 492 -69 474 -78 b 460 -62 457 -75 458 -69 b 492 72 469 -18 481 26 b 507 136 497 94 501 115 z m 599 501 b 676 251 654 436 681 353 b 604 282 653 271 628 281 b 542 276 583 283 563 281 b 599 501 561 357 581 432 z m 421 -229 b 588 -181 474 -229 529 -214 b 760 0 665 -132 722 -71 b 818 232 796 71 815 147 b 756 493 817 331 796 417 b 635 640 721 556 682 604 b 729 950 671 771 701 874 b 736 1040 739 979 742 1010 b 693 1096 735 1068 719 1086 b 619 1071 663 1104 638 1096 b 586 958 593 1036 582 999 b 578 854 593 921 590 886 b 571 832 575 847 572 839 b 535 694 558 785 547 739 b 299 704 456 722 376 725 b 92 569 214 681 146 636 b 31 383 46 508 26 446 b 122 214 35 321 65 264 b 175 93 163 182 181 142 b 175 54 174 81 174 67 l 175 44 b 311 -199 183 -72 229 -153 l 313 -199 b 242 -508 286 -312 263 -415 b 240 -515 240 -510 240 -512 b 232 -582 233 -537 231 -560 b 282 -639 235 -614 251 -633 b 347 -599 314 -642 335 -628 b 353 -567 351 -589 353 -578 b 378 -421 356 -517 364 -468 b 388 -379 382 -407 385 -393 b 414 -261 397 -340 406 -301 b 421 -229 417 -250 418 -239 z "},"ù":{"ha":824,"x_min":0,"x_max":0,"o":"m 561 147 b 574 146 565 147 569 147 b 574 67 574 119 575 93 b 597 -106 572 8 579 -50 b 689 -154 611 -150 651 -168 b 718 -58 726 -140 740 -103 b 694 29 703 -29 694 -1 b 708 594 696 218 689 406 b 704 685 713 624 715 656 b 649 728 694 710 676 726 b 593 694 624 729 606 715 b 569 617 579 671 575 643 b 350 90 532 426 460 250 b 274 4 328 58 304 28 b 176 21 232 -28 203 -22 b 149 90 164 42 156 67 b 115 336 128 171 115 253 b 158 453 115 381 111 425 b 179 497 172 461 179 479 b 132 653 181 554 164 607 b 44 643 108 689 67 682 b 25 556 28 617 25 586 b 18 381 24 497 28 438 b 40 43 0 267 21 154 b 86 -72 49 3 63 -37 b 325 -132 144 -160 231 -182 b 468 4 385 -100 429 -51 b 561 147 500 51 531 100 z m 464 803 b 524 878 501 803 531 840 b 482 950 518 907 500 929 b 286 1164 417 1021 353 1094 b 179 1181 246 1207 208 1211 b 194 1064 149 1147 151 1092 b 400 849 279 1007 336 925 b 464 803 418 826 435 806 z "},"ú":{"ha":824,"x_min":0,"x_max":0,"o":"m 561 147 b 574 146 565 147 569 147 b 574 67 574 119 575 93 b 597 -106 572 8 579 -50 b 689 -154 611 -150 651 -168 b 718 -58 726 -140 740 -103 b 694 29 703 -29 694 -1 b 708 594 696 218 689 406 b 704 685 713 624 715 656 b 649 728 694 710 676 726 b 593 694 624 729 606 715 b 569 617 579 671 575 643 b 350 90 532 426 460 250 b 274 4 328 58 304 28 b 176 21 232 -28 203 -22 b 149 90 164 42 156 67 b 115 336 128 171 115 253 b 158 453 115 381 111 425 b 179 497 172 461 179 479 b 132 653 181 554 164 607 b 44 643 108 689 67 682 b 25 556 28 617 25 586 b 18 381 24 497 28 438 b 40 43 0 267 21 154 b 86 -72 49 3 63 -37 b 325 -132 144 -160 231 -182 b 468 4 385 -100 429 -51 b 561 147 500 51 531 100 z m 272 768 b 336 814 301 771 318 792 b 542 1029 400 890 457 972 b 556 1146 585 1057 588 1113 b 450 1129 526 1176 490 1172 b 254 915 383 1060 319 986 b 213 843 235 894 218 872 b 272 768 206 806 235 768 z "},"û":{"ha":824,"x_min":0,"x_max":0,"o":"m 561 147 b 574 146 565 147 569 147 b 574 67 574 119 575 93 b 597 -106 572 8 579 -50 b 689 -154 611 -150 651 -168 b 718 -58 726 -140 740 -103 b 694 29 703 -29 694 -1 b 708 594 696 218 689 406 b 704 685 713 624 715 656 b 649 728 694 710 676 726 b 593 694 624 729 606 715 b 569 617 579 671 575 643 b 350 90 532 426 460 250 b 274 4 328 58 304 28 b 176 21 232 -28 203 -22 b 149 90 164 42 156 67 b 115 336 128 171 115 253 b 158 453 115 381 111 425 b 179 497 172 461 179 479 b 132 653 181 554 164 607 b 44 643 108 689 67 682 b 25 556 28 617 25 586 b 18 381 24 497 28 438 b 40 43 0 267 21 154 b 86 -72 49 3 63 -37 b 325 -132 144 -160 231 -182 b 468 4 385 -100 429 -51 b 561 147 500 51 531 100 z m 669 867 b 626 922 668 894 653 915 b 511 1014 575 936 544 975 b 453 1083 492 1036 474 1061 b 244 1110 388 1150 324 1158 b 69 924 169 1064 121 992 b 72 846 51 900 54 871 b 189 851 101 803 154 803 b 272 964 217 889 240 929 b 411 960 340 1036 353 1036 b 504 843 443 921 472 881 b 563 799 521 824 539 806 b 669 867 617 779 672 815 z "},"ü":{"ha":824,"x_min":0,"x_max":0,"o":"m 561 147 b 574 146 565 147 569 147 b 574 67 574 119 575 93 b 597 -106 572 8 579 -50 b 689 -154 611 -150 651 -168 b 718 -58 726 -140 740 -103 b 694 29 703 -29 694 -1 b 708 594 696 218 689 406 b 704 685 713 624 715 656 b 649 728 694 710 676 726 b 593 694 624 729 606 715 b 569 617 579 671 575 643 b 350 90 532 426 460 250 b 274 4 328 58 304 28 b 176 21 232 -28 203 -22 b 149 90 164 42 156 67 b 115 336 128 171 115 253 b 158 453 115 381 111 425 b 179 497 172 461 179 479 b 132 653 181 554 164 607 b 44 643 108 689 67 682 b 25 556 28 617 25 586 b 18 381 24 497 28 438 b 40 43 0 267 21 154 b 86 -72 49 3 63 -37 b 325 -132 144 -160 231 -182 b 468 4 385 -100 429 -51 b 561 147 500 51 531 100 z m 160 871 b 244 776 163 818 200 775 b 333 878 290 776 333 826 b 243 964 333 931 294 967 b 160 871 192 961 158 924 z m 404 871 b 489 776 407 818 444 775 b 578 878 535 776 578 826 b 488 964 578 931 539 967 b 404 871 436 961 403 924 z "},"ý":{"ha":926,"x_min":0,"x_max":0,"o":"m 703 283 b 703 96 703 211 701 154 b 643 -244 706 -22 689 -136 b 558 -357 624 -289 596 -326 b 467 -358 529 -381 506 -396 b 344 -394 421 -312 367 -333 b 365 -501 331 -433 336 -471 b 488 -535 399 -537 440 -549 b 746 -318 604 -500 696 -433 b 792 -176 765 -272 779 -224 b 799 401 843 15 825 208 b 776 532 793 444 794 490 b 651 550 750 590 692 600 b 603 464 631 525 617 494 b 392 107 543 338 476 218 b 307 28 368 76 342 47 b 213 47 267 7 240 11 b 169 128 196 72 181 99 b 125 371 140 206 126 288 b 143 560 124 435 122 497 b 106 688 158 604 146 654 b 43 689 88 703 63 704 b 10 568 6 657 0 613 b 19 418 22 518 21 468 b 38 196 17 343 25 269 b 121 -37 51 113 74 33 b 351 -108 175 -122 260 -147 b 490 -4 407 -85 451 -49 b 639 206 549 60 594 132 b 703 283 651 229 658 258 z m 268 686 b 332 732 297 689 314 710 b 538 947 396 808 453 890 b 551 1064 581 975 583 1031 b 446 1047 522 1094 486 1090 b 250 833 379 978 315 904 b 208 761 231 813 214 790 b 268 686 201 724 231 686 z "},"þ":{"ha":964,"x_min":0,"x_max":0,"o":"m 114 206 b 119 722 114 233 113 261 b 136 833 121 760 107 804 b 154 1058 210 906 174 982 b 88 1110 146 1090 124 1114 b 31 1049 53 1107 35 1081 b 13 908 22 1001 14 956 b 6 -365 0 194 0 -85 b 28 -487 7 -407 15 -447 b 94 -540 39 -518 60 -539 b 172 -490 133 -543 160 -524 b 194 -403 183 -462 190 -432 b 213 -212 201 -339 207 -275 b 281 -143 218 -150 218 -147 b 497 -92 356 -139 428 -119 b 615 690 815 35 881 472 b 588 710 607 697 597 704 b 360 693 506 763 433 757 b 240 536 308 650 271 596 b 114 206 186 429 151 315 z m 651 300 b 517 60 642 196 604 114 b 329 -3 460 24 396 4 b 243 78 275 -10 238 24 b 394 531 261 239 304 393 b 419 563 401 542 411 553 b 561 558 474 622 511 622 b 651 300 622 482 643 390 z "},"ÿ":{"ha":926,"x_min":0,"x_max":0,"o":"m 703 283 b 703 96 703 211 701 154 b 643 -244 706 -22 689 -136 b 558 -357 624 -289 596 -326 b 467 -358 529 -381 506 -396 b 344 -394 421 -312 367 -333 b 365 -501 331 -433 336 -471 b 488 -535 399 -537 440 -549 b 746 -318 604 -500 696 -433 b 792 -176 765 -272 779 -224 b 799 401 843 15 825 208 b 776 532 793 444 794 490 b 651 550 750 590 692 600 b 603 464 631 525 617 494 b 392 107 543 338 476 218 b 307 28 368 76 342 47 b 213 47 267 7 240 11 b 169 128 196 72 181 99 b 125 371 140 206 126 288 b 143 560 124 435 122 497 b 106 688 158 604 146 654 b 43 689 88 703 63 704 b 10 568 6 657 0 613 b 19 418 22 518 21 468 b 38 196 17 343 25 269 b 121 -37 51 113 74 33 b 351 -108 175 -122 260 -147 b 490 -4 407 -85 451 -49 b 639 206 549 60 594 132 b 703 283 651 229 658 258 z m 226 804 b 311 710 229 751 267 708 b 400 811 357 710 400 760 b 310 897 400 864 361 900 b 226 804 258 894 225 857 z m 471 804 b 556 710 474 751 511 708 b 644 811 601 710 644 760 b 554 897 644 864 606 900 b 471 804 503 894 469 857 z "},"ı":{"ha":256,"x_min":0,"x_max":0,"o":"m 0 289 b 1 289 0 289 1 289 b 1 14 1 197 1 106 b 19 -108 0 -28 10 -68 b 74 -178 28 -139 43 -164 b 150 -165 103 -192 128 -186 b 157 -97 169 -146 172 -121 b 125 -22 143 -74 125 -53 b 143 549 126 168 110 358 b 76 669 154 615 126 667 b 0 563 29 672 1 633 b 0 289 0 471 0 379 z "},"̀":{"ha":465,"x_min":0,"x_max":0,"o":"m 315 736 b 375 811 353 736 382 774 b 333 883 369 840 351 863 b 138 1097 268 954 204 1028 b 31 1114 97 1140 60 1144 b 46 997 0 1081 3 1025 b 251 782 131 940 188 858 b 315 736 269 760 286 739 z "},"́":{"ha":465,"x_min":0,"x_max":0,"o":"m 67 736 b 131 782 96 739 113 760 b 336 997 194 858 251 940 b 350 1114 379 1025 382 1081 b 244 1097 321 1144 285 1140 b 49 883 178 1028 114 954 b 7 811 29 863 13 840 b 67 736 0 774 29 736 z "},"̂":{"ha":704,"x_min":0,"x_max":0,"o":"m 618 835 b 575 890 617 863 601 883 b 460 982 524 904 493 943 b 401 1051 440 1004 422 1029 b 193 1078 336 1118 272 1126 b 18 892 118 1032 69 960 b 21 814 0 868 3 839 b 138 819 50 771 103 771 b 221 932 165 857 189 897 b 360 928 289 1004 301 1004 b 453 811 392 889 421 849 b 511 767 469 792 488 774 b 618 835 565 747 621 783 z "},"̃":{"ha":772,"x_min":0,"x_max":0,"o":"m 481 799 b 679 943 561 799 656 868 b 653 1024 689 976 681 1004 b 571 1017 624 1046 596 1039 b 544 985 560 1008 553 996 b 397 971 488 913 468 910 b 251 1064 353 1008 308 1044 b 22 961 167 1092 57 1043 b 60 840 0 911 18 857 b 151 907 101 824 132 846 b 249 942 171 965 199 978 b 342 860 282 917 310 886 b 481 799 382 825 426 796 z "},"̄":{"ha":528,"x_min":0,"x_max":0,"o":"m 214 1008 b 214 1004 214 1007 214 1006 b 65 1003 165 1004 114 1008 b 6 926 22 997 0 963 b 86 876 10 890 38 872 b 357 865 176 883 267 896 b 426 894 385 856 411 867 b 414 978 444 925 438 954 b 339 1008 393 999 368 1008 b 214 1008 297 1010 256 1008 z "},"̇":{"ha":258,"x_min":0,"x_max":0,"o":"m 1 936 b 86 842 4 883 42 840 b 175 943 132 842 175 892 b 85 1029 175 996 136 1032 b 1 936 33 1026 0 989 z "},"̈":{"ha":503,"x_min":0,"x_max":0,"o":"m 1 936 b 86 842 4 883 42 840 b 175 943 132 842 175 892 b 85 1029 175 996 136 1032 b 1 936 33 1026 0 989 z m 246 936 b 331 842 249 883 286 840 b 419 943 376 842 419 892 b 329 1029 419 996 381 1032 b 246 936 278 1026 244 989 z "},"̊":{"ha":481,"x_min":0,"x_max":0,"o":"m 188 1126 b 6 944 85 1129 10 1056 b 182 744 0 836 78 747 b 396 944 293 740 394 836 b 188 1126 397 1044 307 1122 z m 196 954 b 251 942 215 953 242 975 b 188 879 258 915 218 878 b 135 931 156 881 133 900 b 196 954 136 979 176 944 z "},"̌":{"ha":703,"x_min":0,"x_max":0,"o":"m 1 1035 b 44 981 4 1007 18 988 b 160 889 97 967 128 928 b 219 819 179 865 197 842 b 426 793 283 751 347 743 b 601 979 501 839 550 910 b 600 1057 619 1003 617 1032 b 482 1051 569 1100 517 1100 b 399 939 456 1013 431 972 b 260 943 332 867 319 867 b 167 1060 229 982 199 1021 b 108 1104 151 1079 132 1096 b 1 1035 54 1122 0 1086 z "},"̧":{"ha":467,"x_min":0,"x_max":0,"o":"m 382 -350 b 353 -275 382 -322 371 -296 b 103 -85 283 -193 197 -133 b 13 -115 65 -64 26 -82 b 49 -199 0 -147 14 -179 b 88 -212 61 -206 75 -207 b 246 -318 147 -239 199 -275 b 239 -392 278 -349 275 -365 b 86 -453 193 -424 142 -443 b 33 -525 49 -460 28 -492 b 106 -581 39 -558 65 -581 b 154 -571 121 -579 139 -578 b 344 -440 225 -539 292 -499 b 382 -350 367 -414 383 -386 z "},"–":{"ha":822,"x_min":0,"x_max":0,"o":"m 478 335 b 82 300 344 339 213 322 b 8 240 47 293 18 276 b 36 167 0 210 13 186 b 135 167 68 142 103 142 b 211 194 158 185 185 189 b 501 211 307 215 404 211 b 618 179 543 211 581 207 b 718 199 656 151 694 163 b 703 304 739 232 733 279 b 618 335 679 325 650 335 b 478 335 571 336 525 335 z "},"—":{"ha":906,"x_min":0,"x_max":0,"o":"m 561 335 b 82 300 428 339 296 322 b 8 240 47 296 18 276 b 36 167 0 210 13 186 b 135 167 68 142 29 149 b 294 194 242 185 268 189 b 585 211 390 215 488 211 b 701 179 626 211 664 207 b 801 199 739 151 778 163 b 786 304 822 232 817 279 b 701 335 763 325 733 335 b 561 335 654 336 608 335 z "},"‘":{"ha":301,"x_min":0,"x_max":0,"o":"m 1 982 b 67 904 0 943 26 908 b 135 968 104 900 136 924 b 193 1143 133 1035 154 1090 b 186 1231 217 1172 218 1206 b 94 1226 156 1253 124 1247 b 54 1174 76 1213 65 1193 b 1 982 21 1115 14 1050 z "},"’":{"ha":303,"x_min":0,"x_max":0,"o":"m 217 1165 b 151 1244 219 1206 192 1240 b 83 1181 114 1249 82 1225 b 25 1006 85 1114 64 1058 b 32 918 3 976 0 943 b 124 922 63 896 94 900 b 164 974 142 935 153 954 b 217 1165 197 1032 206 1099 z "},"‚":{"ha":303,"x_min":0,"x_max":0,"o":"m 217 -156 b 151 -76 219 -115 192 -81 b 83 -140 114 -72 82 -96 b 25 -315 85 -207 64 -262 b 32 -403 3 -344 0 -378 b 124 -399 63 -425 94 -421 b 164 -347 142 -386 153 -367 b 217 -156 197 -289 206 -222 z "},"“":{"ha":508,"x_min":0,"x_max":0,"o":"m 208 982 b 274 904 207 943 233 908 b 342 968 311 900 343 924 b 400 1143 340 1035 361 1090 b 393 1231 424 1172 425 1206 b 301 1226 363 1253 331 1247 b 261 1174 283 1213 272 1193 b 208 982 228 1115 221 1050 z m 1 982 b 67 904 0 943 26 908 b 135 968 104 900 136 924 b 193 1143 133 1035 154 1090 b 186 1231 217 1172 218 1206 b 94 1226 156 1253 124 1247 b 54 1174 76 1213 65 1193 b 1 982 21 1115 14 1050 z "},"”":{"ha":510,"x_min":0,"x_max":0,"o":"m 217 1165 b 151 1244 219 1206 192 1240 b 83 1181 114 1249 82 1225 b 25 1006 85 1114 64 1058 b 32 918 3 976 0 943 b 124 922 63 896 94 900 b 164 974 142 935 153 954 b 217 1165 197 1032 206 1099 z m 424 1165 b 358 1244 426 1206 399 1240 b 290 1181 321 1249 289 1225 b 232 1006 292 1114 271 1058 b 239 918 210 976 207 943 b 331 922 269 896 301 900 b 371 974 349 935 360 954 b 424 1165 404 1032 413 1099 z "},"„":{"ha":510,"x_min":0,"x_max":0,"o":"m 217 -156 b 151 -76 219 -115 192 -81 b 83 -140 114 -72 82 -96 b 25 -315 85 -207 64 -262 b 32 -403 3 -344 0 -378 b 124 -399 63 -425 94 -421 b 164 -347 142 -386 153 -367 b 217 -156 197 -289 206 -222 z m 424 -156 b 358 -76 426 -115 399 -81 b 290 -140 321 -72 289 -96 b 232 -315 292 -207 271 -262 b 239 -403 210 -344 207 -378 b 331 -399 269 -425 301 -421 b 371 -347 349 -386 360 -367 b 424 -156 404 -289 413 -222 z "},"†":{"ha":849,"x_min":0,"x_max":0,"o":"m 356 215 b 369 -83 353 115 356 17 b 418 -156 375 -114 385 -143 b 486 -136 443 -164 467 -157 b 486 -53 510 -108 506 -81 b 463 43 468 -24 464 10 b 476 483 456 190 479 336 b 532 540 475 521 494 539 b 682 533 582 540 632 542 b 758 578 724 526 753 544 b 711 656 765 617 746 642 b 654 665 694 663 674 664 b 556 667 622 667 589 665 b 488 742 482 667 478 671 b 506 839 492 775 497 807 b 492 944 514 876 508 911 b 431 982 479 968 458 982 b 368 936 400 981 379 964 b 363 854 357 910 354 882 b 369 722 374 811 372 767 b 297 649 367 657 363 653 b 76 613 222 644 149 635 b 18 511 22 596 0 553 b 129 479 38 468 83 451 b 313 526 188 514 249 521 b 365 474 365 531 374 525 b 356 215 354 388 356 301 z "},"‡":{"ha":876,"x_min":0,"x_max":0,"o":"m 336 67 b 339 67 338 67 339 67 b 340 -74 339 19 336 -28 b 403 -126 343 -108 365 -131 b 454 -62 438 -121 454 -97 b 449 -29 454 -51 449 -40 b 446 186 447 43 444 115 b 517 253 447 244 456 251 b 629 231 556 253 592 246 b 711 263 665 217 700 232 b 683 350 725 299 715 329 b 589 376 656 368 622 375 b 497 378 558 378 528 378 b 447 413 474 378 456 386 b 575 585 410 539 447 589 b 685 554 615 585 651 581 b 767 560 711 532 742 533 b 769 651 793 589 789 621 b 701 694 754 676 729 689 b 503 707 635 707 569 714 b 447 760 453 701 444 711 b 457 817 447 779 453 799 b 453 882 463 839 461 861 b 361 947 436 932 401 957 b 308 856 325 938 304 904 b 321 799 310 836 317 818 b 243 688 333 717 325 704 b 72 657 186 676 128 678 b 15 563 22 638 0 601 b 125 529 31 519 76 503 b 218 564 156 544 185 557 b 338 468 317 585 336 568 b 338 435 338 457 338 446 b 265 363 335 369 331 364 b 101 339 208 361 154 351 b 43 253 57 329 33 290 b 135 206 51 214 86 196 b 197 225 156 210 176 218 b 288 236 228 235 257 236 b 336 192 318 236 335 221 b 336 67 336 150 336 108 z "},"•":{"ha":694,"x_min":0,"x_max":0,"o":"m 153 611 b 7 489 74 614 13 564 b 140 333 0 410 63 336 b 289 476 215 331 289 401 b 153 611 289 549 229 608 z "},"…":{"ha":1389,"x_min":0,"x_max":0,"o":"m 76 -76 b 3 -137 38 -75 7 -100 b 71 -215 0 -176 32 -214 b 146 -143 108 -217 146 -182 b 76 -76 144 -107 115 -78 z m 539 -76 b 465 -137 500 -75 469 -100 b 533 -215 463 -176 494 -214 b 608 -143 571 -217 608 -182 b 539 -76 607 -107 578 -78 z m 1001 -76 b 928 -137 963 -75 932 -100 b 996 -215 925 -176 957 -214 b 1071 -143 1033 -217 1071 -182 b 1001 -76 1069 -107 1040 -78 z "},"‹":{"ha":811,"x_min":0,"x_max":0,"o":"m 529 368 b 544 364 533 367 539 364 b 628 433 596 363 629 390 b 549 501 626 474 593 503 b 483 486 526 500 504 494 b 308 413 425 464 365 440 b 81 261 228 369 147 325 b 124 54 0 183 19 94 b 171 40 139 47 154 44 b 622 -17 318 0 471 -1 b 671 -7 638 -18 656 -12 b 721 68 706 6 728 28 b 644 115 715 100 683 121 b 365 128 550 99 457 122 b 218 149 317 131 265 131 b 183 168 206 154 189 153 b 207 207 176 189 193 199 b 472 360 290 267 376 322 b 529 368 490 367 508 375 z "},"›":{"ha":811,"x_min":0,"x_max":0,"o":"m 199 117 b 183 119 193 118 189 119 b 100 50 132 122 99 93 b 179 -17 101 11 135 -19 b 243 -3 201 -17 224 -11 b 419 72 303 21 363 43 b 647 222 500 114 581 158 b 604 431 728 300 708 389 b 557 444 589 436 572 439 b 106 500 408 483 256 485 b 57 490 90 503 72 496 b 7 417 22 479 0 456 b 83 369 13 385 43 363 b 363 356 178 385 269 363 b 510 335 411 353 463 353 b 544 315 522 329 539 331 b 521 276 551 294 533 285 b 256 124 438 217 351 163 b 199 117 238 117 219 110 z "},"⁄":{"ha":496,"x_min":0,"x_max":0,"o":"m 257 946 b 243 819 271 899 253 860 b 11 -149 158 499 83 175 b 3 -222 7 -174 0 -197 b 53 -279 4 -254 21 -275 b 117 -239 83 -285 106 -267 b 124 -206 121 -228 124 -217 b 158 -19 124 -142 144 -81 b 229 297 182 86 206 192 b 400 938 281 511 322 729 b 408 1028 411 967 413 997 b 365 1083 404 1054 393 1075 b 292 1058 335 1092 310 1083 b 257 946 267 1024 253 985 z "},"∕":{"ha":496,"x_min":0,"x_max":0,"o":"m 257 946 b 243 819 271 899 253 860 b 11 -149 158 499 83 175 b 3 -222 7 -174 0 -197 b 53 -279 4 -254 21 -275 b 117 -239 83 -285 106 -267 b 124 -206 121 -228 124 -217 b 158 -19 124 -142 144 -81 b 229 297 182 86 206 192 b 400 938 281 511 322 729 b 408 1028 411 967 413 997 b 365 1083 404 1054 393 1075 b 292 1058 335 1092 310 1083 b 257 946 267 1024 253 985 z "},"₣":{"ha":614,"x_min":0,"x_max":0,"o":"m 206 -61 b 183 -37 192 -46 188 -42 b 79 -6 144 7 114 17 b 57 -117 44 -29 35 -72 b 179 -237 83 -169 125 -211 b 311 -172 240 -268 296 -240 b 315 -107 315 -151 315 -128 b 314 185 315 -10 315 88 b 429 285 313 300 313 300 b 438 283 432 283 435 283 b 518 325 474 278 504 288 b 468 407 531 358 510 389 b 361 424 433 422 397 422 b 318 474 329 424 310 436 b 383 449 344 469 360 450 b 449 535 435 446 472 490 b 322 719 415 601 379 668 b 196 675 265 769 211 750 b 192 600 192 651 192 625 b 192 468 192 556 192 511 b 138 407 192 432 176 410 b 38 372 101 404 67 396 b 17 282 10 347 0 317 b 108 246 32 249 71 233 b 138 261 118 249 128 257 b 206 226 188 286 204 281 b 206 -61 208 135 206 43 z "},"₤":{"ha":940,"x_min":0,"x_max":0,"o":"m 168 338 b 108 296 164 303 129 307 b 57 226 79 282 57 261 b 111 163 57 192 79 174 b 161 81 165 143 171 132 b 97 -12 154 40 133 10 b 64 -103 64 -32 44 -61 b 165 -136 79 -136 119 -150 b 203 -118 178 -132 190 -125 b 765 -15 379 -29 569 -3 b 851 40 813 -18 846 1 b 782 118 857 78 829 111 b 658 113 742 124 700 119 b 339 63 553 94 446 79 b 300 68 325 60 313 57 b 335 215 269 96 293 201 b 482 226 382 232 432 225 b 553 279 526 226 551 246 b 494 350 553 319 529 342 b 411 353 467 354 439 354 b 313 340 378 350 346 344 b 281 360 299 339 283 343 b 307 393 275 381 289 390 b 463 378 360 399 410 400 b 550 418 501 361 536 383 b 511 517 565 457 550 497 b 397 531 475 533 436 539 b 324 521 372 526 349 522 b 257 583 272 521 260 532 b 256 725 256 631 258 678 b 307 779 254 763 264 778 b 383 864 363 779 390 817 b 244 976 374 918 301 978 b 156 874 196 976 168 944 b 150 800 151 850 150 825 b 160 568 150 722 146 644 b 108 483 169 510 163 504 b 76 471 97 479 88 475 b 15 369 22 446 0 410 b 128 335 31 328 72 315 b 168 338 140 339 150 353 z "},"€":{"ha":958,"x_min":0,"x_max":0,"o":"m 432 143 b 496 139 457 142 476 139 b 581 201 547 140 578 163 b 507 278 582 236 551 271 b 408 272 474 285 440 281 b 303 250 374 264 339 256 b 256 274 283 247 263 250 b 283 328 250 299 260 318 b 315 336 293 332 304 336 b 485 315 372 336 431 350 b 569 328 514 299 544 301 b 583 406 590 350 592 378 b 501 464 571 444 540 463 b 319 456 440 467 379 469 b 275 494 286 449 268 461 b 432 838 301 619 344 739 b 561 858 467 875 514 881 b 651 754 606 836 636 801 b 667 690 657 733 660 711 b 747 631 682 649 713 626 b 806 717 785 636 808 668 b 746 869 803 774 778 824 b 315 871 626 1035 432 1035 b 172 528 242 767 196 651 b 65 404 160 463 142 410 b 50 397 60 403 54 400 b 1 328 18 385 0 361 b 53 268 4 296 24 276 b 110 257 71 263 90 260 b 138 232 124 254 136 249 b 119 207 138 219 129 211 b 88 194 110 201 99 199 b 49 128 61 181 46 160 b 106 67 51 93 75 65 b 211 -17 169 69 186 28 b 497 -178 272 -129 368 -186 b 814 -87 610 -172 714 -135 b 842 -68 824 -82 833 -75 b 858 15 865 -44 875 -17 b 774 49 840 50 810 60 b 707 17 751 42 729 28 b 469 -53 632 -18 557 -54 b 290 71 389 -51 319 -3 b 322 131 278 106 289 125 b 432 143 361 138 400 140 z "},"№":{"ha":1917,"x_min":0,"x_max":0,"o":"m 146 207 b 119 621 114 343 119 482 b 163 758 119 671 128 717 b 160 881 194 797 190 843 b 44 868 124 924 71 918 b 26 788 32 843 29 815 b 31 174 0 583 8 378 b 78 -112 40 78 50 -19 b 163 -200 94 -175 121 -200 b 256 -110 208 -201 238 -175 b 285 53 271 -57 278 -1 b 382 524 303 213 326 372 b 576 840 425 643 488 750 b 646 900 597 863 621 883 b 771 858 704 936 746 922 b 793 771 783 831 789 801 b 782 199 821 579 794 389 b 779 -100 775 99 769 -1 b 846 -186 785 -140 801 -176 b 925 -150 879 -193 906 -176 b 926 -44 950 -115 957 -79 b 901 24 908 -25 901 -1 b 904 224 903 90 899 158 b 917 756 922 401 918 578 b 868 947 917 824 899 888 b 622 1043 818 1044 725 1079 b 485 953 569 1024 525 992 b 261 614 385 857 315 740 b 146 207 207 483 174 347 z m 1833 544 b 1771 806 1831 644 1811 728 b 1107 882 1617 1103 1260 1079 b 1138 526 1015 763 1022 624 b 1190 406 1178 492 1197 458 b 1190 357 1189 390 1190 372 b 1603 132 1199 128 1408 13 b 1833 544 1760 228 1825 378 z m 1215 640 b 1222 835 1160 713 1164 771 b 1560 864 1300 917 1469 933 b 1692 564 1654 792 1697 694 b 1546 586 1643 604 1594 597 b 1389 579 1494 574 1442 578 b 1340 600 1369 579 1349 576 b 1357 646 1335 618 1346 633 b 1390 681 1368 658 1382 668 b 1372 783 1414 717 1406 763 b 1274 754 1338 806 1296 793 b 1215 640 1253 719 1254 672 z m 1693 507 b 1525 253 1669 386 1617 306 b 1368 250 1474 224 1418 213 b 1303 413 1317 289 1301 350 b 1350 442 1303 444 1326 446 b 1581 457 1428 426 1504 447 b 1693 507 1617 461 1651 471 z m 1549 15 b 1153 -19 1415 19 1283 3 b 1079 -79 1118 -26 1089 -43 b 1107 -153 1071 -110 1083 -133 b 1206 -153 1139 -178 1172 -178 b 1282 -125 1228 -135 1254 -131 b 1571 -108 1378 -104 1475 -108 b 1689 -140 1613 -108 1651 -112 b 1788 -121 1726 -168 1765 -157 b 1774 -15 1810 -87 1804 -40 b 1689 15 1750 6 1721 15 b 1549 15 1642 17 1594 15 z "},"™":{"ha":1189,"x_min":0,"x_max":0,"o":"m 592 1147 b 571 1210 581 1179 576 1194 b 374 1350 535 1314 483 1350 b 65 1261 261 1350 163 1311 b 28 1229 51 1254 38 1242 b 33 1125 0 1194 3 1151 b 138 1131 63 1099 108 1100 b 161 1164 147 1140 153 1153 b 197 1179 171 1175 182 1183 b 214 1144 213 1174 214 1158 b 214 1086 215 1125 214 1106 b 215 911 214 1028 214 969 b 246 818 217 878 222 844 b 328 801 268 793 297 785 b 357 871 356 817 371 842 b 340 1142 317 960 344 1051 b 354 1207 339 1163 347 1186 b 433 1224 367 1242 406 1250 b 461 1157 451 1206 458 1182 b 478 975 468 1096 482 1036 b 489 885 476 944 478 914 b 629 858 515 821 581 808 b 675 919 647 876 650 904 b 693 892 682 910 686 901 b 861 899 744 815 818 818 b 906 1014 879 935 890 976 b 969 1140 924 1057 935 1101 b 968 1058 982 1107 972 1083 b 964 868 960 996 957 932 b 1038 794 969 819 1001 790 b 1086 878 1072 800 1089 826 b 1097 1125 1081 961 1085 1043 b 1097 1250 1104 1167 1106 1208 b 931 1319 1082 1340 1006 1372 b 810 1175 878 1283 840 1232 b 763 1118 800 1156 797 1126 b 690 1238 751 1168 758 1229 b 592 1147 636 1243 618 1197 z "},"−":{"ha":822,"x_min":0,"x_max":0,"o":"m 478 335 b 82 300 344 339 213 322 b 8 240 47 293 18 276 b 36 167 0 210 13 186 b 135 167 68 142 103 142 b 211 194 158 185 185 189 b 501 211 307 215 404 211 b 618 179 543 211 581 207 b 718 199 656 151 694 163 b 703 304 739 232 733 279 b 618 335 679 325 650 335 b 478 335 571 336 525 335 z "},"≈":{"ha":772,"x_min":0,"x_max":0,"o":"m 481 -17 b 679 128 561 -17 656 53 b 653 208 689 161 681 189 b 571 201 624 231 596 224 b 544 169 560 193 553 181 b 397 156 488 97 468 94 b 251 249 353 193 308 229 b 22 146 167 276 57 228 b 60 25 0 96 18 42 b 151 92 101 8 132 31 b 249 126 171 150 199 163 b 342 44 282 101 310 71 b 481 -17 382 10 426 -19 z m 481 224 b 679 368 561 224 656 293 b 653 449 689 401 681 429 b 571 442 624 471 596 464 b 544 410 560 433 553 421 b 397 396 488 338 468 335 b 251 489 353 433 308 469 b 22 386 167 517 57 468 b 60 265 0 336 18 282 b 151 332 101 249 132 271 b 249 367 171 390 199 403 b 342 285 282 342 310 311 b 481 224 382 250 426 221 z "},"≤":{"ha":811,"x_min":0,"x_max":0,"o":"m 497 -132 b 607 -168 536 -136 571 -150 b 700 -143 646 -189 682 -175 b 672 -40 718 -108 706 -64 b 610 -19 654 -26 632 -21 b 494 -6 571 -15 533 -11 b 256 -21 446 0 297 -18 b 108 -39 207 -24 157 -29 b 46 -121 61 -47 38 -82 b 143 -175 54 -161 99 -186 b 196 -151 161 -171 178 -157 b 497 -132 293 -126 438 -125 z m 528 432 b 544 428 533 431 539 428 b 628 497 596 426 629 454 b 549 565 626 538 593 567 b 483 550 526 564 504 558 b 308 476 425 528 365 504 b 81 325 228 433 147 389 b 122 118 0 247 19 158 b 171 104 139 111 154 108 b 622 47 318 64 471 63 b 671 57 638 46 656 51 b 721 132 704 69 728 92 b 644 179 715 164 683 185 b 364 192 550 163 457 186 b 218 213 315 194 265 194 b 183 232 206 218 188 217 b 207 271 176 253 193 263 b 472 424 290 331 376 386 b 528 432 490 431 508 439 z "},"≥":{"ha":811,"x_min":0,"x_max":0,"o":"m 472 -132 b 582 -168 511 -136 546 -150 b 675 -143 621 -189 657 -175 b 647 -40 693 -108 681 -64 b 585 -19 629 -26 607 -21 b 469 -6 546 -15 508 -11 b 231 -21 421 0 272 -18 b 83 -39 182 -24 132 -29 b 21 -121 36 -47 13 -82 b 118 -175 29 -161 74 -186 b 171 -151 136 -171 153 -157 b 472 -132 268 -126 413 -125 z m 199 181 b 183 183 193 182 188 183 b 100 114 132 186 99 157 b 179 47 101 75 135 44 b 243 61 201 47 224 53 b 418 136 303 85 363 107 b 646 286 500 178 581 222 b 604 494 728 364 708 453 b 557 508 589 500 572 503 b 106 564 408 547 256 549 b 57 554 89 567 72 560 b 7 481 22 543 0 519 b 83 433 13 449 43 426 b 363 419 178 449 269 426 b 510 399 411 417 463 417 b 544 379 522 393 539 394 b 521 340 551 358 533 349 b 256 188 438 281 351 226 b 199 181 238 181 219 174 z "},"ﬁ":{"ha":892,"x_min":0,"x_max":0,"o":"m 290 801 b 306 749 311 781 303 764 b 378 663 314 694 339 663 b 456 754 419 663 458 703 b 396 967 453 829 440 903 b 285 1026 368 1004 333 1033 b 193 940 235 1021 208 985 b 174 868 185 917 179 893 b 156 646 157 794 153 721 b 96 540 158 596 146 561 b 11 435 51 521 22 483 b 28 304 0 389 14 346 b 108 -110 75 171 106 33 b 132 -214 108 -146 115 -181 b 199 -254 144 -240 168 -257 b 257 -203 229 -251 250 -232 b 264 -121 263 -176 264 -149 b 265 386 265 49 265 217 b 381 467 267 469 301 493 b 431 438 397 460 413 446 b 532 457 472 415 510 422 b 507 558 553 492 543 531 b 446 585 489 572 468 579 b 331 599 408 593 369 600 b 281 642 303 599 282 611 b 290 801 279 693 278 744 z m 636 289 b 638 289 636 289 638 289 b 638 14 638 197 638 106 b 656 -108 636 -28 646 -68 b 710 -178 664 -139 679 -164 b 786 -165 739 -192 764 -186 b 793 -97 806 -146 808 -121 b 761 -22 779 -74 761 -53 b 779 549 763 168 746 358 b 713 669 790 615 763 667 b 636 563 665 672 638 633 b 636 289 636 471 636 379 z m 789 811 b 733 881 793 844 769 875 b 651 832 693 889 658 868 b 710 757 644 794 669 761 b 789 811 750 751 783 775 z "},"ﬂ":{"ha":1139,"x_min":0,"x_max":0,"o":"m 290 801 b 306 749 311 781 303 764 b 378 663 314 694 339 663 b 456 754 419 663 458 703 b 396 967 453 829 440 903 b 285 1026 368 1004 333 1033 b 193 940 235 1021 208 985 b 174 868 185 917 179 893 b 156 646 157 794 153 721 b 96 540 158 596 146 561 b 11 435 51 521 22 483 b 28 304 0 389 14 346 b 108 -110 75 171 106 33 b 132 -214 108 -146 115 -181 b 199 -254 144 -240 168 -257 b 257 -203 229 -251 250 -232 b 264 -121 263 -176 264 -149 b 265 386 265 49 265 217 b 381 467 267 469 301 493 b 431 438 397 460 413 446 b 532 457 472 415 510 422 b 507 558 553 492 543 531 b 446 585 489 572 468 579 b 331 599 408 593 369 600 b 281 642 303 599 282 611 b 290 801 279 693 278 744 z m 636 317 b 681 -78 636 156 643 36 b 938 -317 722 -204 813 -281 b 1051 -246 989 -331 1044 -293 b 967 -168 1057 -203 1026 -169 b 811 -72 893 -168 849 -126 b 758 83 779 -26 769 29 b 757 439 736 203 743 321 b 849 907 778 597 775 760 b 793 1029 871 954 838 1019 b 706 951 750 1040 717 1013 b 692 853 700 919 697 886 b 636 317 661 661 642 469 z "},"Œ":{"ha":1790,"x_min":0,"x_max":0,"o":"m 514 414 l 471 414 b 374 415 438 413 406 413 b 319 482 329 417 311 439 b 326 528 322 497 325 513 b 340 607 329 554 333 581 b 375 678 346 632 357 656 b 390 782 396 708 400 743 b 390 831 383 806 383 821 b 432 849 396 839 410 844 b 754 713 567 874 675 828 b 833 479 799 642 825 564 b 786 429 838 443 821 426 b 672 419 749 428 710 425 b 514 414 621 411 568 410 z m 260 747 b 247 678 256 724 251 700 b 215 504 236 615 225 558 b 210 485 214 497 213 490 b 193 472 206 478 200 474 b 171 479 183 471 176 474 b 154 497 164 483 158 490 b 138 576 136 521 131 547 b 176 668 144 608 158 639 b 260 747 194 697 222 724 z m 560 303 l 619 303 b 758 301 665 304 713 303 b 810 288 785 301 803 297 b 810 235 817 278 817 260 b 669 -25 786 136 739 50 b 575 -90 643 -54 611 -75 b 403 -53 508 -118 451 -106 b 326 103 364 -4 339 47 b 314 275 314 157 310 215 b 329 301 315 289 319 297 b 361 306 339 306 349 307 b 504 306 408 304 456 304 l 560 306 z m 913 88 b 964 -86 922 28 940 -29 b 1140 -224 1001 -162 1060 -208 b 1322 -218 1203 -235 1264 -233 b 1493 -157 1381 -204 1438 -183 b 1532 -115 1511 -149 1525 -135 b 1526 -47 1542 -89 1539 -67 b 1465 -18 1513 -28 1492 -18 b 1410 -36 1444 -19 1426 -26 b 1238 -94 1356 -65 1299 -85 b 1058 0 1150 -112 1090 -81 b 1010 292 1021 93 1006 190 b 1065 351 1011 328 1029 347 b 1478 386 1201 372 1339 385 b 1539 376 1499 385 1519 382 b 1576 369 1551 374 1564 371 b 1644 404 1607 365 1629 376 b 1622 486 1657 438 1650 465 b 1544 511 1600 504 1574 513 l 1481 511 b 1279 500 1413 514 1346 510 b 1182 492 1247 496 1214 493 b 1065 481 1142 492 1103 488 b 1021 522 1033 474 1019 488 b 1025 585 1022 543 1024 564 b 1042 771 1026 647 1032 708 b 1126 861 1050 821 1078 851 b 1315 885 1189 872 1253 881 b 1506 872 1378 889 1442 885 b 1576 835 1532 868 1556 856 b 1683 828 1614 796 1650 793 b 1707 888 1699 846 1707 865 b 1679 947 1706 908 1697 929 b 1574 992 1649 974 1614 988 b 1567 993 1572 992 1569 992 b 1381 1010 1499 1007 1438 1013 b 1013 972 1250 1008 1128 996 b 886 935 969 964 926 951 b 822 860 849 922 826 897 b 717 942 790 892 756 919 b 450 990 635 988 546 1003 b 172 857 346 974 253 929 b 18 604 92 785 40 700 b 114 376 -1 504 31 428 b 196 231 172 344 200 296 b 275 -87 193 118 219 13 b 450 -226 319 -161 378 -207 b 671 -199 521 -247 594 -237 b 810 -82 725 -169 772 -131 b 913 88 853 -26 886 31 z m 911 732 b 882 783 901 750 892 767 b 893 782 885 782 889 782 b 925 744 917 781 926 768 b 922 710 924 733 924 721 z "},"œ":{"ha":1507,"x_min":0,"x_max":0,"o":"m 200 328 b 207 522 146 397 147 463 b 371 594 250 564 304 588 b 544 551 438 600 496 586 b 676 251 638 481 682 381 b 604 282 653 271 628 281 b 531 274 581 283 556 281 b 407 265 490 267 449 264 l 374 267 l 371 267 b 344 269 361 265 353 267 b 325 288 335 271 329 278 b 326 313 322 297 322 306 b 342 333 331 319 335 326 b 356 347 346 338 350 343 b 375 368 363 354 369 361 b 388 425 388 386 392 406 b 357 471 383 444 374 460 b 304 479 339 482 322 485 b 258 442 286 474 271 461 b 242 400 251 429 246 415 b 228 363 238 388 233 375 b 200 328 221 350 213 338 z m 896 293 b 850 326 860 290 844 301 b 965 542 867 411 906 483 b 1157 624 1025 600 1089 628 l 1160 624 b 1211 614 1178 622 1196 618 b 1249 579 1226 608 1239 597 b 1251 532 1256 563 1257 547 b 1226 488 1244 517 1236 501 b 896 293 1136 376 1026 311 z m 678 194 b 510 -60 656 76 600 -8 b 432 -86 483 -75 458 -83 b 353 -62 406 -89 379 -81 b 288 100 304 -19 283 35 b 303 129 289 115 293 125 b 335 129 313 132 322 132 b 508 136 393 122 451 124 b 565 144 528 139 547 142 b 678 194 600 146 638 163 z m 765 13 b 881 -136 797 -49 835 -99 b 1157 -240 949 -194 1040 -229 b 1297 -235 1204 -247 1251 -246 b 1344 -203 1318 -228 1335 -218 b 1354 -154 1354 -187 1358 -172 b 1282 -100 1344 -117 1321 -99 b 1219 -99 1261 -99 1240 -99 l 1192 -99 l 1192 -100 l 1172 -100 b 1133 -100 1160 -101 1146 -101 b 876 67 1014 -94 928 -39 b 860 124 861 96 856 114 b 917 144 864 133 883 140 b 1314 354 1071 174 1204 243 b 1392 472 1349 389 1374 428 b 1390 633 1413 532 1413 585 b 1267 739 1367 682 1326 717 b 1128 754 1222 754 1176 760 b 803 535 985 733 876 660 b 769 464 790 511 779 488 b 756 493 765 474 761 483 b 550 689 701 592 633 657 b 299 704 465 721 382 726 b 92 569 214 681 146 636 b 31 383 46 508 26 446 b 122 214 35 321 65 264 b 175 93 163 182 181 142 b 175 54 174 81 174 67 l 175 44 b 311 -199 183 -72 229 -153 b 588 -181 393 -244 486 -237 b 760 0 665 -132 722 -71 b 765 13 761 4 764 8 z "},"Š":{"ha":943,"x_min":0,"x_max":0,"o":"m 858 853 b 751 997 860 915 819 969 b 450 1010 653 1036 551 1035 b 75 765 297 971 168 896 b 100 457 0 660 10 551 b 225 361 136 419 181 390 b 497 218 313 307 406 265 b 636 129 546 192 594 167 b 621 -33 708 65 703 13 b 424 -96 560 -67 494 -87 b 360 -169 381 -100 356 -135 b 438 -231 365 -204 394 -228 b 454 -231 443 -231 449 -232 b 764 -82 568 -206 681 -171 b 774 168 833 -8 836 88 b 654 269 742 210 700 242 b 375 417 565 325 468 368 b 193 533 311 450 247 483 b 175 718 132 592 128 647 b 653 903 251 836 497 951 b 717 839 688 892 711 882 b 792 771 724 788 753 765 b 858 853 831 775 857 807 z m 143 1414 b 186 1360 146 1386 160 1367 b 301 1268 239 1346 269 1307 b 361 1199 321 1244 339 1221 b 568 1172 425 1131 489 1122 b 743 1358 643 1218 692 1289 b 742 1436 761 1382 758 1411 b 624 1431 711 1479 658 1479 b 540 1318 597 1392 572 1351 b 401 1322 474 1246 461 1246 b 308 1439 371 1361 340 1400 b 250 1483 293 1458 274 1475 b 143 1414 196 1501 142 1465 z "},"š":{"ha":779,"x_min":0,"x_max":0,"o":"m 379 749 b 390 660 385 708 385 683 b 443 613 397 635 417 618 b 508 640 471 607 492 619 b 506 822 538 676 535 782 b 363 856 475 864 424 879 b 49 607 233 804 125 725 b 63 367 0 531 7 438 b 204 253 100 317 151 282 b 431 131 279 211 356 172 b 521 72 463 113 493 94 b 521 -1 556 44 556 28 b 375 -79 478 -37 426 -60 b 278 -69 342 -93 308 -106 b 208 -60 260 -50 233 -49 b 147 -178 168 -78 139 -137 b 242 -243 157 -218 190 -242 b 315 -229 268 -243 292 -236 b 550 -126 399 -206 476 -169 b 628 -65 579 -110 606 -89 b 619 153 696 7 693 86 b 497 238 583 188 542 214 b 285 350 426 275 356 313 b 168 429 243 372 201 396 b 147 557 126 471 119 506 b 379 749 199 646 278 703 z m -72 1211 b -29 1157 -69 1183 -56 1164 b 86 1065 24 1143 54 1104 b 146 996 106 1042 124 1018 b 353 969 210 928 274 919 b 528 1156 428 1015 476 1086 b 526 1233 546 1179 543 1208 b 408 1228 496 1276 443 1276 b 325 1115 382 1189 357 1149 b 186 1119 258 1043 246 1043 b 93 1236 156 1158 125 1197 b 35 1281 78 1256 58 1272 b -72 1211 -19 1299 -74 1263 z "},"Ÿ":{"ha":938,"x_min":0,"x_max":0,"o":"m 403 161 b 422 -125 410 63 415 -31 b 450 -211 425 -156 432 -185 b 544 -240 472 -244 513 -256 b 567 -154 574 -225 582 -196 b 544 -92 558 -133 546 -115 b 532 306 540 40 531 174 b 571 454 532 356 531 414 b 835 1003 721 608 765 813 b 782 1107 854 1054 825 1099 b 700 1033 742 1114 714 1089 b 697 1018 699 1028 699 1022 b 524 604 654 874 604 732 b 272 590 450 486 361 482 b 156 792 222 650 182 717 b 125 868 147 817 138 843 b 50 906 110 897 85 914 b 3 844 19 899 6 875 b 26 733 0 806 0 764 b 140 560 72 681 101 617 b 363 386 194 478 260 406 b 415 306 410 376 417 344 b 403 161 413 256 407 207 z m 161 1139 b 246 1044 164 1086 201 1043 b 335 1146 292 1044 335 1094 b 244 1232 335 1199 296 1235 b 161 1139 193 1229 160 1192 z m 406 1139 b 490 1044 408 1086 446 1043 b 579 1146 536 1044 579 1094 b 489 1232 579 1199 540 1235 b 406 1139 438 1229 404 1192 z "},"ž":{"ha":917,"x_min":0,"x_max":0,"o":"m 294 -47 b 374 58 318 6 347 31 b 651 346 465 154 560 249 b 763 518 699 396 740 451 b 668 729 794 613 758 690 b 596 749 644 738 621 744 b 94 676 421 781 256 740 b 33 632 71 667 50 653 b 46 508 0 592 6 539 b 160 539 88 475 133 485 b 249 608 181 578 208 597 b 353 635 283 617 317 631 b 590 639 432 644 510 667 b 638 526 656 617 669 586 b 543 410 613 482 579 446 b 264 136 450 319 357 228 b 156 0 224 96 183 53 b 226 -167 114 -78 142 -140 b 342 -172 265 -178 304 -179 b 575 -157 419 -157 497 -160 b 710 -185 621 -156 667 -157 b 814 -153 753 -212 794 -194 b 776 -47 833 -112 819 -71 b 738 -35 764 -42 750 -36 b 596 -28 690 -32 644 -24 b 294 -47 500 -37 404 -29 z m 65 1115 b 108 1061 68 1088 82 1068 b 224 969 161 1047 192 1008 b 283 900 243 946 261 922 b 490 874 347 832 411 824 b 665 1060 565 919 614 990 b 664 1138 683 1083 681 1113 b 546 1132 633 1181 581 1181 b 463 1019 519 1093 494 1053 b 324 1024 396 947 383 947 b 231 1140 293 1063 263 1101 b 172 1185 215 1160 196 1176 b 65 1115 118 1203 64 1167 z "},"‰":{"ha":1160,"x_min":0,"x_max":0,"o":"m 460 49 b 463 -18 461 19 460 0 b 713 -139 485 -164 622 -229 b 785 -142 739 -112 760 -122 b 954 -150 839 -185 897 -187 b 1068 92 1042 -94 1076 -8 b 921 296 1060 188 1013 258 b 778 253 860 321 815 307 b 688 228 744 201 744 201 b 468 122 578 278 493 239 b 460 49 461 94 461 67 z m 926 69 b 899 -10 926 38 917 13 b 865 -26 890 -19 881 -31 b 842 4 851 -22 844 -10 b 847 85 835 31 838 58 b 899 126 856 108 871 131 b 926 69 931 121 925 90 z m 646 44 b 621 -19 644 21 643 -4 b 599 -19 615 -24 603 -24 b 585 50 581 0 583 26 b 619 88 586 71 596 89 b 646 44 646 86 643 64 z m 757 919 b 731 985 760 946 754 969 b 653 985 706 1001 678 1000 b 601 913 625 968 606 943 b 543 776 594 861 568 819 b 93 10 393 521 233 271 b 44 -96 75 -25 54 -58 b 83 -183 32 -142 47 -174 b 167 -125 122 -193 164 -169 b 219 13 169 -72 196 -31 b 388 299 275 108 329 204 b 722 844 497 482 610 663 b 757 919 736 868 753 890 z m 356 765 b 353 832 354 788 356 810 b 185 1006 339 922 274 989 b 65 953 135 1014 85 997 b 60 608 14 839 0 722 b 304 593 115 503 232 497 b 356 765 342 644 357 701 z m 201 842 b 203 710 218 789 217 749 b 179 689 199 700 193 689 b 157 710 167 690 160 699 b 201 842 147 757 147 803 z "}}}
